<svg width="1805" height="90" viewBox="0 0 1805 90" fill="none" xmlns="http://www.w3.org/2000/svg">
<g opacity="0.51">
<path d="M61.1029 33.5126H63.8029C63.8562 33.9659 64.0629 34.3792 64.4229 34.7526C64.7962 35.1126 65.2829 35.3992 65.8829 35.6126C66.4829 35.8126 67.1562 35.9126 67.9029 35.9126C68.5829 35.9126 69.1429 35.8392 69.5829 35.6926C70.0229 35.5459 70.3495 35.3392 70.5629 35.0726C70.7762 34.8059 70.8829 34.4859 70.8829 34.1126C70.8829 33.7526 70.7495 33.4792 70.4829 33.2926C70.2162 33.0926 69.7962 32.9326 69.2229 32.8126C68.6495 32.6792 67.8962 32.5459 66.9629 32.4126C66.2295 32.3059 65.5362 32.1592 64.8829 31.9726C64.2295 31.7726 63.6495 31.5192 63.1429 31.2126C62.6495 30.9059 62.2562 30.5326 61.9629 30.0926C61.6829 29.6392 61.5429 29.1059 61.5429 28.4926C61.5429 27.7326 61.7562 27.0659 62.1829 26.4926C62.6229 25.9192 63.2695 25.4726 64.1229 25.1526C64.9762 24.8326 66.0229 24.6726 67.2629 24.6726C69.1295 24.6726 70.5629 25.0726 71.5629 25.8726C72.5762 26.6592 73.0695 27.7459 73.0429 29.1326H70.4429C70.3895 28.3459 70.0562 27.7792 69.4429 27.4326C68.8429 27.0859 68.0829 26.9126 67.1629 26.9126C66.3095 26.9126 65.6029 27.0392 65.0429 27.2926C64.4962 27.5459 64.2229 27.9792 64.2229 28.5926C64.2229 28.8326 64.2895 29.0459 64.4229 29.2326C64.5562 29.4059 64.7829 29.5592 65.1029 29.6926C65.4229 29.8259 65.8562 29.9526 66.4029 30.0726C66.9495 30.1926 67.6295 30.3126 68.4429 30.4326C69.2029 30.5392 69.8895 30.6859 70.5029 30.8726C71.1295 31.0459 71.6629 31.2792 72.1029 31.5726C72.5562 31.8526 72.9029 32.2126 73.1429 32.6526C73.3829 33.0926 73.5029 33.6326 73.5029 34.2726C73.5029 35.0592 73.2962 35.7459 72.8829 36.3326C72.4829 36.9059 71.8562 37.3526 71.0029 37.6726C70.1629 37.9926 69.0695 38.1526 67.7229 38.1526C66.7629 38.1526 65.9162 38.0526 65.1829 37.8526C64.4495 37.6392 63.8162 37.3592 63.2829 37.0126C62.7495 36.6659 62.3162 36.2859 61.9829 35.8726C61.6495 35.4592 61.4095 35.0459 61.2629 34.6326C61.1295 34.2192 61.0762 33.8459 61.1029 33.5126ZM86.0096 24.9326H99.6496V27.1526H86.0096V24.9326ZM91.5096 26.8726H94.1696V37.8726H91.5096V26.8726ZM124.763 32.1526V24.9326H127.423V32.4326C127.423 33.2859 127.296 34.0326 127.043 34.6726C126.803 35.3126 126.456 35.8526 126.003 36.2926C125.55 36.7326 125.016 37.0926 124.403 37.3726C123.803 37.6392 123.143 37.8326 122.423 37.9526C121.716 38.0726 120.97 38.1326 120.183 38.1326C119.37 38.1326 118.596 38.0726 117.863 37.9526C117.13 37.8326 116.456 37.6392 115.843 37.3726C115.243 37.0926 114.723 36.7326 114.283 36.2926C113.843 35.8526 113.496 35.3126 113.243 34.6726C113.003 34.0326 112.883 33.2859 112.883 32.4326V24.9326H115.543V32.1526C115.543 33.1659 115.743 33.9392 116.143 34.4726C116.543 34.9926 117.09 35.3526 117.783 35.5526C118.49 35.7392 119.29 35.8326 120.183 35.8326C121.05 35.8326 121.823 35.7392 122.503 35.5526C123.196 35.3526 123.743 34.9926 124.143 34.4726C124.556 33.9392 124.763 33.1659 124.763 32.1526ZM149.2 24.9326C150.654 24.9326 151.867 25.1059 152.84 25.4526C153.814 25.7992 154.587 26.2726 155.16 26.8726C155.747 27.4592 156.16 28.1392 156.4 28.9126C156.654 29.6859 156.78 30.4992 156.78 31.3526C156.78 32.2059 156.64 33.0259 156.36 33.8126C156.094 34.5992 155.66 35.2992 155.06 35.9126C154.474 36.5126 153.694 36.9926 152.72 37.3526C151.76 37.6992 150.587 37.8726 149.2 37.8726H141.8V24.9326H149.2ZM144.46 35.5926H149.14C150.1 35.5926 150.894 35.4792 151.52 35.2526C152.16 35.0126 152.667 34.6926 153.04 34.2926C153.414 33.8926 153.68 33.4392 153.84 32.9326C154 32.4259 154.08 31.8992 154.08 31.3526C154.08 30.8059 154 30.2859 153.84 29.7926C153.68 29.2992 153.414 28.8592 153.04 28.4726C152.667 28.0859 152.16 27.7792 151.52 27.5526C150.894 27.3259 150.1 27.2126 149.14 27.2126H144.46V35.5926ZM171.058 24.9326H173.718V37.8726H171.058V24.9326ZM196.163 38.1326C194.443 38.1326 192.97 37.8659 191.743 37.3326C190.53 36.7859 189.596 36.0126 188.943 35.0126C188.303 34.0126 187.983 32.8126 187.983 31.4126C187.983 29.9992 188.303 28.7926 188.943 27.7926C189.596 26.7926 190.53 26.0259 191.743 25.4926C192.97 24.9459 194.443 24.6726 196.163 24.6726C197.896 24.6726 199.37 24.9459 200.583 25.4926C201.796 26.0259 202.723 26.7926 203.363 27.7926C204.016 28.7926 204.343 29.9992 204.343 31.4126C204.343 32.8126 204.016 34.0126 203.363 35.0126C202.723 36.0126 201.796 36.7859 200.583 37.3326C199.37 37.8659 197.896 38.1326 196.163 38.1326ZM196.163 35.8326C197.23 35.8326 198.163 35.6726 198.963 35.3526C199.776 35.0326 200.41 34.5459 200.863 33.8926C201.33 33.2392 201.563 32.4126 201.563 31.4126C201.563 30.4126 201.33 29.5859 200.863 28.9326C200.41 28.2792 199.776 27.7926 198.963 27.4726C198.163 27.1392 197.23 26.9726 196.163 26.9726C195.11 26.9726 194.17 27.1392 193.343 27.4726C192.516 27.7926 191.87 28.2792 191.403 28.9326C190.936 29.5859 190.703 30.4126 190.703 31.4126C190.703 32.4126 190.936 33.2392 191.403 33.8926C191.87 34.5459 192.516 35.0326 193.343 35.3526C194.17 35.6726 195.11 35.8326 196.163 35.8326ZM69.4029 62.1326C68.2029 62.1326 67.1162 61.9926 66.1429 61.7126C65.1829 61.4326 64.3495 61.0126 63.6429 60.4526C62.9495 59.8926 62.4162 59.1992 62.0429 58.3726C61.6695 57.5459 61.4829 56.5926 61.4829 55.5126C61.4829 54.4192 61.6762 53.4526 62.0629 52.6126C62.4629 51.7592 63.0229 51.0392 63.7429 50.4526C64.4762 49.8659 65.3429 49.4259 66.3429 49.1326C67.3562 48.8259 68.4762 48.6726 69.7029 48.6726C71.1562 48.6726 72.4095 48.8792 73.4629 49.2926C74.5162 49.6926 75.3429 50.2592 75.9429 50.9926C76.5562 51.7259 76.9029 52.5992 76.9829 53.6126H74.4229C74.2495 53.0792 73.9629 52.6192 73.5629 52.2326C73.1762 51.8326 72.6629 51.5259 72.0229 51.3126C71.3829 51.0859 70.6095 50.9726 69.7029 50.9726C68.5429 50.9726 67.5495 51.1592 66.7229 51.5326C65.9095 51.9059 65.2895 52.4326 64.8629 53.1126C64.4362 53.7926 64.2229 54.5926 64.2229 55.5126C64.2229 56.4059 64.4095 57.1792 64.7829 57.8326C65.1562 58.4726 65.7295 58.9659 66.5029 59.3126C67.2895 59.6592 68.2895 59.8326 69.5029 59.8326C70.4362 59.8326 71.2562 59.7126 71.9629 59.4726C72.6829 59.2192 73.2829 58.8859 73.7629 58.4726C74.2429 58.0459 74.5829 57.5726 74.7829 57.0526L75.8229 56.6726C75.6495 58.3926 74.9962 59.7326 73.8629 60.6926C72.7429 61.6526 71.2562 62.1326 69.4029 62.1326ZM75.1429 61.8726C75.1429 61.4592 75.1695 60.9859 75.2229 60.4526C75.2762 59.9059 75.3429 59.3592 75.4229 58.8126C75.5029 58.2526 75.5762 57.7392 75.6429 57.2726H69.7229V55.5726H77.4429V61.8726H75.1429ZM95.3441 61.8726V48.9326H104.124C105.124 48.9326 105.991 49.0726 106.724 49.3526C107.471 49.6192 108.051 50.0459 108.464 50.6326C108.877 51.2059 109.084 51.9459 109.084 52.8526C109.084 53.4659 108.977 53.9859 108.764 54.4126C108.551 54.8392 108.251 55.1859 107.864 55.4526C107.491 55.7192 107.057 55.9259 106.564 56.0726C106.071 56.2059 105.544 56.2926 104.984 56.3326L104.704 56.1726C105.637 56.1859 106.404 56.2659 107.004 56.4126C107.604 56.5459 108.051 56.7992 108.344 57.1726C108.651 57.5326 108.804 58.0726 108.804 58.7926V61.8726H106.144V58.9726C106.144 58.4792 106.057 58.0992 105.884 57.8326C105.711 57.5526 105.397 57.3592 104.944 57.2526C104.504 57.1459 103.864 57.0926 103.024 57.0926H98.0041V61.8726H95.3441ZM98.0041 55.0126H104.124C104.871 55.0126 105.437 54.8326 105.824 54.4726C106.224 54.1126 106.424 53.6259 106.424 53.0126C106.424 52.4259 106.224 51.9792 105.824 51.6726C105.437 51.3659 104.871 51.2126 104.124 51.2126H98.0041V55.0126ZM129.628 56.4726V59.6526H139.608V61.8726H126.968V48.9326H139.588V51.1526H129.628V54.3726H137.788V56.4726H129.628ZM160.099 56.4726V59.6526H170.079V61.8726H157.439V48.9326H170.059V51.1526H160.099V54.3726H168.259V56.4726H160.099ZM201.03 59.2326L200.19 59.5726V48.9326H202.85V61.8726H200.19L189.73 51.6526L190.57 51.3126V61.8726H187.91V48.9326H190.57L201.03 59.2326Z" fill="#030211"/>
<path d="M25.8043 18.771L27.283 36.1893L34.6299 20.3272L30.062 37.2007L42.391 24.8081L32.3275 39.1017L48.1515 31.6732L33.8062 41.6629L51.2166 40.0944L34.3197 44.5753L51.2166 49.0562L33.8062 47.4878L48.1515 57.4775L32.3275 50.0489L42.391 64.3426L30.062 51.9499L34.6299 68.8234L27.283 52.9614L25.8043 70.3796L24.3256 52.9614L16.9787 68.8234L21.5466 51.9499L9.21762 64.3426L19.2811 50.0489L3.45712 57.4775L17.8024 47.4878L0.392025 49.0562L17.2889 44.5753L0.392025 40.0944L17.8024 41.6629L3.45712 31.6732L19.2811 39.1017L9.21762 24.8081L21.5466 37.2007L16.9787 20.3272L24.3256 36.1893L25.8043 18.771Z" fill="#030211"/>
<path d="M353.481 20.5112H357.387V59.0752H352.737L344.739 29.1912V59.0752H340.833V20.5112H345.793L353.481 49.3412V20.5112ZM365.072 20.5112H371.396C374.661 20.5112 376.294 22.1439 376.294 25.4092V54.1772C376.294 57.4425 374.661 59.0752 371.396 59.0752H365.072C361.807 59.0752 360.174 57.4425 360.174 54.1772V25.4092C360.174 22.1439 361.807 20.5112 365.072 20.5112ZM372.078 53.4952V26.0912C372.078 25.2645 371.954 24.7479 371.706 24.5412C371.458 24.2932 370.941 24.1692 370.156 24.1692H366.312C365.527 24.1692 365.01 24.2932 364.762 24.5412C364.514 24.7479 364.39 25.2645 364.39 26.0912V53.4952C364.39 54.3219 364.514 54.8592 364.762 55.1072C365.01 55.3139 365.527 55.4172 366.312 55.4172H370.156C370.941 55.4172 371.458 55.3139 371.706 55.1072C371.954 54.8592 372.078 54.3219 372.078 53.4952ZM383.322 42.9552V59.0752H379.106V20.5112H390.328C393.593 20.5112 395.226 22.1439 395.226 25.4092V38.0572C395.226 40.9919 393.944 42.6039 391.382 42.8932L397.21 59.0752H392.622L386.98 42.9552H383.322ZM383.322 24.1692V39.2972H389.088C389.914 39.2972 390.431 39.1939 390.638 38.9872C390.886 38.7392 391.01 38.2019 391.01 37.3752V26.0912C391.01 25.2645 390.886 24.7479 390.638 24.5412C390.431 24.2932 389.914 24.1692 389.088 24.1692H383.322ZM411.486 20.5112V24.1692H405.286V59.0752H401.07V24.1692H394.87V20.5112H411.486ZM416.094 20.5112H422.418C425.683 20.5112 427.316 22.1439 427.316 25.4092V54.1772C427.316 57.4425 425.683 59.0752 422.418 59.0752H416.094C412.828 59.0752 411.196 57.4425 411.196 54.1772V25.4092C411.196 22.1439 412.828 20.5112 416.094 20.5112ZM423.1 53.4952V26.0912C423.1 25.2645 422.976 24.7479 422.728 24.5412C422.48 24.2932 421.963 24.1692 421.178 24.1692H417.334C416.548 24.1692 416.032 24.2932 415.784 24.5412C415.536 24.7479 415.412 25.2645 415.412 26.0912V53.4952C415.412 54.3219 415.536 54.8592 415.784 55.1072C416.032 55.3139 416.548 55.4172 417.334 55.4172H421.178C421.963 55.4172 422.48 55.3139 422.728 55.1072C422.976 54.8592 423.1 54.3219 423.1 53.4952Z" fill="#030211"/>
<path d="M625.785 33.2268V37.0842C625.785 37.9176 625.876 38.4351 626.059 38.637C626.306 38.9234 626.68 39.0667 627.182 39.0667H627.689V39.428H622.016V39.0667H622.514C623.074 39.0667 623.474 38.8844 623.715 38.5198C623.845 38.318 623.91 37.8394 623.91 37.0842V28.5295C623.91 27.6962 623.822 27.1786 623.646 26.9768C623.393 26.6903 623.015 26.5471 622.514 26.5471H622.016V26.1858H626.869C628.054 26.1858 628.988 26.3095 629.672 26.5569C630.355 26.7978 630.932 27.2079 631.4 27.7874C631.869 28.3668 632.104 29.0536 632.104 29.8479C632.104 30.9286 631.745 31.8075 631.029 32.4846C630.32 33.1617 629.314 33.5002 628.012 33.5002C627.693 33.5002 627.348 33.4775 626.977 33.4319C626.605 33.3863 626.208 33.318 625.785 33.2268ZM625.785 32.6702C626.13 32.7353 626.436 32.7841 626.703 32.8167C626.97 32.8492 627.198 32.8655 627.387 32.8655C628.064 32.8655 628.646 32.6051 629.135 32.0842C629.63 31.5569 629.877 30.8765 629.877 30.0432C629.877 29.4703 629.76 28.9397 629.525 28.4514C629.291 27.9566 628.959 27.5888 628.529 27.3479C628.1 27.1005 627.611 26.9768 627.064 26.9768C626.732 26.9768 626.306 27.0387 625.785 27.1624V32.6702ZM651.431 25.8831C653.15 25.8831 654.637 26.5374 655.894 27.8459C657.157 29.148 657.788 30.7756 657.788 32.7288C657.788 34.7405 657.154 36.4104 655.884 37.7385C654.614 39.0667 653.078 39.7307 651.275 39.7307C649.452 39.7307 647.918 39.0829 646.675 37.7874C645.438 36.4918 644.82 34.8153 644.82 32.7581C644.82 30.6552 645.536 28.9397 646.968 27.6116C648.211 26.4592 649.699 25.8831 651.431 25.8831ZM651.245 26.5959C650.06 26.5959 649.11 27.0354 648.394 27.9143C647.502 29.0081 647.056 30.6096 647.056 32.719C647.056 34.8805 647.518 36.5439 648.443 37.7092C649.152 38.5946 650.09 39.0374 651.255 39.0374C652.499 39.0374 653.524 38.5523 654.331 37.5823C655.145 36.6122 655.552 35.0823 655.552 32.9924C655.552 30.7268 655.106 29.0374 654.214 27.9241C653.498 27.0387 652.508 26.5959 651.245 26.5959ZM676.041 39.0667V39.428H670.368V39.0667H670.836C671.383 39.0667 671.78 38.9071 672.028 38.5881C672.184 38.3798 672.262 37.8785 672.262 37.0842V28.5295C672.262 27.859 672.22 27.4163 672.135 27.2014C672.07 27.0387 671.937 26.8987 671.735 26.7815C671.448 26.6252 671.149 26.5471 670.836 26.5471H670.368V26.1858H676.041V26.5471H675.563C675.023 26.5471 674.629 26.7066 674.381 27.0256C674.218 27.234 674.137 27.7353 674.137 28.5295V37.0842C674.137 37.7548 674.179 38.1975 674.264 38.4124C674.329 38.5751 674.466 38.7151 674.674 38.8323C674.954 38.9885 675.25 39.0667 675.563 39.0667H676.041ZM687.566 26.1858H691.16L699.255 36.1174V28.4807C699.255 27.6669 699.164 27.1591 698.982 26.9573C698.741 26.6838 698.36 26.5471 697.839 26.5471H697.38V26.1858H701.99V26.5471H701.521C700.961 26.5471 700.564 26.7164 700.33 27.0549C700.186 27.2633 700.115 27.7385 700.115 28.4807V39.6428H699.763L691.033 28.9788V37.1331C691.033 37.9469 691.121 38.4547 691.296 38.6565C691.544 38.9299 691.925 39.0667 692.439 39.0667H692.908V39.428H688.298V39.0667H688.757C689.324 39.0667 689.724 38.8974 689.959 38.5588C690.102 38.3505 690.173 37.8752 690.173 37.1331V27.9241C689.789 27.4749 689.496 27.1786 689.295 27.0354C689.099 26.8922 688.81 26.7587 688.425 26.635C688.237 26.5764 687.95 26.5471 687.566 26.5471V26.1858ZM725.155 26.1858L725.302 29.2913H724.93C724.859 28.7444 724.761 28.3538 724.637 28.1194C724.436 27.7418 724.165 27.4651 723.827 27.2893C723.495 27.107 723.055 27.0159 722.509 27.0159H720.643V37.1331C720.643 37.9469 720.731 38.4547 720.907 38.6565C721.154 38.9299 721.535 39.0667 722.05 39.0667H722.509V39.428H716.893V39.0667H717.362C717.922 39.0667 718.319 38.8974 718.554 38.5588C718.697 38.3505 718.768 37.8752 718.768 37.1331V27.0159H717.177C716.558 27.0159 716.119 27.0614 715.858 27.1526C715.52 27.2763 715.23 27.5139 714.989 27.8655C714.748 28.217 714.605 28.6923 714.559 29.2913H714.188L714.345 26.1858H725.155ZM746.279 25.8831V30.4631H745.918C745.801 29.5842 745.589 28.8844 745.283 28.3635C744.984 27.8427 744.554 27.4293 743.994 27.1233C743.434 26.8173 742.855 26.6643 742.256 26.6643C741.579 26.6643 741.019 26.8726 740.576 27.2893C740.133 27.6995 739.912 28.1682 739.912 28.6956C739.912 29.0992 740.052 29.467 740.332 29.7991C740.736 30.2874 741.696 30.9384 743.213 31.7522C744.45 32.4163 745.293 32.9273 745.742 33.2854C746.198 33.637 746.546 34.0536 746.787 34.5354C747.035 35.0172 747.158 35.5217 747.158 36.0491C747.158 37.0517 746.768 37.9176 745.986 38.6467C745.212 39.3694 744.212 39.7307 742.988 39.7307C742.604 39.7307 742.243 39.7014 741.904 39.6428C741.702 39.6103 741.283 39.4931 740.645 39.2913C740.013 39.0829 739.613 38.9788 739.443 38.9788C739.281 38.9788 739.15 39.0276 739.053 39.1252C738.962 39.2229 738.893 39.4247 738.848 39.7307H738.486V35.1897H738.848C739.017 36.1402 739.245 36.8531 739.531 37.3284C739.818 37.7971 740.254 38.1877 740.84 38.5002C741.432 38.8127 742.08 38.969 742.783 38.969C743.597 38.969 744.238 38.7542 744.707 38.3245C745.182 37.8948 745.42 37.387 745.42 36.801C745.42 36.4755 745.329 36.1467 745.146 35.8147C744.971 35.4827 744.694 35.1734 744.316 34.887C744.062 34.6917 743.369 34.2782 742.236 33.6467C741.104 33.0087 740.296 32.5009 739.814 32.1233C739.339 31.7457 738.978 31.329 738.73 30.8733C738.483 30.4176 738.359 29.9163 738.359 29.3694C738.359 28.4189 738.724 27.6018 739.453 26.9182C740.182 26.2281 741.11 25.8831 742.236 25.8831C742.939 25.8831 743.685 26.0556 744.473 26.4006C744.837 26.5634 745.094 26.6448 745.244 26.6448C745.413 26.6448 745.55 26.5959 745.654 26.4983C745.765 26.3941 745.853 26.189 745.918 25.8831H746.279ZM628.998 48.8831C630.717 48.8831 632.204 49.5374 633.461 50.8459C634.724 52.148 635.355 53.7756 635.355 55.7288C635.355 57.7405 634.721 59.4104 633.451 60.7385C632.182 62.0667 630.645 62.7307 628.842 62.7307C627.019 62.7307 625.486 62.0829 624.242 60.7874C623.005 59.4918 622.387 57.8153 622.387 55.7581C622.387 53.6552 623.103 51.9397 624.535 50.6116C625.779 49.4592 627.266 48.8831 628.998 48.8831ZM628.812 49.5959C627.628 49.5959 626.677 50.0354 625.961 50.9143C625.069 52.0081 624.623 53.6096 624.623 55.719C624.623 57.8805 625.085 59.5439 626.01 60.7092C626.719 61.5946 627.657 62.0374 628.822 62.0374C630.066 62.0374 631.091 61.5523 631.898 60.5823C632.712 59.6122 633.119 58.0823 633.119 55.9924C633.119 53.7268 632.673 52.0374 631.781 50.9241C631.065 50.0387 630.076 49.5959 628.812 49.5959ZM647.173 49.1858H650.767L658.862 59.1174V51.4807C658.862 50.6669 658.771 50.1591 658.589 49.9573C658.348 49.6838 657.967 49.5471 657.446 49.5471H656.987V49.1858H661.597V49.5471H661.128C660.568 49.5471 660.171 49.7164 659.937 50.0549C659.793 50.2633 659.722 50.7385 659.722 51.4807V62.6428H659.37L650.64 51.9788V60.1331C650.64 60.9469 650.728 61.4547 650.904 61.6565C651.151 61.9299 651.532 62.0667 652.046 62.0667H652.515V62.428H647.905V62.0667H648.364C648.931 62.0667 649.331 61.8974 649.566 61.5588C649.709 61.3505 649.78 60.8752 649.78 60.1331V50.9241C649.396 50.4749 649.103 50.1786 648.902 50.0354C648.706 49.8922 648.417 49.7587 648.032 49.635C647.844 49.5764 647.557 49.5471 647.173 49.5471V49.1858ZM677.37 49.9084V55.1428H680.28C681.035 55.1428 681.539 55.0289 681.793 54.801C682.132 54.5015 682.321 53.9742 682.36 53.219H682.721V57.8284H682.36C682.269 57.1838 682.177 56.7704 682.086 56.5881C681.969 56.3603 681.777 56.1812 681.51 56.051C681.243 55.9208 680.833 55.8557 680.28 55.8557H677.37V60.2209C677.37 60.8069 677.396 61.165 677.448 61.2952C677.5 61.4189 677.591 61.5198 677.721 61.5979C677.851 61.6695 678.099 61.7053 678.463 61.7053H680.709C681.458 61.7053 682.002 61.6532 682.34 61.5491C682.679 61.4449 683.004 61.2398 683.317 60.9338C683.72 60.5302 684.134 59.9215 684.557 59.1077H684.948L683.805 62.428H673.6V62.0667H674.069C674.381 62.0667 674.677 61.9918 674.957 61.842C675.166 61.7379 675.306 61.5816 675.377 61.3733C675.455 61.165 675.495 60.7385 675.495 60.094V51.4905C675.495 50.6506 675.41 50.1331 675.241 49.9377C675.006 49.6773 674.616 49.5471 674.069 49.5471H673.6V49.1858H683.805L683.952 52.0862H683.571C683.434 51.3896 683.281 50.9111 683.112 50.6506C682.949 50.3902 682.705 50.1917 682.379 50.0549C682.119 49.9573 681.66 49.9084 681.002 49.9084H677.37Z" fill="#030211"/>
<path d="M569.124 34.1926L587.107 21.5028L605.09 34.1926L607.088 56.1114L587.107 65.3403L567.126 56.1114L569.124 34.1926Z" stroke="#030211"/>
<path d="M572.488 36.1355L587.107 25.8192L601.727 36.1355L603.351 53.9546L587.107 61.4574L570.863 53.9546L572.488 36.1355Z" stroke="#030211"/>
<path d="M575.802 38.0472L587.108 30.0692L598.413 38.0472L599.67 51.8272L587.108 57.6294L574.546 51.8272L575.802 38.0472Z" stroke="#030211"/>
<path d="M579.477 40.1703L587.108 34.786L594.738 40.1703L595.585 49.4703L587.108 53.3861L578.63 49.4703L579.477 40.1703Z" stroke="#030211"/>
<rect x="690.288" y="49.3225" width="57.5341" height="2.17102" fill="#030211"/>
<rect x="690.288" y="54.3889" width="57.5341" height="2.17102" fill="#030211"/>
<rect x="690.288" y="59.5764" width="57.5341" height="2.17102" fill="#030211"/>
<path d="M881.523 33.0869C881.523 31.4333 881.986 30.0465 882.91 28.9268C883.835 27.807 885.046 27.2471 886.543 27.2471C888.053 27.2471 889.264 27.8135 890.176 28.9463C891.1 30.0661 891.562 31.4463 891.562 33.0869C891.562 34.7145 891.1 36.0947 890.176 37.2275C889.264 38.3473 888.053 38.9072 886.543 38.9072C885.046 38.9072 883.835 38.3473 882.91 37.2275C881.986 36.1077 881.523 34.7275 881.523 33.0869ZM882.578 33.0674C882.578 34.3434 882.93 35.4762 883.633 36.4658C884.349 37.4424 885.319 37.9307 886.543 37.9307C887.767 37.9307 888.73 37.4489 889.434 36.4854C890.15 35.5088 890.508 34.3695 890.508 33.0674C890.508 31.7523 890.15 30.6195 889.434 29.6689C888.717 28.7054 887.754 28.2236 886.543 28.2236C885.293 28.2236 884.316 28.7184 883.613 29.708C882.923 30.6846 882.578 31.8044 882.578 33.0674ZM904.171 27.5791H908.546V28.4971H906.554V34.0049C906.554 35.1898 906.678 36.0361 906.925 36.5439C907.368 37.4684 908.24 37.9307 909.542 37.9307C910.896 37.9307 911.782 37.5205 912.198 36.7002C912.459 36.2314 912.589 35.3981 912.589 34.2002V28.4971H910.597V27.5791H914.972V28.4971H913.566V34.2002C913.566 35.7367 913.331 36.8304 912.862 37.4814C912.602 37.846 912.185 38.1781 911.612 38.4775C911.04 38.764 910.356 38.9072 909.562 38.9072C908.064 38.9072 906.958 38.3994 906.241 37.3838C905.799 36.7458 905.577 35.6195 905.577 34.0049V28.4971H904.171V27.5791ZM927.893 27.5791H937.268L937.6 32.1885L936.662 32.3057L936.389 28.4971H933.069V37.6572H935.432V38.5752H929.729V37.6572H932.092V28.4971H928.772L928.498 32.3057L927.561 32.1885L927.893 27.5791ZM950.58 33.0869C950.58 31.4333 951.042 30.0465 951.966 28.9268C952.891 27.807 954.102 27.2471 955.599 27.2471C957.11 27.2471 958.321 27.8135 959.232 28.9463C960.157 30.0661 960.619 31.4463 960.619 33.0869C960.619 34.7145 960.157 36.0947 959.232 37.2275C958.321 38.3473 957.11 38.9072 955.599 38.9072C954.102 38.9072 952.891 38.3473 951.966 37.2275C951.042 36.1077 950.58 34.7275 950.58 33.0869ZM951.634 33.0674C951.634 34.3434 951.986 35.4762 952.689 36.4658C953.405 37.4424 954.375 37.9307 955.599 37.9307C956.823 37.9307 957.787 37.4489 958.49 36.4854C959.206 35.5088 959.564 34.3695 959.564 33.0674C959.564 31.7523 959.206 30.6195 958.49 29.6689C957.774 28.7054 956.81 28.2236 955.599 28.2236C954.349 28.2236 953.373 28.7184 952.67 29.708C951.979 30.6846 951.634 31.8044 951.634 33.0674ZM974.165 27.5791H983.325L983.423 31.0947H982.544L982.309 28.4971H976.723V32.3057H979.887V30.8799H980.786V34.6299H979.887V33.2236H976.723V37.6572H979.262V38.5752H974.165V37.6572H975.747V28.4971H974.165V27.5791ZM996.949 27.5791H1006.32L1006.66 32.1885L1005.72 32.3057L1005.45 28.4971H1002.12V37.6572H1004.49V38.5752H998.785V37.6572H1001.15V28.4971H997.828L997.555 32.3057L996.617 32.1885L996.949 27.5791ZM1019.56 27.5791H1023.46V28.4971H1022V32.4424H1027.31V28.4971H1025.85V27.5791H1029.77V28.4971H1028.29V37.6572H1029.77V38.5752H1025.85V37.6572H1027.31V33.3604H1022V37.6572H1023.46V38.5752H1019.56V37.6572H1021.02V28.4971H1019.56V27.5791ZM1042.93 27.5791H1052.21L1052.28 31.1729H1051.39L1051.19 28.4971H1045.56V32.3057H1048.73V30.8799H1049.63V34.6299H1048.73V33.2236H1045.56V37.6572H1051.39L1051.48 34.9814H1052.38V38.5752H1042.93V37.6572H1044.59V28.4971H1042.93V27.5791ZM889.707 53.3643H890.586C890.469 53.8721 890.41 54.3408 890.41 54.7705C890.41 55.3695 890.469 56.1442 890.586 57.0947L889.707 57.251C889.603 56.4827 889.401 55.8708 889.102 55.415C888.581 54.6208 887.754 54.2236 886.621 54.2236C885.684 54.2236 884.954 54.4645 884.434 54.9463C883.926 55.4281 883.672 55.9554 883.672 56.5283C883.672 56.945 883.77 57.2965 883.965 57.583C884.173 57.8695 884.46 58.0843 884.824 58.2275C885.202 58.3577 885.508 58.4489 885.742 58.501C885.977 58.54 886.276 58.5791 886.641 58.6182C887.461 58.7093 888.06 58.8005 888.438 58.8916C888.828 58.9697 889.18 59.113 889.492 59.3213C890.299 59.8682 890.703 60.6234 890.703 61.5869C890.703 62.6416 890.299 63.4619 889.492 64.0479C888.685 64.6208 887.754 64.9072 886.699 64.9072C885.632 64.9072 884.74 64.6077 884.023 64.0088C883.971 63.9567 883.919 63.9307 883.867 63.9307C883.802 63.9307 883.737 63.9827 883.672 64.0869C883.62 64.2432 883.561 64.5361 883.496 64.9658H882.617C882.734 64.4059 882.793 63.8265 882.793 63.2275C882.793 62.9411 882.734 62.251 882.617 61.1572H883.496C883.652 61.9385 883.874 62.5179 884.16 62.8955C884.681 63.5856 885.482 63.9307 886.562 63.9307C887.643 63.9307 888.424 63.7028 888.906 63.2471C889.401 62.7913 889.648 62.264 889.648 61.665C889.648 61.3395 889.583 61.0596 889.453 60.8252C889.323 60.5778 889.167 60.389 888.984 60.2588C888.815 60.1156 888.587 59.9984 888.301 59.9072C888.027 59.8161 887.799 59.7575 887.617 59.7314C887.435 59.7054 887.207 59.6794 886.934 59.6533C886.491 59.6143 886.133 59.5752 885.859 59.5361C885.599 59.4971 885.234 59.4059 884.766 59.2627C884.31 59.1195 883.945 58.9502 883.672 58.7549C883.398 58.5596 883.151 58.2796 882.93 57.915C882.721 57.5374 882.617 57.1012 882.617 56.6064C882.617 55.695 882.988 54.9072 883.73 54.2432C884.486 53.5791 885.41 53.2471 886.504 53.2471C887.441 53.2471 888.249 53.514 888.926 54.0479C889.173 54.2301 889.323 54.3213 889.375 54.3213C889.453 54.3213 889.505 54.2887 889.531 54.2236C889.557 54.1585 889.603 53.9567 889.668 53.6182C889.694 53.514 889.707 53.4294 889.707 53.3643ZM905.909 53.5791H910.109L914.23 63.6572H915.226V64.5752H911.222V63.6572H913.214L912.101 60.9424H907.003L905.909 63.6572H907.902V64.5752H903.898V63.6572H904.933L908.702 54.4971H905.909V53.5791ZM911.769 60.083L909.562 54.7314L907.355 60.083H911.769ZM927.268 53.5791H930.608L935.745 63.7549H936.096V54.4971H933.909V53.5791H938.264V54.4971H936.995V64.8291H935.256L930.022 54.4971H929.69V63.6572H931.897V64.5752H927.268V63.6572H928.791V54.4971H927.268V53.5791ZM950.404 53.5791H955.287C956.263 53.5791 957.051 53.6702 957.65 53.8525C958.249 54.0348 958.796 54.432 959.291 55.0439C960.098 56.0465 960.502 57.3226 960.502 58.8721C960.502 60.8903 959.961 62.4137 958.88 63.4424C958.086 64.1976 956.862 64.5752 955.209 64.5752H950.404V63.6572H951.947V54.4971H950.404V53.5791ZM955.306 54.4971H952.923V63.6572H955.209C956.537 63.6572 957.513 63.3512 958.138 62.7393C959.011 61.8669 959.447 60.5973 959.447 58.9307C959.447 57.6676 959.141 56.613 958.529 55.7666C958.151 55.2327 957.728 54.8877 957.259 54.7314C956.791 54.5752 956.14 54.4971 955.306 54.4971ZM997.379 53.5791H1002.71C1003.97 53.5791 1004.91 53.8525 1005.52 54.3994C1006.14 54.9463 1006.44 55.6169 1006.44 56.4111C1006.44 57.4919 1005.93 58.2992 1004.9 58.833C1006.38 59.2757 1007.12 60.1872 1007.12 61.5674C1007.12 62.1012 1006.99 62.5895 1006.73 63.0322C1006.49 63.4749 1006.15 63.807 1005.74 64.0283C1005.32 64.2497 1004.9 64.3994 1004.49 64.4775C1004.07 64.5426 1003.42 64.5752 1002.54 64.5752H997.379V63.6572H999V54.4971H997.379V53.5791ZM1002.67 54.4971H999.977V58.4033H1002.57C1003.17 58.4033 1003.68 58.3317 1004.1 58.1885C1004.51 58.0322 1004.81 57.8369 1004.98 57.6025C1005.15 57.3682 1005.26 57.1533 1005.33 56.958C1005.39 56.7627 1005.43 56.5674 1005.43 56.3721C1005.43 55.9424 1005.31 55.5843 1005.07 55.2979C1004.85 55.0114 1004.55 54.8226 1004.18 54.7314C1003.8 54.6273 1003.51 54.5622 1003.3 54.5361C1003.1 54.5101 1002.89 54.4971 1002.67 54.4971ZM1002.42 59.3213H999.977V63.6572H1002.5C1002.82 63.6572 1003.08 63.6572 1003.26 63.6572C1003.44 63.6442 1003.69 63.6182 1004.02 63.5791C1004.36 63.54 1004.62 63.4814 1004.82 63.4033C1005.03 63.3122 1005.24 63.195 1005.46 63.0518C1005.69 62.8955 1005.85 62.6937 1005.95 62.4463C1006.06 62.1989 1006.11 61.9059 1006.11 61.5674C1006.11 60.7992 1005.78 60.2327 1005.11 59.8682C1004.45 59.5036 1003.55 59.3213 1002.42 59.3213ZM1020.36 59.0869C1020.36 57.4333 1020.82 56.0465 1021.75 54.9268C1022.67 53.807 1023.88 53.2471 1025.38 53.2471C1026.89 53.2471 1028.1 53.8135 1029.01 54.9463C1029.94 56.0661 1030.4 57.4463 1030.4 59.0869C1030.4 60.7145 1029.94 62.0947 1029.01 63.2275C1028.1 64.3473 1026.89 64.9072 1025.38 64.9072C1023.88 64.9072 1022.67 64.3473 1021.75 63.2275C1020.82 62.1077 1020.36 60.7275 1020.36 59.0869ZM1021.41 59.0674C1021.41 60.3434 1021.76 61.4762 1022.47 62.4658C1023.18 63.4424 1024.15 63.9307 1025.38 63.9307C1026.6 63.9307 1027.57 63.4489 1028.27 62.4854C1028.98 61.5088 1029.34 60.3695 1029.34 59.0674C1029.34 57.7523 1028.98 56.6195 1028.27 55.6689C1027.55 54.7054 1026.59 54.2236 1025.38 54.2236C1024.13 54.2236 1023.15 54.7184 1022.45 55.708C1021.76 56.6846 1021.41 57.8044 1021.41 59.0674ZM1043.55 53.5791H1047.34V54.4971H1045.74L1048.42 58.0713L1051.15 54.4971H1049.67V53.5791H1053.24V54.4971H1052.24L1048.96 58.7939L1052.6 63.6572H1053.61V64.5752H1049.67V63.6572H1051.42L1048.42 59.5166L1045.27 63.6572H1047.34V64.5752H1043.18V63.6572H1044.18L1047.87 58.7939L1044.59 54.4971H1043.55V53.5791Z" fill="#030211"/>
<rect x="973.909" y="53.7881" width="11.0043" height="9.03674" stroke="#030211"/>
<rect x="975.431" y="55.3311" width="7.97269" height="5.96338" fill="#030211"/>
<path d="M1191.77 58.0752H1201.81C1203.6 58.0752 1205.11 57.8485 1206.33 57.3952C1207.56 56.9152 1208.55 56.3019 1209.29 55.5552C1210.04 54.8085 1210.57 53.9685 1210.89 53.0352C1211.24 52.0752 1211.41 51.1152 1211.41 50.1552C1211.41 48.6352 1211.08 47.4219 1210.41 46.5152C1209.77 45.6085 1209 44.9152 1208.09 44.4352C1207.19 43.9552 1206.25 43.6352 1205.29 43.4752C1204.33 43.3152 1203.56 43.2219 1202.97 43.1952V43.0352C1203.91 43.0352 1204.79 42.8619 1205.61 42.5152C1206.44 42.1419 1207.16 41.6752 1207.77 41.1152C1208.41 40.5285 1208.92 39.8619 1209.29 39.1152C1209.67 38.3419 1209.85 37.5285 1209.85 36.6752C1209.85 35.9285 1209.69 35.1685 1209.37 34.3952C1209.05 33.6219 1208.56 32.9152 1207.89 32.2752C1207.25 31.6352 1206.41 31.1152 1205.37 30.7152C1204.36 30.2885 1203.16 30.0752 1201.77 30.0752H1191.77V58.0752ZM1195.41 56.3152V44.0752H1199.81C1201.12 44.0752 1202.25 44.2485 1203.21 44.5952C1204.17 44.9419 1204.96 45.4085 1205.57 45.9952C1206.21 46.5819 1206.68 47.2619 1206.97 48.0352C1207.29 48.8085 1207.45 49.6219 1207.45 50.4752C1207.45 51.4085 1207.28 52.2352 1206.93 52.9552C1206.61 53.6752 1206.17 54.2885 1205.61 54.7952C1205.05 55.3019 1204.39 55.6885 1203.61 55.9552C1202.87 56.1952 1202.07 56.3152 1201.21 56.3152H1195.41ZM1195.41 42.3152V31.8352H1200.29C1201.33 31.8352 1202.21 31.9819 1202.93 32.2752C1203.68 32.5685 1204.28 32.9552 1204.73 33.4352C1205.21 33.9152 1205.56 34.4619 1205.77 35.0752C1205.99 35.6885 1206.09 36.3019 1206.09 36.9152C1206.09 37.6885 1205.93 38.4085 1205.61 39.0752C1205.32 39.7419 1204.89 40.3152 1204.33 40.7952C1203.8 41.2752 1203.17 41.6485 1202.45 41.9152C1201.76 42.1819 1201.01 42.3152 1200.21 42.3152H1195.41ZM1240.82 30.0752V58.0752H1244.46V45.7152H1246.22C1246.96 45.7152 1247.58 45.7819 1248.06 45.9152C1248.56 46.0485 1249.02 46.2752 1249.42 46.5952C1249.82 46.9152 1250.19 47.3285 1250.54 47.8352C1250.88 48.3419 1251.3 48.9685 1251.78 49.7152L1254.94 54.3952C1255.34 55.0085 1255.72 55.5685 1256.1 56.0752C1256.5 56.5819 1256.92 57.0219 1257.38 57.3952C1257.83 57.7419 1258.34 58.0219 1258.9 58.2352C1259.48 58.4485 1260.18 58.5552 1260.98 58.5552C1261.56 58.5552 1262.04 58.5285 1262.42 58.4752C1262.79 58.4219 1263.16 58.2885 1263.54 58.0752V56.5952C1263.4 56.6219 1263.27 56.6485 1263.14 56.6752C1263 56.6752 1262.87 56.6752 1262.74 56.6752C1262.18 56.6752 1261.68 56.5952 1261.26 56.4352C1260.83 56.2752 1260.43 56.0485 1260.06 55.7552C1259.68 55.4352 1259.32 55.0619 1258.98 54.6352C1258.63 54.1819 1258.27 53.6752 1257.9 53.1152C1256.78 51.4885 1255.91 50.1952 1255.3 49.2352C1254.68 48.2485 1254.19 47.4885 1253.82 46.9552C1253.47 46.4219 1253.18 46.0352 1252.94 45.7952C1252.72 45.5552 1252.46 45.3552 1252.14 45.1952L1251.74 44.9952V44.8352C1253.02 44.7552 1254.11 44.4752 1255.02 43.9952C1255.95 43.5152 1256.71 42.9152 1257.3 42.1952C1257.88 41.4752 1258.31 40.7019 1258.58 39.8752C1258.84 39.0219 1258.98 38.1952 1258.98 37.3952C1258.98 36.6752 1258.83 35.8885 1258.54 35.0352C1258.27 34.1819 1257.79 33.3952 1257.1 32.6752C1256.43 31.9285 1255.51 31.3152 1254.34 30.8352C1253.16 30.3285 1251.68 30.0752 1249.9 30.0752H1240.82ZM1244.46 31.8352H1248.5C1249.51 31.8352 1250.42 31.9819 1251.22 32.2752C1252.04 32.5685 1252.75 32.9819 1253.34 33.5152C1253.92 34.0219 1254.36 34.6352 1254.66 35.3552C1254.98 36.0752 1255.14 36.8619 1255.14 37.7152C1255.14 38.4352 1254.99 39.1685 1254.7 39.9152C1254.43 40.6352 1254.02 41.3019 1253.46 41.9152C1252.9 42.5019 1252.2 42.9819 1251.38 43.3552C1250.58 43.7285 1249.64 43.9152 1248.58 43.9152H1244.46V31.8352ZM1307.69 49.8352L1311.53 58.0752H1315.41L1302.37 30.0752H1300.37L1288.53 58.0752H1290.37L1293.89 49.8352H1307.69ZM1306.85 48.0352H1294.65L1300.41 34.5552H1300.57L1306.85 48.0352ZM1366.59 30.0752V51.4752H1366.43L1344.23 29.5952H1344.03V58.0752H1345.87V36.6752H1346.03L1368.23 58.5552H1368.43V30.0752H1366.59ZM1401.01 58.0752V30.0752H1410.21C1412.42 30.0752 1414.45 30.4352 1416.29 31.1552C1418.13 31.8485 1419.7 32.8219 1421.01 34.0752C1422.34 35.3019 1423.37 36.7685 1424.09 38.4752C1424.84 40.1819 1425.21 42.0219 1425.21 43.9952C1425.21 46.0485 1424.82 47.9419 1424.05 49.6752C1423.3 51.3819 1422.26 52.8619 1420.93 54.1152C1419.62 55.3685 1418.09 56.3419 1416.33 57.0352C1414.57 57.7285 1412.69 58.0752 1410.69 58.0752H1401.01ZM1404.65 56.3152H1409.05C1411.24 56.3152 1413.09 55.9552 1414.61 55.2352C1416.16 54.4885 1417.42 53.5285 1418.41 52.3552C1419.4 51.1819 1420.12 49.8752 1420.57 48.4352C1421.02 46.9685 1421.25 45.5152 1421.25 44.0752C1421.25 42.4752 1420.98 40.9419 1420.45 39.4752C1419.92 37.9819 1419.13 36.6752 1418.09 35.5552C1417.08 34.4085 1415.81 33.5019 1414.29 32.8352C1412.77 32.1685 1411.02 31.8352 1409.05 31.8352H1404.65V56.3152Z" fill="#030211"/>
<ellipse cx="1681.71" cy="44.5753" rx="123.029" ry="26.3126" fill="#030211"/>
<path d="M1617.32 37.8322V39.2382H1611.56V43.7032H1616.24V45.1092H1611.56V51.0752H1609.84V37.8322H1617.32ZM1636.15 51.2082C1634.92 51.2082 1633.8 50.9232 1632.79 50.3532C1631.77 49.7705 1630.97 48.9662 1630.37 47.9402C1629.79 46.9015 1629.5 45.7362 1629.5 44.4442C1629.5 43.1522 1629.79 41.9932 1630.37 40.9672C1630.97 39.9285 1631.77 39.1242 1632.79 38.5542C1633.8 37.9715 1634.92 37.6802 1636.15 37.6802C1637.39 37.6802 1638.52 37.9715 1639.53 38.5542C1640.54 39.1242 1641.34 39.9222 1641.92 40.9482C1642.51 41.9742 1642.8 43.1395 1642.8 44.4442C1642.8 45.7489 1642.51 46.9142 1641.92 47.9402C1641.34 48.9662 1640.54 49.7705 1639.53 50.3532C1638.52 50.9232 1637.39 51.2082 1636.15 51.2082ZM1636.15 49.7072C1637.07 49.7072 1637.9 49.4919 1638.64 49.0612C1639.38 48.6305 1639.97 48.0162 1640.39 47.2182C1640.82 46.4202 1641.03 45.4955 1641.03 44.4442C1641.03 43.3802 1640.82 42.4555 1640.39 41.6702C1639.97 40.8722 1639.39 40.2579 1638.66 39.8272C1637.92 39.3965 1637.09 39.1812 1636.15 39.1812C1635.21 39.1812 1634.38 39.3965 1633.64 39.8272C1632.91 40.2579 1632.32 40.8722 1631.89 41.6702C1631.47 42.4555 1631.27 43.3802 1631.27 44.4442C1631.27 45.4955 1631.47 46.4202 1631.89 47.2182C1632.32 48.0162 1632.91 48.6305 1633.64 49.0612C1634.39 49.4919 1635.22 49.7072 1636.15 49.7072ZM1662.79 51.0752L1659.63 45.6602H1657.54V51.0752H1655.82V37.8322H1660.09C1661.09 37.8322 1661.93 38.0032 1662.62 38.3452C1663.31 38.6872 1663.83 39.1495 1664.18 39.7322C1664.52 40.3149 1664.69 40.9799 1664.69 41.7272C1664.69 42.6392 1664.42 43.4435 1663.89 44.1402C1663.37 44.8369 1662.59 45.2992 1661.53 45.5272L1664.86 51.0752H1662.79ZM1657.54 44.2732H1660.09C1661.03 44.2732 1661.73 44.0452 1662.2 43.5892C1662.67 43.1205 1662.9 42.4999 1662.9 41.7272C1662.9 40.9419 1662.67 40.3339 1662.2 39.9032C1661.74 39.4725 1661.04 39.2572 1660.09 39.2572H1657.54V44.2732ZM1686.26 37.8322V39.2382H1682.65V51.0752H1680.92V39.2382H1677.29V37.8322H1686.26ZM1700.82 37.8322V46.2112C1700.82 47.3892 1701.1 48.2632 1701.67 48.8332C1702.25 49.4032 1703.06 49.6882 1704.08 49.6882C1705.1 49.6882 1705.89 49.4032 1706.46 48.8332C1707.04 48.2632 1707.33 47.3892 1707.33 46.2112V37.8322H1709.06V46.1922C1709.06 47.2942 1708.84 48.2252 1708.4 48.9852C1707.95 49.7325 1707.35 50.2899 1706.59 50.6572C1705.84 51.0245 1705 51.2082 1704.06 51.2082C1703.13 51.2082 1702.28 51.0245 1701.52 50.6572C1700.77 50.2899 1700.18 49.7325 1699.73 48.9852C1699.3 48.2252 1699.09 47.2942 1699.09 46.1922V37.8322H1700.82ZM1733.09 51.0752H1731.36L1724.41 40.5302V51.0752H1722.68V37.8132H1724.41L1731.36 48.3392V37.8132H1733.09V51.0752ZM1748.5 39.2382V43.6652H1753.33V45.0902H1748.5V49.6502H1753.9V51.0752H1746.78V37.8132H1753.9V39.2382H1748.5Z" fill="white"/>
</g>
</svg>
