<svg width="228" height="264" viewBox="0 0 228 264" fill="none" xmlns="http://www.w3.org/2000/svg">
<path d="M73.2285 130.26L68.7785 126.76C69.6452 126.343 70.6785 125.752 71.8785 124.985C73.0785 124.218 74.3118 123.31 75.5785 122.26C76.8452 121.193 78.0285 119.993 79.1285 118.66C80.2285 117.327 81.1202 115.877 81.8035 114.31C82.4868 112.743 82.8285 111.077 82.8285 109.31L84.6285 111.51C83.7619 112.927 82.5869 114.085 81.1035 114.985C79.6368 115.868 77.7285 116.31 75.3785 116.31C73.4285 116.31 71.6785 115.86 70.1285 114.96C68.5952 114.06 67.3785 112.818 66.4785 111.235C65.5785 109.652 65.1285 107.827 65.1285 105.76C65.1285 103.543 65.5952 101.593 66.5285 99.91C67.4618 98.2267 68.7868 96.9183 70.5035 95.985C72.2368 95.035 74.2785 94.56 76.6285 94.56C79.0618 94.56 81.1868 95.1017 83.0035 96.185C84.8202 97.2683 86.2285 98.7933 87.2285 100.76C88.2285 102.71 88.7285 104.993 88.7285 107.61C88.7285 110.327 88.2452 112.877 87.2785 115.26C86.3285 117.627 85.0785 119.785 83.5285 121.735C81.9952 123.668 80.3202 125.36 78.5035 126.81C76.7035 128.243 74.9452 129.393 73.2285 130.26ZM76.5285 110.81C78.1285 110.81 79.4452 110.31 80.4785 109.31C81.5118 108.293 82.0285 107.027 82.0285 105.51C82.0285 103.977 81.5118 102.685 80.4785 101.635C79.4452 100.585 78.1285 100.06 76.5285 100.06C74.9618 100.06 73.6535 100.585 72.6035 101.635C71.5535 102.685 71.0285 103.977 71.0285 105.51C71.0285 107.027 71.5535 108.293 72.6035 109.31C73.6535 110.31 74.9618 110.81 76.5285 110.81ZM102.855 130.91C100.938 130.91 99.1797 130.66 97.5797 130.16C95.9797 129.66 94.538 128.977 93.2547 128.11L94.7547 122.31C95.988 123.077 97.238 123.702 98.5047 124.185C99.788 124.668 101.205 124.91 102.755 124.91C104.655 124.91 106.163 124.41 107.28 123.41C108.396 122.41 108.955 121.06 108.955 119.36C108.955 117.527 108.321 116.093 107.055 115.06C105.788 114.027 103.955 113.51 101.555 113.51C100.455 113.51 99.3547 113.577 98.2547 113.71C97.1714 113.843 96.088 114.01 95.0047 114.21L97.2547 95.26H113.755L113.355 101.46H102.055L100.855 111.16L98.4547 108.96C99.2547 108.727 100.088 108.552 100.955 108.435C101.838 108.318 102.788 108.26 103.805 108.26C106.038 108.26 108.005 108.702 109.705 109.585C111.421 110.452 112.755 111.718 113.705 113.385C114.671 115.035 115.155 117.027 115.155 119.36C115.155 121.76 114.621 123.827 113.555 125.56C112.505 127.277 111.055 128.602 109.205 129.535C107.355 130.452 105.238 130.91 102.855 130.91ZM128.51 114.56C126.693 114.56 125.143 114.127 123.86 113.26C122.593 112.377 121.627 111.177 120.96 109.66C120.293 108.127 119.96 106.377 119.96 104.41C119.96 101.427 120.743 99.0433 122.31 97.26C123.877 95.46 125.943 94.56 128.51 94.56C131.093 94.56 133.16 95.46 134.71 97.26C136.277 99.0433 137.06 101.427 137.06 104.41C137.06 106.377 136.718 108.127 136.035 109.66C135.368 111.177 134.393 112.377 133.11 113.26C131.843 114.127 130.31 114.56 128.51 114.56ZM128.51 110.21C129.61 110.21 130.46 109.71 131.06 108.71C131.66 107.693 131.96 106.26 131.96 104.41C131.96 102.56 131.643 101.185 131.01 100.285C130.393 99.3683 129.56 98.91 128.51 98.91C127.46 98.91 126.618 99.3683 125.985 100.285C125.368 101.185 125.06 102.56 125.06 104.41C125.06 106.26 125.343 107.693 125.91 108.71C126.477 109.71 127.343 110.21 128.51 110.21ZM127.86 130.26L148.51 95.26H153.46L132.86 130.26H127.86ZM152.76 130.96C150.943 130.96 149.393 130.527 148.11 129.66C146.843 128.777 145.877 127.577 145.21 126.06C144.543 124.527 144.21 122.777 144.21 120.81C144.21 117.827 144.993 115.443 146.56 113.66C148.127 111.86 150.193 110.96 152.76 110.96C155.343 110.96 157.41 111.86 158.96 113.66C160.527 115.443 161.31 117.827 161.31 120.81C161.31 122.777 160.968 124.527 160.285 126.06C159.618 127.577 158.643 128.777 157.36 129.66C156.093 130.527 154.56 130.96 152.76 130.96ZM152.76 126.61C153.86 126.61 154.71 126.11 155.31 125.11C155.91 124.093 156.21 122.66 156.21 120.81C156.21 118.96 155.893 117.585 155.26 116.685C154.643 115.768 153.81 115.31 152.76 115.31C151.71 115.31 150.868 115.768 150.235 116.685C149.618 117.585 149.31 118.96 149.31 120.81C149.31 122.66 149.593 124.093 150.16 125.11C150.727 126.11 151.593 126.61 152.76 126.61Z" fill="#181818"/>
<path d="M89.8507 24.0526C139.428 10.7685 190.387 40.1898 203.671 89.767C216.956 139.344 187.534 190.304 137.957 203.588C88.3798 216.872 37.4205 187.451 24.1363 137.873C10.8521 88.2961 40.2735 37.3368 89.8507 24.0526ZM136.544 198.316C183.21 185.812 210.904 137.845 198.4 91.1796C185.896 44.5139 137.929 16.8204 91.2633 29.3244C44.5976 41.8285 16.9041 89.795 29.4081 136.461C41.9121 183.126 89.8787 210.82 136.544 198.316Z" fill="#DAAE3C"/>
<path d="M108.665 23.7671C108.577 22.2626 109.726 20.9677 111.233 20.9243C133.017 20.2975 154.364 27.3491 171.51 40.8938C189.372 55.0032 201.434 75.1773 205.41 97.5897C209.385 120.002 204.997 143.094 193.077 162.486C181.158 181.878 162.536 196.221 140.744 202.794C118.951 209.368 95.5043 207.716 74.8495 198.15C54.1948 188.585 37.7688 171.771 28.6871 150.899C19.6053 130.027 18.4994 106.548 25.5791 84.915C32.3755 64.1476 46.2615 46.468 64.7585 34.9436C66.0377 34.1467 67.7113 34.59 68.4703 35.892C69.2294 37.194 68.7864 38.8614 67.5087 39.6607C50.1659 50.5101 37.1467 67.1157 30.7662 86.6125C24.1023 106.975 25.1432 129.076 33.6916 148.722C42.24 168.368 57.7013 184.194 77.1431 193.198C96.5848 202.201 118.655 203.757 139.167 197.569C159.68 191.381 177.208 177.881 188.428 159.628C199.647 141.375 203.778 119.639 200.036 98.5428C196.294 77.4467 184.94 58.4574 168.127 45.1766C152.029 32.4605 131.999 25.8244 111.55 26.3754C110.043 26.416 108.752 25.2717 108.665 23.7671Z" fill="white"/>
<g filter="url(#filter0_d_5_10983)">
<circle cx="73.8779" cy="31.7463" r="15" fill="#181818"/>
<circle cx="73.8779" cy="31.7463" r="12.5" stroke="white" stroke-width="5"/>
</g>
<path d="M43.282 257.024V239.524H46.182V257.024H43.282ZM49.3988 257.024V244.611H51.7238L52.0113 246.636L51.4238 246.136C51.9988 245.595 52.628 245.17 53.3113 244.861C54.003 244.553 54.7738 244.399 55.6238 244.399C56.2655 244.399 56.8488 244.499 57.3738 244.699C57.9072 244.89 58.3697 245.19 58.7613 245.599C59.1613 246.007 59.4822 246.528 59.7238 247.161L59.0113 246.949C59.403 246.149 59.9822 245.524 60.7488 245.074C61.5155 244.624 62.4405 244.399 63.5238 244.399C64.6322 244.399 65.5447 244.62 66.2613 245.061C66.978 245.495 67.5072 246.128 67.8488 246.961C68.1988 247.795 68.3738 248.799 68.3738 249.974V257.024H65.5738V250.124C65.5738 248.965 65.378 248.115 64.9863 247.574C64.5947 247.024 63.9447 246.749 63.0363 246.749C62.5113 246.749 62.0697 246.836 61.7113 247.011C61.353 247.178 61.0697 247.415 60.8613 247.724C60.653 248.032 60.503 248.382 60.4113 248.774C60.328 249.165 60.2863 249.582 60.2863 250.024V257.024H57.4863V250.286C57.4863 249.428 57.3905 248.74 57.1988 248.224C57.0072 247.707 56.7197 247.332 56.3363 247.099C55.953 246.865 55.478 246.749 54.9113 246.749C54.153 246.749 53.5072 246.924 52.9738 247.274C52.4488 247.615 52.0322 248.111 51.7238 248.761L52.1863 247.261V257.024H49.3988ZM71.2006 263.074V244.611H73.4256L73.9631 246.949L73.1381 246.586C73.6964 245.92 74.3256 245.39 75.0256 244.999C75.7339 244.599 76.5964 244.399 77.6131 244.399C78.8048 244.399 79.8089 244.69 80.6256 245.274C81.4506 245.857 82.0756 246.636 82.5006 247.611C82.9256 248.586 83.1381 249.661 83.1381 250.836C83.1381 252.011 82.9298 253.086 82.5131 254.061C82.0964 255.036 81.4798 255.815 80.6631 256.399C79.8464 256.982 78.8298 257.274 77.6131 257.274C76.6381 257.274 75.8131 257.115 75.1381 256.799C74.4714 256.482 73.8756 255.99 73.3506 255.324L73.9881 254.761V263.074H71.2006ZM77.1631 254.924C78.1464 254.924 78.9131 254.553 79.4631 253.811C80.0131 253.061 80.2881 252.07 80.2881 250.836C80.2881 249.595 80.0131 248.603 79.4631 247.861C78.9131 247.12 78.1464 246.749 77.1631 246.749C76.4631 246.749 75.8631 246.915 75.3631 247.249C74.8714 247.574 74.4964 248.04 74.2381 248.649C73.9798 249.257 73.8506 249.986 73.8506 250.836C73.8506 251.703 73.9798 252.44 74.2381 253.049C74.4964 253.657 74.8714 254.124 75.3631 254.449C75.8631 254.765 76.4631 254.924 77.1631 254.924ZM85.3607 257.024V244.611H87.8857L88.0232 246.199C88.4566 245.69 88.9607 245.257 89.5357 244.899C90.1107 244.54 90.7316 244.361 91.3982 244.361C91.5982 244.361 91.7857 244.382 91.9607 244.424L91.7357 247.261C91.5774 247.22 91.4191 247.195 91.2607 247.186C91.1024 247.17 90.9399 247.161 90.7732 247.161C90.2066 247.161 89.6857 247.29 89.2107 247.549C88.7357 247.807 88.4024 248.107 88.2107 248.449V257.024H85.3607ZM98.809 257.274C97.4757 257.274 96.3382 256.982 95.3965 256.399C94.4632 255.815 93.7465 255.036 93.2465 254.061C92.7548 253.086 92.509 252.011 92.509 250.836C92.509 249.661 92.7548 248.582 93.2465 247.599C93.7465 246.615 94.4632 245.832 95.3965 245.249C96.3382 244.657 97.4757 244.361 98.809 244.361C100.134 244.361 101.267 244.657 102.209 245.249C103.151 245.832 103.867 246.615 104.359 247.599C104.859 248.582 105.109 249.661 105.109 250.836C105.109 252.011 104.859 253.086 104.359 254.061C103.867 255.036 103.151 255.815 102.209 256.399C101.267 256.982 100.134 257.274 98.809 257.274ZM98.809 254.924C99.909 254.924 100.755 254.553 101.346 253.811C101.946 253.061 102.246 252.07 102.246 250.836C102.246 249.586 101.946 248.586 101.346 247.836C100.755 247.086 99.909 246.711 98.809 246.711C97.709 246.711 96.859 247.086 96.259 247.836C95.659 248.586 95.359 249.586 95.359 250.836C95.359 252.07 95.659 253.061 96.259 253.811C96.859 254.553 97.709 254.924 98.809 254.924ZM110.502 257.024L105.739 244.611H108.589L111.802 253.674L114.989 244.611H117.852L113.102 257.024H110.502ZM125.198 257.274C123.715 257.274 122.473 256.974 121.473 256.374C120.481 255.774 119.731 254.982 119.223 253.999C118.723 253.007 118.473 251.92 118.473 250.736C118.473 249.595 118.706 248.545 119.173 247.586C119.648 246.62 120.336 245.849 121.236 245.274C122.144 244.69 123.244 244.399 124.536 244.399C125.669 244.399 126.636 244.628 127.436 245.086C128.236 245.545 128.844 246.178 129.261 246.986C129.686 247.786 129.898 248.703 129.898 249.736C129.898 249.97 129.881 250.215 129.848 250.474C129.823 250.724 129.786 250.982 129.736 251.249H121.361C121.477 252.157 121.731 252.878 122.123 253.411C122.515 253.945 123.002 254.332 123.586 254.574C124.169 254.807 124.798 254.924 125.473 254.924C126.14 254.924 126.781 254.845 127.398 254.686C128.023 254.52 128.602 254.295 129.136 254.011L129.348 256.324C128.873 256.557 128.286 256.774 127.586 256.974C126.886 257.174 126.09 257.274 125.198 257.274ZM121.486 249.349H127.048C127.048 248.899 126.961 248.478 126.786 248.086C126.619 247.686 126.348 247.365 125.973 247.124C125.606 246.874 125.123 246.749 124.523 246.749C123.648 246.749 122.965 246.986 122.473 247.461C121.99 247.936 121.661 248.565 121.486 249.349ZM132.065 257.024V244.611H134.39L134.677 246.636L134.09 246.136C134.665 245.595 135.294 245.17 135.977 244.861C136.669 244.553 137.44 244.399 138.29 244.399C138.932 244.399 139.515 244.499 140.04 244.699C140.573 244.89 141.036 245.19 141.427 245.599C141.827 246.007 142.148 246.528 142.39 247.161L141.677 246.949C142.069 246.149 142.648 245.524 143.415 245.074C144.182 244.624 145.107 244.399 146.19 244.399C147.298 244.399 148.211 244.62 148.927 245.061C149.644 245.495 150.173 246.128 150.515 246.961C150.865 247.795 151.04 248.799 151.04 249.974V257.024H148.24V250.124C148.24 248.965 148.044 248.115 147.652 247.574C147.261 247.024 146.611 246.749 145.702 246.749C145.177 246.749 144.736 246.836 144.377 247.011C144.019 247.178 143.736 247.415 143.527 247.724C143.319 248.032 143.169 248.382 143.077 248.774C142.994 249.165 142.952 249.582 142.952 250.024V257.024H140.152V250.286C140.152 249.428 140.057 248.74 139.865 248.224C139.673 247.707 139.386 247.332 139.002 247.099C138.619 246.865 138.144 246.749 137.577 246.749C136.819 246.749 136.173 246.924 135.64 247.274C135.115 247.615 134.698 248.111 134.39 248.761L134.852 247.261V257.024H132.065ZM159.842 257.274C158.358 257.274 157.117 256.974 156.117 256.374C155.125 255.774 154.375 254.982 153.867 253.999C153.367 253.007 153.117 251.92 153.117 250.736C153.117 249.595 153.35 248.545 153.817 247.586C154.292 246.62 154.979 245.849 155.879 245.274C156.787 244.69 157.887 244.399 159.179 244.399C160.312 244.399 161.279 244.628 162.079 245.086C162.879 245.545 163.487 246.178 163.904 246.986C164.329 247.786 164.542 248.703 164.542 249.736C164.542 249.97 164.525 250.215 164.492 250.474C164.467 250.724 164.429 250.982 164.379 251.249H156.004C156.121 252.157 156.375 252.878 156.767 253.411C157.158 253.945 157.646 254.332 158.229 254.574C158.812 254.807 159.442 254.924 160.117 254.924C160.783 254.924 161.425 254.845 162.042 254.686C162.667 254.52 163.246 254.295 163.779 254.011L163.992 256.324C163.517 256.557 162.929 256.774 162.229 256.974C161.529 257.174 160.733 257.274 159.842 257.274ZM156.129 249.349H161.692C161.692 248.899 161.604 248.478 161.429 248.086C161.262 247.686 160.992 247.365 160.617 247.124C160.25 246.874 159.767 246.749 159.167 246.749C158.292 246.749 157.608 246.986 157.117 247.461C156.633 247.936 156.304 248.565 156.129 249.349ZM166.708 257.024V244.611H169.196L169.433 246.949L168.658 246.211C169.258 245.62 169.908 245.17 170.608 244.861C171.317 244.553 172.088 244.399 172.921 244.399C174.588 244.399 175.808 244.924 176.583 245.974C177.358 247.024 177.746 248.411 177.746 250.136V257.024H174.958V250.286C174.958 249.07 174.746 248.178 174.321 247.611C173.896 247.036 173.196 246.749 172.221 246.749C171.463 246.749 170.817 246.924 170.283 247.274C169.75 247.624 169.333 248.128 169.033 248.786L169.496 247.311V257.024H166.708ZM184.542 257.274C183.759 257.274 183.126 257.12 182.642 256.811C182.159 256.503 181.805 256.111 181.58 255.636C181.355 255.153 181.242 254.649 181.242 254.124V246.874H179.342L179.592 244.611H181.242V241.761L184.03 241.474V244.611H186.955V246.874H184.03V252.811C184.03 253.503 184.071 254.003 184.155 254.311C184.238 254.611 184.43 254.803 184.73 254.886C185.03 254.961 185.513 254.999 186.18 254.999H186.93L186.692 257.274H184.542Z" fill="#181818"/>
<defs>
<filter id="filter0_d_5_10983" x="50.8779" y="16.7463" width="46" height="46" filterUnits="userSpaceOnUse" color-interpolation-filters="sRGB">
<feFlood flood-opacity="0" result="BackgroundImageFix"/>
<feColorMatrix in="SourceAlpha" type="matrix" values="0 0 0 0 0 0 0 0 0 0 0 0 0 0 0 0 0 0 127 0" result="hardAlpha"/>
<feOffset dy="8"/>
<feGaussianBlur stdDeviation="4"/>
<feComposite in2="hardAlpha" operator="out"/>
<feColorMatrix type="matrix" values="0 0 0 0 0.9625 0 0 0 0 0.919283 0 0 0 0 0.810104 0 0 0 1 0"/>
<feBlend mode="multiply" in2="BackgroundImageFix" result="effect1_dropShadow_5_10983"/>
<feBlend mode="normal" in="SourceGraphic" in2="effect1_dropShadow_5_10983" result="shape"/>
</filter>
</defs>
</svg>
