<svg width="229" height="264" viewBox="0 0 229 264" fill="none" xmlns="http://www.w3.org/2000/svg">
<path d="M73.8701 130.26L69.4201 126.76C70.2868 126.343 71.3201 125.752 72.5201 124.985C73.7201 124.218 74.9535 123.31 76.2201 122.26C77.4868 121.193 78.6701 119.993 79.7701 118.66C80.8701 117.327 81.7618 115.877 82.4451 114.31C83.1285 112.743 83.4701 111.077 83.4701 109.31L85.2701 111.51C84.4035 112.927 83.2285 114.085 81.7451 114.985C80.2785 115.868 78.3701 116.31 76.0201 116.31C74.0701 116.31 72.3201 115.86 70.7701 114.96C69.2368 114.06 68.0201 112.818 67.1201 111.235C66.2201 109.652 65.7701 107.827 65.7701 105.76C65.7701 103.543 66.2368 101.593 67.1701 99.91C68.1035 98.2267 69.4285 96.9183 71.1451 95.985C72.8785 95.035 74.9201 94.56 77.2701 94.56C79.7035 94.56 81.8285 95.1017 83.6451 96.185C85.4618 97.2683 86.8701 98.7933 87.8701 100.76C88.8701 102.71 89.3701 104.993 89.3701 107.61C89.3701 110.327 88.8868 112.877 87.9201 115.26C86.9701 117.627 85.7201 119.785 84.1701 121.735C82.6368 123.668 80.9618 125.36 79.1451 126.81C77.3451 128.243 75.5868 129.393 73.8701 130.26ZM77.1701 110.81C78.7701 110.81 80.0868 110.31 81.1201 109.31C82.1535 108.293 82.6701 107.027 82.6701 105.51C82.6701 103.977 82.1535 102.685 81.1201 101.635C80.0868 100.585 78.7701 100.06 77.1701 100.06C75.6035 100.06 74.2951 100.585 73.2451 101.635C72.1951 102.685 71.6701 103.977 71.6701 105.51C71.6701 107.027 72.1951 108.293 73.2451 109.31C74.2951 110.31 75.6035 110.81 77.1701 110.81ZM109.096 130.96C106.146 130.96 103.563 130.193 101.346 128.66C99.1463 127.11 97.4296 124.952 96.1963 122.185C94.963 119.402 94.3463 116.16 94.3463 112.46C94.3463 108.927 94.963 105.818 96.1963 103.135C97.4296 100.435 99.1463 98.335 101.346 96.835C103.563 95.3183 106.146 94.56 109.096 94.56C112.063 94.56 114.646 95.3183 116.846 96.835C119.063 98.3517 120.78 100.46 121.996 103.16C123.23 105.843 123.846 108.943 123.846 112.46C123.846 116.16 123.23 119.402 121.996 122.185C120.78 124.952 119.063 127.11 116.846 128.66C114.646 130.193 112.063 130.96 109.096 130.96ZM109.096 125.21C110.68 125.21 112.096 124.777 113.346 123.91C114.613 123.043 115.613 121.677 116.346 119.81C117.08 117.927 117.446 115.477 117.446 112.46C117.446 108.31 116.646 105.235 115.046 103.235C113.463 101.218 111.48 100.21 109.096 100.21C106.73 100.21 104.746 101.21 103.146 103.21C101.546 105.193 100.746 108.277 100.746 112.46C100.746 115.443 101.113 117.877 101.846 119.76C102.58 121.627 103.571 123.002 104.821 123.885C106.088 124.768 107.513 125.21 109.096 125.21ZM137.599 114.56C135.782 114.56 134.232 114.127 132.949 113.26C131.682 112.377 130.716 111.177 130.049 109.66C129.382 108.127 129.049 106.377 129.049 104.41C129.049 101.427 129.832 99.0433 131.399 97.26C132.966 95.46 135.032 94.56 137.599 94.56C140.182 94.56 142.249 95.46 143.799 97.26C145.366 99.0433 146.149 101.427 146.149 104.41C146.149 106.377 145.807 108.127 145.124 109.66C144.457 111.177 143.482 112.377 142.199 113.26C140.932 114.127 139.399 114.56 137.599 114.56ZM137.599 110.21C138.699 110.21 139.549 109.71 140.149 108.71C140.749 107.693 141.049 106.26 141.049 104.41C141.049 102.56 140.732 101.185 140.099 100.285C139.482 99.3683 138.649 98.91 137.599 98.91C136.549 98.91 135.707 99.3683 135.074 100.285C134.457 101.185 134.149 102.56 134.149 104.41C134.149 106.26 134.432 107.693 134.999 108.71C135.566 109.71 136.432 110.21 137.599 110.21ZM136.949 130.26L157.599 95.26H162.549L141.949 130.26H136.949ZM161.849 130.96C160.032 130.96 158.482 130.527 157.199 129.66C155.932 128.777 154.966 127.577 154.299 126.06C153.632 124.527 153.299 122.777 153.299 120.81C153.299 117.827 154.082 115.443 155.649 113.66C157.216 111.86 159.282 110.96 161.849 110.96C164.432 110.96 166.499 111.86 168.049 113.66C169.616 115.443 170.399 117.827 170.399 120.81C170.399 122.777 170.057 124.527 169.374 126.06C168.707 127.577 167.732 128.777 166.449 129.66C165.182 130.527 163.649 130.96 161.849 130.96ZM161.849 126.61C162.949 126.61 163.799 126.11 164.399 125.11C164.999 124.093 165.299 122.66 165.299 120.81C165.299 118.96 164.982 117.585 164.349 116.685C163.732 115.768 162.899 115.31 161.849 115.31C160.799 115.31 159.957 115.768 159.324 116.685C158.707 117.585 158.399 118.96 158.399 120.81C158.399 122.66 158.682 124.093 159.249 125.11C159.816 126.11 160.682 126.61 161.849 126.61Z" fill="#181818"/>
<path d="M90.4923 24.0526C140.07 10.7685 191.029 40.1898 204.313 89.767C217.597 139.344 188.176 190.304 138.599 203.588C89.0214 216.872 38.0621 187.451 24.7779 137.873C11.4937 88.2961 40.9151 37.3368 90.4923 24.0526ZM137.186 198.316C183.852 185.812 211.545 137.845 199.041 91.1796C186.537 44.5139 138.571 16.8204 91.9049 29.3244C45.2392 41.8285 17.5457 89.795 30.0497 136.461C42.5537 183.126 90.5203 210.82 137.186 198.316Z" fill="#DAAE3C"/>
<path d="M109.306 23.7671C109.219 22.2626 110.368 20.9677 111.874 20.9243C133.659 20.2975 155.005 27.3491 172.152 40.8938C190.014 55.0032 202.076 75.1773 206.051 97.5897C210.027 120.002 205.638 143.094 193.719 162.486C181.799 181.878 163.177 196.221 141.385 202.794C119.593 209.368 96.1459 207.716 75.4911 198.15C54.8364 188.585 38.4104 171.771 29.3287 150.899C20.2469 130.027 19.141 106.548 26.2207 84.915C33.0171 64.1476 46.9031 46.468 65.4001 34.9436C66.6793 34.1467 68.3529 34.59 69.1119 35.892C69.871 37.194 69.428 38.8614 68.1503 39.6607C50.8075 50.5101 37.7883 67.1157 31.4078 86.6125C24.7439 106.975 25.7848 129.076 34.3332 148.722C42.8816 168.368 58.3429 184.194 77.7847 193.198C97.2264 202.201 119.296 203.757 139.809 197.569C160.321 191.381 177.85 177.881 189.069 159.628C200.289 141.375 204.419 119.639 200.678 98.5428C196.936 77.4467 185.582 58.4574 168.769 45.1766C152.671 32.4605 132.641 25.8244 112.192 26.3754C110.685 26.416 109.394 25.2717 109.306 23.7671Z" fill="white"/>
<g filter="url(#filter0_d_5_10990)">
<circle cx="59.8779" cy="45.2913" r="15" fill="#181818"/>
<circle cx="59.8779" cy="45.2913" r="12.5" stroke="white" stroke-width="5"/>
</g>
<path d="M63.7234 257.024V239.524H69.9359C71.5776 239.524 72.8234 239.882 73.6734 240.599C74.5234 241.315 74.9484 242.37 74.9484 243.761C74.9484 244.77 74.7234 245.628 74.2734 246.336C73.8234 247.045 73.1484 247.54 72.2484 247.824L72.3734 247.299C73.7068 247.557 74.7151 248.082 75.3984 248.874C76.0818 249.665 76.4234 250.72 76.4234 252.036C76.4234 253.595 75.9193 254.815 74.9109 255.699C73.9109 256.582 72.5318 257.024 70.7734 257.024H63.7234ZM66.6234 254.424H70.3984C71.3068 254.424 72.0318 254.224 72.5734 253.824C73.1151 253.415 73.3859 252.736 73.3859 251.786C73.3859 250.786 73.1026 250.095 72.5359 249.711C71.9693 249.328 71.2568 249.136 70.3984 249.136H66.6234V254.424ZM66.6234 246.549H69.5234C70.3234 246.549 70.9443 246.386 71.3859 246.061C71.8276 245.728 72.0484 245.153 72.0484 244.336C72.0484 243.503 71.8276 242.924 71.3859 242.599C70.9443 242.274 70.3234 242.111 69.5234 242.111H66.6234V246.549ZM78.4828 257.024V244.611H81.0078L81.1453 246.199C81.5786 245.69 82.0828 245.257 82.6578 244.899C83.2328 244.54 83.8536 244.361 84.5203 244.361C84.7203 244.361 84.9078 244.382 85.0828 244.424L84.8578 247.261C84.6995 247.22 84.5411 247.195 84.3828 247.186C84.2245 247.17 84.062 247.161 83.8953 247.161C83.3286 247.161 82.8078 247.29 82.3328 247.549C81.8578 247.807 81.5245 248.107 81.3328 248.449V257.024H78.4828ZM89.2287 257.274C88.5287 257.274 87.8995 257.124 87.3412 256.824C86.7829 256.524 86.3412 256.099 86.0162 255.549C85.6995 254.999 85.5412 254.349 85.5412 253.599C85.5412 252.899 85.6995 252.299 86.0162 251.799C86.3412 251.29 86.7662 250.87 87.2912 250.536C87.8245 250.203 88.4037 249.94 89.0287 249.749C89.662 249.549 90.2954 249.403 90.9287 249.311C91.5704 249.22 92.1537 249.17 92.6787 249.161C92.6537 248.278 92.4495 247.67 92.0662 247.336C91.6912 246.995 91.0954 246.824 90.2787 246.824C89.7537 246.824 89.2287 246.899 88.7037 247.049C88.1787 247.199 87.5829 247.461 86.9162 247.836L86.6287 245.561C87.287 245.195 87.987 244.911 88.7287 244.711C89.4787 244.503 90.2454 244.399 91.0287 244.399C92.0037 244.399 92.8204 244.57 93.4787 244.911C94.137 245.253 94.6329 245.815 94.9662 246.599C95.3079 247.382 95.4787 248.428 95.4787 249.736V252.786C95.4787 253.395 95.5079 253.857 95.5662 254.174C95.6245 254.49 95.737 254.707 95.9037 254.824C96.0787 254.94 96.3412 254.999 96.6912 254.999H97.0287L96.7287 257.274H95.9537C95.387 257.274 94.9162 257.207 94.5412 257.074C94.1662 256.949 93.8579 256.77 93.6162 256.536C93.3829 256.303 93.1829 256.024 93.0162 255.699C92.5912 256.182 92.0412 256.565 91.3662 256.849C90.6995 257.132 89.987 257.274 89.2287 257.274ZM90.2037 255.111C90.5954 255.111 91.0245 255.011 91.4912 254.811C91.9579 254.603 92.3579 254.311 92.6912 253.936V251.061C91.8912 251.086 91.1704 251.19 90.5287 251.374C89.887 251.549 89.3787 251.811 89.0037 252.161C88.637 252.503 88.4537 252.94 88.4537 253.474C88.4537 254.032 88.5995 254.445 88.8912 254.711C89.1912 254.978 89.6287 255.111 90.2037 255.111ZM98.7465 257.024V244.611H101.234L101.471 246.949L100.696 246.211C101.296 245.62 101.946 245.17 102.646 244.861C103.355 244.553 104.126 244.399 104.959 244.399C106.626 244.399 107.846 244.924 108.621 245.974C109.396 247.024 109.784 248.411 109.784 250.136V257.024H106.996V250.286C106.996 249.07 106.784 248.178 106.359 247.611C105.934 247.036 105.234 246.749 104.259 246.749C103.501 246.749 102.855 246.924 102.321 247.274C101.788 247.624 101.371 248.128 101.071 248.786L101.534 247.311V257.024H98.7465ZM118.351 257.274C116.935 257.274 115.747 256.986 114.789 256.411C113.83 255.828 113.105 255.053 112.614 254.086C112.13 253.111 111.889 252.036 111.889 250.861C111.889 249.661 112.126 248.57 112.601 247.586C113.085 246.603 113.814 245.82 114.789 245.236C115.764 244.653 116.993 244.361 118.476 244.361C119.16 244.361 119.785 244.436 120.351 244.586C120.918 244.728 121.41 244.911 121.826 245.136L121.539 247.449C121.13 247.24 120.68 247.074 120.189 246.949C119.697 246.815 119.185 246.749 118.651 246.749C117.401 246.749 116.435 247.12 115.751 247.861C115.076 248.595 114.739 249.582 114.739 250.824C114.739 252.015 115.076 252.999 115.751 253.774C116.426 254.549 117.38 254.936 118.614 254.936C119.139 254.936 119.647 254.865 120.139 254.724C120.63 254.582 121.105 254.386 121.564 254.136L121.851 256.461C121.451 256.686 120.939 256.878 120.314 257.036C119.697 257.195 119.043 257.274 118.351 257.274ZM123.941 257.024V238.274H126.741V246.549L126.004 246.186C126.545 245.686 127.133 245.265 127.766 244.924C128.4 244.574 129.179 244.399 130.104 244.399C131.187 244.399 132.079 244.64 132.779 245.124C133.479 245.607 133.995 246.278 134.329 247.136C134.662 247.995 134.829 248.99 134.829 250.124V257.024H132.041V250.361C132.041 249.128 131.829 248.22 131.404 247.636C130.987 247.045 130.325 246.749 129.416 246.749C128.675 246.749 128.045 246.932 127.529 247.299C127.02 247.665 126.591 248.157 126.241 248.774L126.741 247.211V257.024H123.941ZM137.663 257.024V244.611H140.45V257.024H137.663ZM137.663 242.411V239.524H140.45V242.411H137.663ZM143.424 257.024V244.611H145.912L146.149 246.949L145.374 246.211C145.974 245.62 146.624 245.17 147.324 244.861C148.033 244.553 148.803 244.399 149.637 244.399C151.303 244.399 152.524 244.924 153.299 245.974C154.074 247.024 154.462 248.411 154.462 250.136V257.024H151.674V250.286C151.674 249.07 151.462 248.178 151.037 247.611C150.612 247.036 149.912 246.749 148.937 246.749C148.178 246.749 147.533 246.924 146.999 247.274C146.466 247.624 146.049 248.128 145.749 248.786L146.212 247.311V257.024H143.424ZM162.241 263.311C161.091 263.311 160.079 263.17 159.204 262.886C158.337 262.603 157.658 262.19 157.166 261.649C156.675 261.115 156.429 260.465 156.429 259.699C156.429 259.065 156.608 258.503 156.966 258.011C157.325 257.528 157.833 257.12 158.491 256.786C158.141 256.586 157.862 256.345 157.654 256.061C157.454 255.77 157.354 255.445 157.354 255.086C157.354 254.695 157.466 254.349 157.691 254.049C157.925 253.749 158.254 253.507 158.679 253.324C158.029 252.882 157.533 252.307 157.191 251.599C156.85 250.89 156.679 250.111 156.679 249.261C156.679 248.37 156.875 247.553 157.266 246.811C157.666 246.07 158.241 245.478 158.991 245.036C159.75 244.586 160.671 244.361 161.754 244.361C162.321 244.361 162.846 244.436 163.329 244.586C163.821 244.736 164.262 244.949 164.654 245.224C164.954 245.049 165.346 244.903 165.829 244.786C166.321 244.661 166.866 244.599 167.466 244.599C167.575 244.599 167.675 244.599 167.766 244.599C167.858 244.599 167.954 244.599 168.054 244.599L167.816 246.386C167.666 246.386 167.512 246.386 167.354 246.386C167.204 246.386 167.05 246.386 166.891 246.386C166.816 246.386 166.683 246.39 166.491 246.399C166.308 246.407 166.125 246.428 165.941 246.461C166.225 246.853 166.437 247.29 166.579 247.774C166.729 248.257 166.804 248.753 166.804 249.261C166.804 250.178 166.608 251.011 166.216 251.761C165.825 252.503 165.25 253.099 164.491 253.549C163.741 253.99 162.829 254.211 161.754 254.211C161.496 254.211 161.246 254.195 161.004 254.161C160.771 254.128 160.537 254.082 160.304 254.024C160.054 254.115 159.929 254.278 159.929 254.511C159.929 254.72 160.054 254.886 160.304 255.011C160.554 255.136 160.954 255.24 161.504 255.324L164.066 255.699C165.4 255.882 166.437 256.261 167.179 256.836C167.929 257.411 168.304 258.228 168.304 259.286C168.304 260.12 168.062 260.836 167.579 261.436C167.096 262.036 166.4 262.499 165.491 262.824C164.583 263.149 163.5 263.311 162.241 263.311ZM162.391 261.086C163.483 261.086 164.312 260.949 164.879 260.674C165.446 260.399 165.729 259.99 165.729 259.449C165.729 258.982 165.537 258.628 165.154 258.386C164.779 258.153 164.196 257.97 163.404 257.836L160.391 257.374C159.966 257.549 159.604 257.786 159.304 258.086C159.004 258.386 158.854 258.761 158.854 259.211C158.854 259.853 159.171 260.324 159.804 260.624C160.437 260.932 161.3 261.086 162.391 261.086ZM161.754 252.099C162.571 252.099 163.187 251.84 163.604 251.324C164.029 250.807 164.241 250.124 164.241 249.274C164.241 248.44 164.029 247.77 163.604 247.261C163.187 246.745 162.571 246.486 161.754 246.486C160.929 246.486 160.304 246.745 159.879 247.261C159.462 247.77 159.254 248.44 159.254 249.274C159.254 250.124 159.462 250.807 159.879 251.324C160.304 251.84 160.929 252.099 161.754 252.099Z" fill="#181818"/>
<defs>
<filter id="filter0_d_5_10990" x="36.8779" y="30.2913" width="46" height="46" filterUnits="userSpaceOnUse" color-interpolation-filters="sRGB">
<feFlood flood-opacity="0" result="BackgroundImageFix"/>
<feColorMatrix in="SourceAlpha" type="matrix" values="0 0 0 0 0 0 0 0 0 0 0 0 0 0 0 0 0 0 127 0" result="hardAlpha"/>
<feOffset dy="8"/>
<feGaussianBlur stdDeviation="4"/>
<feComposite in2="hardAlpha" operator="out"/>
<feColorMatrix type="matrix" values="0 0 0 0 0.9625 0 0 0 0 0.919283 0 0 0 0 0.810104 0 0 0 1 0"/>
<feBlend mode="multiply" in2="BackgroundImageFix" result="effect1_dropShadow_5_10990"/>
<feBlend mode="normal" in="SourceGraphic" in2="effect1_dropShadow_5_10990" result="shape"/>
</filter>
</defs>
</svg>
