<svg width="229" height="264" viewBox="0 0 229 264" fill="none" xmlns="http://www.w3.org/2000/svg">
<path d="M78.1869 130.96C75.6536 130.96 73.4619 130.51 71.6119 129.61C69.7786 128.693 68.3619 127.427 67.3619 125.81C66.3786 124.193 65.8869 122.327 65.8869 120.21C65.8869 118.11 66.4036 116.268 67.4369 114.685C68.4702 113.085 69.9036 111.843 71.7369 110.96C73.5869 110.06 75.7369 109.61 78.1869 109.61C80.6369 109.61 82.7869 110.06 84.6369 110.96C86.4869 111.843 87.9202 113.085 88.9369 114.685C89.9702 116.268 90.4869 118.11 90.4869 120.21C90.4869 122.327 89.9869 124.193 88.9869 125.81C87.9869 127.427 86.5619 128.693 84.7119 129.61C82.8786 130.51 80.7036 130.96 78.1869 130.96ZM78.1869 125.46C80.2202 125.46 81.7952 124.943 82.9119 123.91C84.0286 122.877 84.5869 121.51 84.5869 119.81C84.5869 118.21 84.0286 116.885 82.9119 115.835C81.7952 114.785 80.2202 114.26 78.1869 114.26C76.1702 114.26 74.5952 114.785 73.4619 115.835C72.3452 116.885 71.7869 118.21 71.7869 119.81C71.7869 121.51 72.3452 122.877 73.4619 123.91C74.5952 124.943 76.1702 125.46 78.1869 125.46ZM78.1869 113.26C76.2036 113.26 74.4036 112.868 72.7869 112.085C71.1702 111.302 69.8786 110.218 68.9119 108.835C67.9619 107.435 67.4869 105.827 67.4869 104.01C67.4869 102.477 67.8452 100.985 68.5619 99.535C69.2952 98.085 70.4452 96.8933 72.0119 95.96C73.5952 95.0267 75.6536 94.56 78.1869 94.56C80.7202 94.56 82.7536 95.0267 84.2869 95.96C85.8369 96.8933 86.9536 98.085 87.6369 99.535C88.3369 100.985 88.6869 102.477 88.6869 104.01C88.6869 105.827 88.2536 107.435 87.3869 108.835C86.5369 110.218 85.3202 111.302 83.7369 112.085C82.1702 112.868 80.3202 113.26 78.1869 113.26ZM78.1869 108.61C79.8202 108.61 81.0452 108.168 81.8619 107.285C82.6786 106.385 83.0869 105.31 83.0869 104.06C83.0869 102.727 82.6786 101.643 81.8619 100.81C81.0452 99.9767 79.8202 99.56 78.1869 99.56C76.5702 99.56 75.3119 99.9767 74.4119 100.81C73.5286 101.643 73.0869 102.727 73.0869 104.06C73.0869 105.31 73.5286 106.385 74.4119 107.285C75.3119 108.168 76.5702 108.61 78.1869 108.61ZM105.313 130.91C103.396 130.91 101.638 130.66 100.038 130.16C98.4377 129.66 96.996 128.977 95.7127 128.11L97.2127 122.31C98.446 123.077 99.696 123.702 100.963 124.185C102.246 124.668 103.663 124.91 105.213 124.91C107.113 124.91 108.621 124.41 109.738 123.41C110.854 122.41 111.413 121.06 111.413 119.36C111.413 117.527 110.779 116.093 109.513 115.06C108.246 114.027 106.413 113.51 104.013 113.51C102.913 113.51 101.813 113.577 100.713 113.71C99.6294 113.843 98.546 114.01 97.4627 114.21L99.7127 95.26H116.213L115.813 101.46H104.513L103.313 111.16L100.913 108.96C101.713 108.727 102.546 108.552 103.413 108.435C104.296 108.318 105.246 108.26 106.263 108.26C108.496 108.26 110.463 108.702 112.163 109.585C113.879 110.452 115.213 111.718 116.163 113.385C117.129 115.035 117.613 117.027 117.613 119.36C117.613 121.76 117.079 123.827 116.013 125.56C114.963 127.277 113.513 128.602 111.663 129.535C109.813 130.452 107.696 130.91 105.313 130.91ZM130.968 114.56C129.151 114.56 127.601 114.127 126.318 113.26C125.051 112.377 124.085 111.177 123.418 109.66C122.751 108.127 122.418 106.377 122.418 104.41C122.418 101.427 123.201 99.0433 124.768 97.26C126.335 95.46 128.401 94.56 130.968 94.56C133.551 94.56 135.618 95.46 137.168 97.26C138.735 99.0433 139.518 101.427 139.518 104.41C139.518 106.377 139.176 108.127 138.493 109.66C137.826 111.177 136.851 112.377 135.568 113.26C134.301 114.127 132.768 114.56 130.968 114.56ZM130.968 110.21C132.068 110.21 132.918 109.71 133.518 108.71C134.118 107.693 134.418 106.26 134.418 104.41C134.418 102.56 134.101 101.185 133.468 100.285C132.851 99.3683 132.018 98.91 130.968 98.91C129.918 98.91 129.076 99.3683 128.443 100.285C127.826 101.185 127.518 102.56 127.518 104.41C127.518 106.26 127.801 107.693 128.368 108.71C128.935 109.71 129.801 110.21 130.968 110.21ZM130.318 130.26L150.968 95.26H155.918L135.318 130.26H130.318ZM155.218 130.96C153.401 130.96 151.851 130.527 150.568 129.66C149.301 128.777 148.335 127.577 147.668 126.06C147.001 124.527 146.668 122.777 146.668 120.81C146.668 117.827 147.451 115.443 149.018 113.66C150.585 111.86 152.651 110.96 155.218 110.96C157.801 110.96 159.868 111.86 161.418 113.66C162.985 115.443 163.768 117.827 163.768 120.81C163.768 122.777 163.426 124.527 162.743 126.06C162.076 127.577 161.101 128.777 159.818 129.66C158.551 130.527 157.018 130.96 155.218 130.96ZM155.218 126.61C156.318 126.61 157.168 126.11 157.768 125.11C158.368 124.093 158.668 122.66 158.668 120.81C158.668 118.96 158.351 117.585 157.718 116.685C157.102 115.768 156.268 115.31 155.218 115.31C154.168 115.31 153.326 115.768 152.693 116.685C152.076 117.585 151.768 118.96 151.768 120.81C151.768 122.66 152.051 124.093 152.618 125.11C153.185 126.11 154.051 126.61 155.218 126.61Z" fill="#181818"/>
<path d="M90.2091 24.0526C139.786 10.7685 190.746 40.1898 204.03 89.767C217.314 139.344 187.893 190.304 138.315 203.588C88.7381 216.872 37.7789 187.451 24.4947 137.873C11.2105 88.2961 40.6319 37.3368 90.2091 24.0526ZM136.903 198.316C183.569 185.812 211.262 137.845 198.758 91.1796C186.254 44.5139 138.287 16.8204 91.6217 29.3244C44.956 41.8285 17.2625 89.795 29.7665 136.461C42.2705 183.126 90.2371 210.82 136.903 198.316Z" fill="#DAAE3C"/>
<path d="M109.023 23.7671C108.935 22.2626 110.085 20.9677 111.591 20.9244C131.45 20.353 150.997 26.1622 167.344 37.5371C184.438 49.4323 197.042 66.7244 203.133 86.6395C209.224 106.555 208.449 127.939 200.933 147.361C193.417 166.783 179.595 183.118 161.684 193.745C143.774 204.371 122.813 208.675 102.165 205.964C81.5162 203.253 62.3766 193.685 47.8163 178.795C33.2561 163.905 24.119 144.556 21.8711 123.852C19.7214 104.053 23.9904 84.1129 34.0089 66.9569C34.7689 65.6554 36.4561 65.2673 37.7347 66.0652C39.0133 66.8631 39.3989 68.5447 38.6412 69.8475C29.2689 85.9648 25.2793 104.68 27.2969 123.263C29.4129 142.751 38.0133 160.964 51.7185 174.979C65.4237 188.995 83.4393 198.001 102.875 200.552C122.311 203.104 142.041 199.054 158.899 189.051C175.758 179.048 188.768 163.673 195.843 145.391C202.918 127.109 203.647 106.981 197.914 88.2358C192.18 69.4902 180.317 53.2136 164.227 42.017C148.884 31.3407 130.546 25.8734 111.908 26.3754C110.402 26.416 109.111 25.2717 109.023 23.7671Z" fill="white"/>
<g filter="url(#filter0_d_5_10976)">
<circle cx="42.6074" cy="61.7151" r="15" fill="#181818"/>
<circle cx="42.6074" cy="61.7151" r="12.5" stroke="white" stroke-width="5"/>
</g>
<path d="M59.0992 257.374C57.3492 257.374 55.8034 256.999 54.4617 256.249C53.1201 255.499 52.0701 254.445 51.3117 253.086C50.5534 251.72 50.1742 250.115 50.1742 248.274C50.1742 246.432 50.5617 244.832 51.3367 243.474C52.1117 242.107 53.1784 241.049 54.5367 240.299C55.8951 239.549 57.4492 239.174 59.1992 239.174C60.1076 239.174 60.9534 239.274 61.7367 239.474C62.5201 239.665 63.1992 239.907 63.7742 240.199L63.4617 242.936C62.8284 242.645 62.1617 242.403 61.4617 242.211C60.7617 242.011 59.9992 241.911 59.1742 241.911C57.8909 241.911 56.8159 242.19 55.9492 242.749C55.0909 243.299 54.4409 244.057 53.9992 245.024C53.5659 245.982 53.3492 247.065 53.3492 248.274C53.3492 249.482 53.5617 250.57 53.9867 251.536C54.4201 252.495 55.0617 253.253 55.9117 253.811C56.7701 254.361 57.8326 254.636 59.0992 254.636C59.9492 254.636 60.7201 254.545 61.4117 254.361C62.1117 254.178 62.7951 253.928 63.4617 253.611L63.7742 256.361C63.1242 256.661 62.4076 256.903 61.6242 257.086C60.8409 257.278 59.9992 257.374 59.0992 257.374ZM71.3139 257.274C69.9805 257.274 68.843 256.982 67.9014 256.399C66.968 255.815 66.2514 255.036 65.7514 254.061C65.2597 253.086 65.0139 252.011 65.0139 250.836C65.0139 249.661 65.2597 248.582 65.7514 247.599C66.2514 246.615 66.968 245.832 67.9014 245.249C68.843 244.657 69.9805 244.361 71.3139 244.361C72.6389 244.361 73.7722 244.657 74.7139 245.249C75.6555 245.832 76.3722 246.615 76.8639 247.599C77.3639 248.582 77.6139 249.661 77.6139 250.836C77.6139 252.011 77.3639 253.086 76.8639 254.061C76.3722 255.036 75.6555 255.815 74.7139 256.399C73.7722 256.982 72.6389 257.274 71.3139 257.274ZM71.3139 254.924C72.4139 254.924 73.2597 254.553 73.8514 253.811C74.4514 253.061 74.7514 252.07 74.7514 250.836C74.7514 249.586 74.4514 248.586 73.8514 247.836C73.2597 247.086 72.4139 246.711 71.3139 246.711C70.2139 246.711 69.3639 247.086 68.7639 247.836C68.1639 248.586 67.8639 249.586 67.8639 250.836C67.8639 252.07 68.1639 253.061 68.7639 253.811C69.3639 254.553 70.2139 254.924 71.3139 254.924ZM79.8139 257.024V244.611H82.3014L82.5389 246.949L81.7639 246.211C82.3639 245.62 83.0139 245.17 83.7139 244.861C84.4222 244.553 85.193 244.399 86.0264 244.399C87.693 244.399 88.9139 244.924 89.6889 245.974C90.4639 247.024 90.8514 248.411 90.8514 250.136V257.024H88.0639V250.286C88.0639 249.07 87.8514 248.178 87.4264 247.611C87.0014 247.036 86.3014 246.749 85.3264 246.749C84.568 246.749 83.9222 246.924 83.3889 247.274C82.8555 247.624 82.4389 248.128 82.1389 248.786L82.6014 247.311V257.024H79.8139ZM97.2061 257.274C96.2894 257.274 95.4894 257.178 94.8061 256.986C94.1227 256.786 93.5186 256.557 92.9936 256.299L93.2686 253.811C93.7686 254.136 94.3394 254.428 94.9811 254.686C95.6227 254.936 96.3311 255.061 97.1061 255.061C97.7894 255.061 98.3102 254.953 98.6686 254.736C99.0269 254.511 99.2061 254.17 99.2061 253.711C99.2061 253.353 99.1019 253.061 98.8936 252.836C98.6852 252.603 98.4019 252.407 98.0436 252.249C97.6936 252.082 97.2977 251.924 96.8561 251.774C96.1644 251.54 95.5394 251.278 94.9811 250.986C94.4227 250.686 93.9769 250.303 93.6436 249.836C93.3186 249.37 93.1561 248.765 93.1561 248.024C93.1561 247.34 93.3311 246.724 93.6811 246.174C94.0311 245.615 94.5477 245.174 95.2311 244.849C95.9144 244.524 96.7644 244.361 97.7811 244.361C98.5811 244.361 99.2727 244.449 99.8561 244.624C100.448 244.799 100.981 245.015 101.456 245.274L101.181 247.711C100.689 247.353 100.177 247.057 99.6436 246.824C99.1102 246.582 98.5061 246.461 97.8311 246.461C97.2311 246.461 96.7561 246.578 96.4061 246.811C96.0644 247.045 95.8936 247.39 95.8936 247.849C95.8936 248.365 96.1102 248.745 96.5436 248.986C96.9769 249.228 97.6519 249.515 98.5686 249.849C99.0519 250.024 99.5019 250.215 99.9186 250.424C100.335 250.632 100.702 250.878 101.019 251.161C101.335 251.445 101.581 251.782 101.756 252.174C101.931 252.565 102.019 253.032 102.019 253.574C102.019 254.274 101.852 254.903 101.519 255.461C101.185 256.02 100.664 256.461 99.9561 256.786C99.2477 257.111 98.3311 257.274 97.2061 257.274ZM104.179 257.024V244.611H106.967V257.024H104.179ZM104.179 242.411V239.524H106.967V242.411H104.179ZM113.466 257.274C112.549 257.274 111.749 257.178 111.066 256.986C110.382 256.786 109.778 256.557 109.253 256.299L109.528 253.811C110.028 254.136 110.599 254.428 111.241 254.686C111.882 254.936 112.591 255.061 113.366 255.061C114.049 255.061 114.57 254.953 114.928 254.736C115.287 254.511 115.466 254.17 115.466 253.711C115.466 253.353 115.362 253.061 115.153 252.836C114.945 252.603 114.662 252.407 114.303 252.249C113.953 252.082 113.557 251.924 113.116 251.774C112.424 251.54 111.799 251.278 111.241 250.986C110.682 250.686 110.237 250.303 109.903 249.836C109.578 249.37 109.416 248.765 109.416 248.024C109.416 247.34 109.591 246.724 109.941 246.174C110.291 245.615 110.807 245.174 111.491 244.849C112.174 244.524 113.024 244.361 114.041 244.361C114.841 244.361 115.532 244.449 116.116 244.624C116.707 244.799 117.241 245.015 117.716 245.274L117.441 247.711C116.949 247.353 116.437 247.057 115.903 246.824C115.37 246.582 114.766 246.461 114.091 246.461C113.491 246.461 113.016 246.578 112.666 246.811C112.324 247.045 112.153 247.39 112.153 247.849C112.153 248.365 112.37 248.745 112.803 248.986C113.237 249.228 113.912 249.515 114.828 249.849C115.312 250.024 115.762 250.215 116.178 250.424C116.595 250.632 116.962 250.878 117.278 251.161C117.595 251.445 117.841 251.782 118.016 252.174C118.191 252.565 118.278 253.032 118.278 253.574C118.278 254.274 118.112 254.903 117.778 255.461C117.445 256.02 116.924 256.461 116.216 256.786C115.507 257.111 114.591 257.274 113.466 257.274ZM124.576 257.274C123.793 257.274 123.16 257.12 122.676 256.811C122.193 256.503 121.839 256.111 121.614 255.636C121.389 255.153 121.276 254.649 121.276 254.124V246.874H119.376L119.626 244.611H121.276V241.761L124.064 241.474V244.611H126.989V246.874H124.064V252.811C124.064 253.503 124.106 254.003 124.189 254.311C124.272 254.611 124.464 254.803 124.764 254.886C125.064 254.961 125.547 254.999 126.214 254.999H126.964L126.726 257.274H124.576ZM134.934 257.274C133.451 257.274 132.209 256.974 131.209 256.374C130.218 255.774 129.468 254.982 128.959 253.999C128.459 253.007 128.209 251.92 128.209 250.736C128.209 249.595 128.443 248.545 128.909 247.586C129.384 246.62 130.072 245.849 130.972 245.274C131.88 244.69 132.98 244.399 134.272 244.399C135.405 244.399 136.372 244.628 137.172 245.086C137.972 245.545 138.58 246.178 138.997 246.986C139.422 247.786 139.634 248.703 139.634 249.736C139.634 249.97 139.618 250.215 139.584 250.474C139.559 250.724 139.522 250.982 139.472 251.249H131.097C131.214 252.157 131.468 252.878 131.859 253.411C132.251 253.945 132.739 254.332 133.322 254.574C133.905 254.807 134.534 254.924 135.209 254.924C135.876 254.924 136.518 254.845 137.134 254.686C137.759 254.52 138.339 254.295 138.872 254.011L139.084 256.324C138.609 256.557 138.022 256.774 137.322 256.974C136.622 257.174 135.826 257.274 134.934 257.274ZM131.222 249.349H136.784C136.784 248.899 136.697 248.478 136.522 248.086C136.355 247.686 136.084 247.365 135.709 247.124C135.343 246.874 134.859 246.749 134.259 246.749C133.384 246.749 132.701 246.986 132.209 247.461C131.726 247.936 131.397 248.565 131.222 249.349ZM141.801 257.024V244.611H144.289L144.526 246.949L143.751 246.211C144.351 245.62 145.001 245.17 145.701 244.861C146.41 244.553 147.18 244.399 148.014 244.399C149.68 244.399 150.901 244.924 151.676 245.974C152.451 247.024 152.839 248.411 152.839 250.136V257.024H150.051V250.286C150.051 249.07 149.839 248.178 149.414 247.611C148.989 247.036 148.289 246.749 147.314 246.749C146.555 246.749 145.91 246.924 145.376 247.274C144.843 247.624 144.426 248.128 144.126 248.786L144.589 247.311V257.024H141.801ZM161.406 257.274C159.989 257.274 158.802 256.986 157.843 256.411C156.885 255.828 156.16 255.053 155.668 254.086C155.185 253.111 154.943 252.036 154.943 250.861C154.943 249.661 155.181 248.57 155.656 247.586C156.139 246.603 156.868 245.82 157.843 245.236C158.818 244.653 160.048 244.361 161.531 244.361C162.214 244.361 162.839 244.436 163.406 244.586C163.973 244.728 164.464 244.911 164.881 245.136L164.593 247.449C164.185 247.24 163.735 247.074 163.243 246.949C162.752 246.815 162.239 246.749 161.706 246.749C160.456 246.749 159.489 247.12 158.806 247.861C158.131 248.595 157.793 249.582 157.793 250.824C157.793 252.015 158.131 252.999 158.806 253.774C159.481 254.549 160.435 254.936 161.668 254.936C162.193 254.936 162.702 254.865 163.193 254.724C163.685 254.582 164.16 254.386 164.618 254.136L164.906 256.461C164.506 256.686 163.993 256.878 163.368 257.036C162.752 257.195 162.098 257.274 161.406 257.274ZM167.996 263.074L170.783 256.299L165.621 244.611H168.733L172.158 253.049L175.483 244.611H178.583L170.883 263.074H167.996Z" fill="#181818"/>
<defs>
<filter id="filter0_d_5_10976" x="19.6074" y="46.7151" width="46" height="46" filterUnits="userSpaceOnUse" color-interpolation-filters="sRGB">
<feFlood flood-opacity="0" result="BackgroundImageFix"/>
<feColorMatrix in="SourceAlpha" type="matrix" values="0 0 0 0 0 0 0 0 0 0 0 0 0 0 0 0 0 0 127 0" result="hardAlpha"/>
<feOffset dy="8"/>
<feGaussianBlur stdDeviation="4"/>
<feComposite in2="hardAlpha" operator="out"/>
<feColorMatrix type="matrix" values="0 0 0 0 0.9625 0 0 0 0 0.919283 0 0 0 0 0.810104 0 0 0 1 0"/>
<feBlend mode="multiply" in2="BackgroundImageFix" result="effect1_dropShadow_5_10976"/>
<feBlend mode="normal" in="SourceGraphic" in2="effect1_dropShadow_5_10976" result="shape"/>
</filter>
</defs>
</svg>
