<svg width="1199" height="80" viewBox="0 0 1199 80" fill="none" xmlns="http://www.w3.org/2000/svg">
<path d="M76.9803 46.9995V21.0495C76.3303 21.4662 75.6386 21.8328 74.9053 22.1495C74.1886 22.4662 73.4136 22.6995 72.5803 22.8495L72.0303 17.4495C72.7469 17.2995 73.5469 16.9412 74.4303 16.3745C75.3136 15.8078 76.1303 15.1412 76.8803 14.3745C77.6303 13.5912 78.1636 12.7995 78.4803 11.9995H83.3803V46.9995H76.9803ZM94.2373 52.9995H91.3373L93.4873 46.9995H90.9373V40.1995H97.4373V46.3995L94.2373 52.9995ZM111.908 47.6495C109.992 47.6495 108.233 47.3995 106.633 46.8995C105.033 46.3995 103.592 45.7162 102.308 44.8495L103.808 39.0495C105.042 39.8162 106.292 40.4412 107.558 40.9245C108.842 41.4078 110.258 41.6495 111.808 41.6495C113.708 41.6495 115.217 41.1495 116.333 40.1495C117.45 39.1495 118.008 37.7995 118.008 36.0995C118.008 34.2662 117.375 32.8328 116.108 31.7995C114.842 30.7662 113.008 30.2495 110.608 30.2495C109.508 30.2495 108.408 30.3162 107.308 30.4495C106.225 30.5828 105.142 30.7495 104.058 30.9495L106.308 11.9995H122.808L122.408 18.1995H111.108L109.908 27.8995L107.508 25.6995C108.308 25.4662 109.142 25.2912 110.008 25.1745C110.892 25.0578 111.842 24.9995 112.858 24.9995C115.092 24.9995 117.058 25.4412 118.758 26.3245C120.475 27.1912 121.808 28.4578 122.758 30.1245C123.725 31.7745 124.208 33.7662 124.208 36.0995C124.208 38.4995 123.675 40.5662 122.608 42.2995C121.558 44.0162 120.108 45.3412 118.258 46.2745C116.408 47.1912 114.292 47.6495 111.908 47.6495ZM144.514 46.9995V38.9995H127.064L146.314 11.9995H150.664V33.7995H155.164V38.9995H150.664V46.9995H144.514ZM135.464 35.8995L134.264 33.7995H144.514V18.8995L146.164 20.6995L135.464 35.8995ZM159.969 46.9995L169.169 32.8495C170.385 30.9828 171.36 29.4078 172.094 28.1245C172.844 26.8412 173.385 25.7162 173.719 24.7495C174.052 23.7828 174.219 22.8328 174.219 21.8995C174.219 20.4662 173.81 19.3412 172.994 18.5245C172.194 17.7078 171.069 17.2995 169.619 17.2995C167.869 17.2995 166.294 17.7328 164.894 18.5995C163.51 19.4662 162.269 20.4495 161.169 21.5495L160.369 15.0995C161.869 13.8995 163.46 12.9662 165.144 12.2995C166.844 11.6328 168.769 11.2995 170.919 11.2995C173.035 11.2995 174.794 11.7328 176.194 12.5995C177.61 13.4662 178.669 14.6162 179.369 16.0495C180.069 17.4828 180.419 19.0495 180.419 20.7495C180.419 22.0662 180.235 23.3912 179.869 24.7245C179.502 26.0412 178.894 27.5078 178.044 29.1245C177.21 30.7245 176.085 32.5995 174.669 34.7495L170.569 40.9995H181.669V46.9995H159.969ZM192.299 42.1995V35.4995H185.599V30.7995H192.299V24.0995H197.399V30.7995H204.099V35.4995H197.399V42.1995H192.299Z" fill="#181818"/>
<path d="M74.8203 75.2515C74.2983 75.2515 73.7763 75.2125 73.2543 75.1345C72.7323 75.0565 72.2493 74.9575 71.8053 74.8375C71.3613 74.7115 70.9923 74.5795 70.6983 74.4415L70.9323 72.6235C71.2563 72.7795 71.6463 72.9415 72.1023 73.1095C72.5643 73.2775 73.0623 73.4185 73.5963 73.5325C74.1303 73.6465 74.6703 73.7035 75.2163 73.7035C76.0263 73.7035 76.6683 73.5565 77.1423 73.2625C77.6223 72.9625 77.8623 72.4975 77.8623 71.8675C77.8623 71.3935 77.7423 71.0065 77.5023 70.7065C77.2623 70.4005 76.8993 70.1395 76.4133 69.9235C75.9333 69.7075 75.3303 69.4915 74.6043 69.2755C73.9143 69.0715 73.2783 68.8315 72.6963 68.5555C72.1143 68.2735 71.6463 67.8985 71.2923 67.4305C70.9443 66.9565 70.7703 66.3295 70.7703 65.5495C70.7703 64.8835 70.9413 64.2955 71.2833 63.7855C71.6313 63.2695 72.1383 62.8675 72.8043 62.5795C73.4763 62.2915 74.2983 62.1475 75.2703 62.1475C76.0983 62.1475 76.8573 62.2375 77.5473 62.4175C78.2433 62.5975 78.8163 62.7955 79.2663 63.0115L79.0863 64.8295C78.4023 64.4215 77.7483 64.1305 77.1243 63.9565C76.5063 63.7825 75.8643 63.6955 75.1983 63.6955C74.4603 63.6955 73.8483 63.8335 73.3623 64.1095C72.8823 64.3855 72.6423 64.8355 72.6423 65.4595C72.6423 65.8795 72.7503 66.2245 72.9663 66.4945C73.1823 66.7585 73.5033 66.9865 73.9293 67.1785C74.3553 67.3645 74.8863 67.5535 75.5223 67.7455C76.3983 68.0095 77.1513 68.3125 77.7813 68.6545C78.4113 68.9905 78.8943 69.4075 79.2303 69.9055C79.5663 70.3975 79.7343 71.0095 79.7343 71.7415C79.7343 72.2815 79.6323 72.7675 79.4283 73.1995C79.2243 73.6315 78.9183 74.0005 78.5103 74.3065C78.1023 74.6125 77.5893 74.8465 76.9713 75.0085C76.3593 75.1705 75.6423 75.2515 74.8203 75.2515ZM83.442 75.1795C82.896 75.1795 82.419 75.0685 82.011 74.8465C81.603 74.6245 81.285 74.3215 81.057 73.9375C80.835 73.5535 80.724 73.1155 80.724 72.6235C80.724 72.1255 80.832 71.6995 81.048 71.3455C81.27 70.9855 81.564 70.6885 81.93 70.4545C82.302 70.2145 82.716 70.0255 83.172 69.8875C83.628 69.7435 84.099 69.6415 84.585 69.5815C85.077 69.5155 85.548 69.4795 85.998 69.4735C85.998 68.6335 85.833 68.0845 85.503 67.8265C85.173 67.5685 84.696 67.4395 84.072 67.4395C83.742 67.4395 83.388 67.4905 83.01 67.5925C82.638 67.6945 82.218 67.9075 81.75 68.2315L81.516 66.9175C81.87 66.6475 82.311 66.4285 82.839 66.2605C83.367 66.0865 83.922 65.9995 84.504 65.9995C85.248 65.9995 85.848 66.1315 86.304 66.3955C86.76 66.6535 87.093 67.0915 87.303 67.7095C87.513 68.3275 87.618 69.1675 87.618 70.2295V72.0295C87.618 72.4495 87.636 72.7975 87.672 73.0735C87.714 73.3435 87.804 73.5475 87.942 73.6855C88.086 73.8175 88.314 73.8835 88.626 73.8835H88.788L88.536 75.1795H88.41C87.888 75.1795 87.483 75.1285 87.195 75.0265C86.913 74.9245 86.697 74.7775 86.547 74.5855C86.397 74.3935 86.262 74.1595 86.142 73.8835C85.812 74.2675 85.422 74.5795 84.972 74.8195C84.522 75.0595 84.012 75.1795 83.442 75.1795ZM83.748 73.8835C84.18 73.8835 84.597 73.7755 84.999 73.5595C85.407 73.3435 85.74 73.0555 85.998 72.6955V70.5895C85.14 70.6195 84.444 70.7035 83.91 70.8415C83.382 70.9795 82.995 71.1865 82.749 71.4625C82.503 71.7385 82.38 72.0955 82.38 72.5335C82.38 73.0075 82.506 73.3525 82.758 73.5685C83.016 73.7785 83.346 73.8835 83.748 73.8835ZM92.9046 75.1795C92.3466 75.1795 91.8996 75.0775 91.5636 74.8735C91.2276 74.6695 90.9816 74.4085 90.8256 74.0905C90.6756 73.7665 90.6006 73.4275 90.6006 73.0735V67.4395H89.0886L89.2326 66.1795H90.6006V64.0015L92.2206 63.8395V66.1795H94.5426V67.4395H92.2206V72.0835C92.2206 72.6475 92.2536 73.0555 92.3196 73.3075C92.3856 73.5595 92.5476 73.7185 92.8056 73.7845C93.0696 73.8505 93.4926 73.8835 94.0746 73.8835H94.4886L94.3626 75.1795H92.9046ZM95.9271 74.9995V66.1795H97.5471V74.9995H95.9271ZM95.9271 64.1995V62.3995H97.5471V64.1995H95.9271ZM102.244 75.1795C101.464 75.1795 100.816 75.0865 100.3 74.9005C99.7896 74.7145 99.4296 74.5495 99.2196 74.4055L99.4176 72.8395C99.6096 73.0075 99.9486 73.1995 100.435 73.4155C100.921 73.6315 101.5 73.7395 102.172 73.7395C102.742 73.7395 103.177 73.6435 103.477 73.4515C103.783 73.2595 103.936 72.9895 103.936 72.6415C103.936 72.3355 103.837 72.0895 103.639 71.9035C103.447 71.7115 103.213 71.5615 102.937 71.4535C102.667 71.3395 102.412 71.2495 102.172 71.1835C101.77 71.0755 101.353 70.9405 100.921 70.7785C100.495 70.6105 100.135 70.3615 99.8406 70.0315C99.5466 69.7015 99.3996 69.2395 99.3996 68.6455C99.3996 68.1955 99.5076 67.7695 99.7236 67.3675C99.9396 66.9595 100.291 66.6295 100.777 66.3775C101.263 66.1255 101.908 65.9995 102.712 65.9995C103.3 65.9995 103.777 66.0625 104.143 66.1885C104.515 66.3085 104.836 66.4375 105.106 66.5755L104.908 68.0515C104.65 67.8355 104.35 67.6525 104.008 67.5025C103.666 67.3525 103.246 67.2775 102.748 67.2775C102.244 67.2775 101.833 67.3735 101.515 67.5655C101.197 67.7515 101.038 68.0515 101.038 68.4655C101.038 68.8795 101.206 69.1735 101.542 69.3475C101.884 69.5215 102.4 69.7135 103.09 69.9235C103.306 69.9835 103.555 70.0705 103.837 70.1845C104.125 70.2985 104.404 70.4515 104.674 70.6435C104.944 70.8355 105.166 71.0875 105.34 71.3995C105.52 71.7055 105.61 72.0895 105.61 72.5515C105.61 72.9415 105.517 73.3405 105.331 73.7485C105.145 74.1505 104.809 74.4895 104.323 74.7655C103.837 75.0415 103.144 75.1795 102.244 75.1795ZM107.807 74.9995V67.4395H106.277L106.493 66.1795H107.807V64.0915C107.807 63.3055 108.017 62.6785 108.437 62.2105C108.857 61.7365 109.475 61.4995 110.291 61.4995C110.591 61.4995 110.852 61.5205 111.074 61.5625C111.302 61.6045 111.509 61.6615 111.695 61.7335L111.443 63.1015C111.299 63.0475 111.158 63.0085 111.02 62.9845C110.882 62.9545 110.723 62.9395 110.543 62.9395C110.195 62.9395 109.922 63.0385 109.724 63.2365C109.526 63.4285 109.427 63.7495 109.427 64.1995V66.1795H111.803V67.4395H109.427V74.9995H107.807ZM113.154 74.9995V66.1795H114.774V74.9995H113.154ZM113.154 64.1995V62.3995H114.774V64.1995H113.154ZM121.198 75.1795C120.16 75.1795 119.287 74.9665 118.579 74.5405C117.871 74.1145 117.334 73.5505 116.968 72.8485C116.608 72.1405 116.428 71.3635 116.428 70.5175C116.428 69.6955 116.596 68.9425 116.932 68.2585C117.274 67.5745 117.766 67.0285 118.408 66.6205C119.056 66.2065 119.836 65.9995 120.748 65.9995C121.48 65.9995 122.131 66.1465 122.701 66.4405C123.277 66.7285 123.727 67.1515 124.051 67.7095C124.381 68.2615 124.546 68.9335 124.546 69.7255C124.546 69.8515 124.54 69.9895 124.528 70.1395C124.522 70.2835 124.504 70.4335 124.474 70.5895H118.084C118.162 71.4055 118.357 72.0415 118.669 72.4975C118.981 72.9535 119.374 73.2745 119.848 73.4605C120.322 73.6465 120.838 73.7395 121.396 73.7395C121.804 73.7395 122.23 73.6975 122.674 73.6135C123.118 73.5295 123.538 73.3975 123.934 73.2175L124.15 74.4955C123.808 74.6455 123.391 74.7985 122.899 74.9545C122.407 75.1045 121.84 75.1795 121.198 75.1795ZM118.228 69.4735H122.872C122.872 69.0595 122.794 68.6995 122.638 68.3935C122.482 68.0875 122.245 67.8535 121.927 67.6915C121.609 67.5235 121.204 67.4395 120.712 67.4395C119.992 67.4395 119.437 67.6195 119.047 67.9795C118.663 68.3335 118.39 68.8315 118.228 69.4735ZM129.671 75.1795C128.921 75.1795 128.243 74.9755 127.637 74.5675C127.031 74.1595 126.548 73.6105 126.188 72.9205C125.834 72.2305 125.657 71.4595 125.657 70.6075C125.657 69.7975 125.819 69.0415 126.143 68.3395C126.473 67.6375 126.938 67.0735 127.538 66.6475C128.138 66.2155 128.849 65.9995 129.671 65.9995C130.259 65.9995 130.826 66.1285 131.372 66.3865C131.924 66.6385 132.371 67.0615 132.713 67.6555L132.371 67.8895V61.4995H133.991V74.9995H132.551L132.245 73.1275L132.659 73.4155C132.401 73.9975 131.996 74.4385 131.444 74.7385C130.892 75.0325 130.301 75.1795 129.671 75.1795ZM129.959 73.7395C130.367 73.7395 130.769 73.6345 131.165 73.4245C131.567 73.2145 131.897 72.8815 132.155 72.4255C132.419 71.9635 132.551 71.3575 132.551 70.6075C132.551 69.9115 132.419 69.3295 132.155 68.8615C131.897 68.3875 131.567 68.0335 131.165 67.7995C130.769 67.5595 130.367 67.4395 129.959 67.4395C129.407 67.4395 128.933 67.5775 128.537 67.8535C128.141 68.1295 127.838 68.5075 127.628 68.9875C127.418 69.4615 127.313 70.0015 127.313 70.6075C127.313 71.1775 127.418 71.6995 127.628 72.1735C127.838 72.6475 128.141 73.0285 128.537 73.3165C128.933 73.5985 129.407 73.7395 129.959 73.7395ZM146.164 75.2515C144.94 75.2515 143.848 74.9845 142.888 74.4505C141.934 73.9105 141.181 73.1515 140.629 72.1735C140.083 71.1895 139.81 70.0315 139.81 68.6995C139.81 67.3675 140.086 66.2125 140.638 65.2345C141.196 64.2505 141.958 63.4915 142.924 62.9575C143.896 62.4175 145 62.1475 146.236 62.1475C146.878 62.1475 147.49 62.2165 148.072 62.3545C148.654 62.4925 149.164 62.6695 149.602 62.8855L149.422 64.4695C148.972 64.2535 148.477 64.0705 147.937 63.9205C147.397 63.7705 146.824 63.6955 146.218 63.6955C145.228 63.6955 144.397 63.9205 143.725 64.3705C143.053 64.8145 142.543 65.4145 142.195 66.1705C141.853 66.9265 141.682 67.7695 141.682 68.6995C141.682 69.6295 141.85 70.4725 142.186 71.2285C142.528 71.9845 143.032 72.5875 143.698 73.0375C144.37 73.4815 145.198 73.7035 146.182 73.7035C146.806 73.7035 147.382 73.6375 147.91 73.5055C148.444 73.3675 148.948 73.1815 149.422 72.9475L149.602 74.5315C149.152 74.7355 148.645 74.9065 148.081 75.0445C147.517 75.1825 146.878 75.2515 146.164 75.2515ZM153.566 75.1795C152.996 75.1795 152.543 75.0775 152.207 74.8735C151.877 74.6635 151.64 74.3965 151.496 74.0725C151.352 73.7485 151.28 73.4095 151.28 73.0555V61.4995H152.9V72.1195C152.9 72.6235 152.933 73.0015 152.999 73.2535C153.065 73.5055 153.197 73.6735 153.395 73.7575C153.599 73.8415 153.908 73.8835 154.322 73.8835L154.088 75.1795H153.566ZM155.552 74.9995V66.1795H157.172V74.9995H155.552ZM155.552 64.1995V62.3995H157.172V64.1995H155.552ZM163.597 75.1795C162.559 75.1795 161.686 74.9665 160.978 74.5405C160.27 74.1145 159.733 73.5505 159.367 72.8485C159.007 72.1405 158.827 71.3635 158.827 70.5175C158.827 69.6955 158.995 68.9425 159.331 68.2585C159.673 67.5745 160.165 67.0285 160.807 66.6205C161.455 66.2065 162.235 65.9995 163.147 65.9995C163.879 65.9995 164.53 66.1465 165.1 66.4405C165.676 66.7285 166.126 67.1515 166.45 67.7095C166.78 68.2615 166.945 68.9335 166.945 69.7255C166.945 69.8515 166.939 69.9895 166.927 70.1395C166.921 70.2835 166.903 70.4335 166.873 70.5895H160.483C160.561 71.4055 160.756 72.0415 161.068 72.4975C161.38 72.9535 161.773 73.2745 162.247 73.4605C162.721 73.6465 163.237 73.7395 163.795 73.7395C164.203 73.7395 164.629 73.6975 165.073 73.6135C165.517 73.5295 165.937 73.3975 166.333 73.2175L166.549 74.4955C166.207 74.6455 165.79 74.7985 165.298 74.9545C164.806 75.1045 164.239 75.1795 163.597 75.1795ZM160.627 69.4735H165.271C165.271 69.0595 165.193 68.6995 165.037 68.3935C164.881 68.0875 164.644 67.8535 164.326 67.6915C164.008 67.5235 163.603 67.4395 163.111 67.4395C162.391 67.4395 161.836 67.6195 161.446 67.9795C161.062 68.3335 160.789 68.8315 160.627 69.4735ZM168.577 74.9995V66.1795H169.837L170.161 67.8715L169.531 67.6015C170.125 66.9415 170.704 66.5095 171.268 66.3055C171.838 66.1015 172.393 65.9995 172.933 65.9995C174.223 65.9995 175.144 66.3715 175.696 67.1155C176.254 67.8595 176.533 68.8675 176.533 70.1395V74.9995H174.913V70.1395C174.913 69.2035 174.739 68.5195 174.391 68.0875C174.043 67.6555 173.449 67.4395 172.609 67.4395C172.015 67.4395 171.469 67.5715 170.971 67.8355C170.479 68.0935 170.155 68.5075 169.999 69.0775L170.197 68.0875V74.9995H168.577ZM181.534 75.1795C180.976 75.1795 180.529 75.0775 180.193 74.8735C179.857 74.6695 179.611 74.4085 179.455 74.0905C179.305 73.7665 179.23 73.4275 179.23 73.0735V67.4395H177.718L177.862 66.1795H179.23V64.0015L180.85 63.8395V66.1795H183.172V67.4395H180.85V72.0835C180.85 72.6475 180.883 73.0555 180.949 73.3075C181.015 73.5595 181.177 73.7185 181.435 73.7845C181.699 73.8505 182.122 73.8835 182.704 73.8835H183.118L182.992 75.1795H181.534ZM187.058 75.1795C186.278 75.1795 185.63 75.0865 185.114 74.9005C184.604 74.7145 184.244 74.5495 184.034 74.4055L184.232 72.8395C184.424 73.0075 184.763 73.1995 185.249 73.4155C185.735 73.6315 186.314 73.7395 186.986 73.7395C187.556 73.7395 187.991 73.6435 188.291 73.4515C188.597 73.2595 188.75 72.9895 188.75 72.6415C188.75 72.3355 188.651 72.0895 188.453 71.9035C188.261 71.7115 188.027 71.5615 187.751 71.4535C187.481 71.3395 187.226 71.2495 186.986 71.1835C186.584 71.0755 186.167 70.9405 185.735 70.7785C185.309 70.6105 184.949 70.3615 184.655 70.0315C184.361 69.7015 184.214 69.2395 184.214 68.6455C184.214 68.1955 184.322 67.7695 184.538 67.3675C184.754 66.9595 185.105 66.6295 185.591 66.3775C186.077 66.1255 186.722 65.9995 187.526 65.9995C188.114 65.9995 188.591 66.0625 188.957 66.1885C189.329 66.3085 189.65 66.4375 189.92 66.5755L189.722 68.0515C189.464 67.8355 189.164 67.6525 188.822 67.5025C188.48 67.3525 188.06 67.2775 187.562 67.2775C187.058 67.2775 186.647 67.3735 186.329 67.5655C186.011 67.7515 185.852 68.0515 185.852 68.4655C185.852 68.8795 186.02 69.1735 186.356 69.3475C186.698 69.5215 187.214 69.7135 187.904 69.9235C188.12 69.9835 188.369 70.0705 188.651 70.1845C188.939 70.2985 189.218 70.4515 189.488 70.6435C189.758 70.8355 189.98 71.0875 190.154 71.3995C190.334 71.7055 190.424 72.0895 190.424 72.5515C190.424 72.9415 190.331 73.3405 190.145 73.7485C189.959 74.1505 189.623 74.4895 189.137 74.7655C188.651 75.0415 187.958 75.1795 187.058 75.1795Z" fill="#595566"/>
<path d="M27.9809 51.0391C32.7187 51.0391 36.5595 47.1983 36.5595 42.4605C36.5595 37.7227 32.7187 33.882 27.9809 33.882C23.2431 33.882 19.4023 37.7227 19.4023 42.4605C19.4023 47.1983 23.2431 51.0391 27.9809 51.0391Z" stroke="#4EAF4E" stroke-width="2" stroke-linecap="round" stroke-linejoin="round"/>
<path d="M42.5645 37.3133C44.5627 37.3099 46.5341 37.7736 48.3214 38.6672C50.1087 39.5608 51.6625 40.8598 52.8587 42.4604" stroke="#4EAF4E" stroke-width="2" stroke-linecap="round" stroke-linejoin="round"/>
<path d="M3.10254 42.4604C4.29882 40.8598 5.85257 39.5608 7.63987 38.6672C9.42717 37.7736 11.3986 37.3099 13.3968 37.3133" stroke="#4EAF4E" stroke-width="2" stroke-linecap="round" stroke-linejoin="round"/>
<path d="M15.6279 58.7598C16.7578 56.4459 18.5148 54.4959 20.6988 53.1318C22.8828 51.7678 25.4061 51.0446 27.9811 51.0446C30.5561 51.0446 33.0793 51.7678 35.2633 53.1318C37.4473 54.4959 39.2044 56.4459 40.3342 58.7598" stroke="#4EAF4E" stroke-width="2" stroke-linecap="round" stroke-linejoin="round"/>
<path d="M13.3972 37.3132C12.0946 37.3146 10.8186 36.9452 9.71813 36.2482C8.61771 35.5512 7.73836 34.5555 7.18282 33.3774C6.62728 32.1992 6.4185 30.8873 6.58088 29.5949C6.74326 28.3025 7.27008 27.083 8.0998 26.0788C8.92951 25.0747 10.0279 24.3275 11.2665 23.9244C12.5051 23.5213 13.8329 23.479 15.0946 23.8025C16.3564 24.126 17.5 24.8019 18.3919 25.7513C19.2838 26.7006 19.8871 27.8841 20.1313 29.1636" stroke="#4EAF4E" stroke-width="2" stroke-linecap="round" stroke-linejoin="round"/>
<path d="M35.8301 29.1636C36.0743 27.8841 36.6776 26.7006 37.5695 25.7513C38.4614 24.8019 39.605 24.126 40.8668 23.8025C42.1285 23.479 43.4563 23.5213 44.6949 23.9244C45.9336 24.3275 47.0319 25.0747 47.8616 26.0788C48.6913 27.083 49.2182 28.3025 49.3805 29.5949C49.5429 30.8873 49.3341 32.1992 48.7786 33.3774C48.2231 34.5555 47.3437 35.5512 46.2433 36.2482C45.1429 36.9452 43.8668 37.3146 42.5643 37.3132" stroke="#4EAF4E" stroke-width="2" stroke-linecap="round" stroke-linejoin="round"/>
<line x1="277.28" y1="9.70459" x2="277.28" y2="69.2937" stroke="#989898" stroke-dasharray="2 2"/>
<path d="M429.691 46.9995V21.0495C429.041 21.4662 428.35 21.8328 427.616 22.1495C426.9 22.4662 426.125 22.6995 425.291 22.8495L424.741 17.4495C425.458 17.2995 426.258 16.9412 427.141 16.3745C428.025 15.8078 428.841 15.1412 429.591 14.3745C430.341 13.5912 430.875 12.7995 431.191 11.9995H436.091V46.9995H429.691ZM456.048 47.6995C453.515 47.6995 451.323 47.2495 449.473 46.3495C447.64 45.4328 446.223 44.1662 445.223 42.5495C444.24 40.9328 443.748 39.0662 443.748 36.9495C443.748 34.8495 444.265 33.0078 445.298 31.4245C446.332 29.8245 447.765 28.5828 449.598 27.6995C451.448 26.7995 453.598 26.3495 456.048 26.3495C458.498 26.3495 460.648 26.7995 462.498 27.6995C464.348 28.5828 465.782 29.8245 466.798 31.4245C467.832 33.0078 468.348 34.8495 468.348 36.9495C468.348 39.0662 467.848 40.9328 466.848 42.5495C465.848 44.1662 464.423 45.4328 462.573 46.3495C460.74 47.2495 458.565 47.6995 456.048 47.6995ZM456.048 42.1995C458.082 42.1995 459.657 41.6828 460.773 40.6495C461.89 39.6162 462.448 38.2495 462.448 36.5495C462.448 34.9495 461.89 33.6245 460.773 32.5745C459.657 31.5245 458.082 30.9995 456.048 30.9995C454.032 30.9995 452.457 31.5245 451.323 32.5745C450.207 33.6245 449.648 34.9495 449.648 36.5495C449.648 38.2495 450.207 39.6162 451.323 40.6495C452.457 41.6828 454.032 42.1995 456.048 42.1995ZM456.048 29.9995C454.065 29.9995 452.265 29.6078 450.648 28.8245C449.032 28.0412 447.74 26.9578 446.773 25.5745C445.823 24.1745 445.348 22.5662 445.348 20.7495C445.348 19.2162 445.707 17.7245 446.423 16.2745C447.157 14.8245 448.307 13.6328 449.873 12.6995C451.457 11.7662 453.515 11.2995 456.048 11.2995C458.582 11.2995 460.615 11.7662 462.148 12.6995C463.698 13.6328 464.815 14.8245 465.498 16.2745C466.198 17.7245 466.548 19.2162 466.548 20.7495C466.548 22.5662 466.115 24.1745 465.248 25.5745C464.398 26.9578 463.182 28.0412 461.598 28.8245C460.032 29.6078 458.182 29.9995 456.048 29.9995ZM456.048 25.3495C457.682 25.3495 458.907 24.9078 459.723 24.0245C460.54 23.1245 460.948 22.0495 460.948 20.7995C460.948 19.4662 460.54 18.3828 459.723 17.5495C458.907 16.7162 457.682 16.2995 456.048 16.2995C454.432 16.2995 453.173 16.7162 452.273 17.5495C451.39 18.3828 450.948 19.4662 450.948 20.7995C450.948 22.0495 451.39 23.1245 452.273 24.0245C453.173 24.9078 454.432 25.3495 456.048 25.3495ZM473.324 46.9995L482.524 32.8495C483.741 30.9828 484.716 29.4078 485.449 28.1245C486.199 26.8412 486.741 25.7162 487.074 24.7495C487.407 23.7828 487.574 22.8328 487.574 21.8995C487.574 20.4662 487.166 19.3412 486.349 18.5245C485.549 17.7078 484.424 17.2995 482.974 17.2995C481.224 17.2995 479.649 17.7328 478.249 18.5995C476.866 19.4662 475.624 20.4495 474.524 21.5495L473.724 15.0995C475.224 13.8995 476.816 12.9662 478.499 12.2995C480.199 11.6328 482.124 11.2995 484.274 11.2995C486.391 11.2995 488.149 11.7328 489.549 12.5995C490.966 13.4662 492.024 14.6162 492.724 16.0495C493.424 17.4828 493.774 19.0495 493.774 20.7495C493.774 22.0662 493.591 23.3912 493.224 24.7245C492.857 26.0412 492.249 27.5078 491.399 29.1245C490.566 30.7245 489.441 32.5995 488.024 34.7495L483.924 40.9995H495.024V46.9995H473.324Z" fill="#181818"/>
<path d="M423.931 74.9995V62.3995H431.617V63.9475H425.641V67.6375H430.393V69.1855H425.641V73.4515H431.779V74.9995H423.931ZM432.656 74.9995L435.734 70.6075L432.728 66.1795H434.546L436.76 69.6715L438.794 66.1795H440.684L437.786 70.4635L440.792 74.9995H438.974L436.742 71.5255L434.474 74.9995H432.656ZM442.081 79.3555V66.1795H443.341L443.629 68.1955L443.179 67.8715C443.551 67.2955 444.01 66.8395 444.556 66.5035C445.102 66.1675 445.771 65.9995 446.563 65.9995C447.367 65.9995 448.057 66.2035 448.633 66.6115C449.209 67.0195 449.65 67.5715 449.956 68.2675C450.262 68.9575 450.415 69.7315 450.415 70.5895C450.415 71.4475 450.271 72.2245 449.983 72.9205C449.695 73.6105 449.266 74.1595 448.696 74.5675C448.126 74.9755 447.415 75.1795 446.563 75.1795C445.861 75.1795 445.225 75.0355 444.655 74.7475C444.091 74.4535 443.683 74.0155 443.431 73.4335L443.701 73.1095V79.3555H442.081ZM446.257 73.7395C447.043 73.7395 447.655 73.4635 448.093 72.9115C448.537 72.3535 448.759 71.5795 448.759 70.5895C448.759 69.5995 448.537 68.8285 448.093 68.2765C447.655 67.7185 447.043 67.4395 446.257 67.4395C445.771 67.4395 445.327 67.5565 444.925 67.7905C444.529 68.0185 444.211 68.3665 443.971 68.8345C443.731 69.2965 443.611 69.8815 443.611 70.5895C443.611 71.3275 443.731 71.9275 443.971 72.3895C444.211 72.8515 444.529 73.1935 444.925 73.4155C445.327 73.6315 445.771 73.7395 446.257 73.7395ZM456.331 75.1795C455.293 75.1795 454.42 74.9665 453.712 74.5405C453.004 74.1145 452.467 73.5505 452.101 72.8485C451.741 72.1405 451.561 71.3635 451.561 70.5175C451.561 69.6955 451.729 68.9425 452.065 68.2585C452.407 67.5745 452.899 67.0285 453.541 66.6205C454.189 66.2065 454.969 65.9995 455.881 65.9995C456.613 65.9995 457.264 66.1465 457.834 66.4405C458.41 66.7285 458.86 67.1515 459.184 67.7095C459.514 68.2615 459.679 68.9335 459.679 69.7255C459.679 69.8515 459.673 69.9895 459.661 70.1395C459.655 70.2835 459.637 70.4335 459.607 70.5895H453.217C453.295 71.4055 453.49 72.0415 453.802 72.4975C454.114 72.9535 454.507 73.2745 454.981 73.4605C455.455 73.6465 455.971 73.7395 456.529 73.7395C456.937 73.7395 457.363 73.6975 457.807 73.6135C458.251 73.5295 458.671 73.3975 459.067 73.2175L459.283 74.4955C458.941 74.6455 458.524 74.7985 458.032 74.9545C457.54 75.1045 456.973 75.1795 456.331 75.1795ZM453.361 69.4735H458.005C458.005 69.0595 457.927 68.6995 457.771 68.3935C457.615 68.0875 457.378 67.8535 457.06 67.6915C456.742 67.5235 456.337 67.4395 455.845 67.4395C455.125 67.4395 454.57 67.6195 454.18 67.9795C453.796 68.3335 453.523 68.8315 453.361 69.4735ZM461.312 74.9995V66.1795H462.644L462.842 67.6375C463.292 67.0795 463.721 66.6685 464.129 66.4045C464.543 66.1345 464.984 65.9995 465.452 65.9995C465.602 65.9995 465.74 66.0175 465.866 66.0535L465.704 67.8355C465.626 67.8175 465.542 67.8055 465.452 67.7995C465.368 67.7875 465.272 67.7815 465.164 67.7815C464.696 67.7815 464.264 67.8865 463.868 68.0965C463.478 68.3005 463.202 68.5255 463.04 68.7715V74.9995H461.312ZM470.049 75.1795C469.491 75.1795 469.044 75.0775 468.708 74.8735C468.372 74.6695 468.126 74.4085 467.97 74.0905C467.82 73.7665 467.745 73.4275 467.745 73.0735V67.4395H466.233L466.377 66.1795H467.745V64.0015L469.365 63.8395V66.1795H471.687V67.4395H469.365V72.0835C469.365 72.6475 469.398 73.0555 469.464 73.3075C469.53 73.5595 469.692 73.7185 469.95 73.7845C470.214 73.8505 470.637 73.8835 471.219 73.8835H471.633L471.507 75.1795H470.049ZM479.959 74.9995V63.9475H476.287V62.3995H485.341V63.9475H481.669V74.9995H479.959ZM489.518 75.1795C488.48 75.1795 487.607 74.9665 486.899 74.5405C486.191 74.1145 485.654 73.5505 485.288 72.8485C484.928 72.1405 484.748 71.3635 484.748 70.5175C484.748 69.6955 484.916 68.9425 485.252 68.2585C485.594 67.5745 486.086 67.0285 486.728 66.6205C487.376 66.2065 488.156 65.9995 489.068 65.9995C489.8 65.9995 490.451 66.1465 491.021 66.4405C491.597 66.7285 492.047 67.1515 492.371 67.7095C492.701 68.2615 492.866 68.9335 492.866 69.7255C492.866 69.8515 492.86 69.9895 492.848 70.1395C492.842 70.2835 492.824 70.4335 492.794 70.5895H486.404C486.482 71.4055 486.677 72.0415 486.989 72.4975C487.301 72.9535 487.694 73.2745 488.168 73.4605C488.642 73.6465 489.158 73.7395 489.716 73.7395C490.124 73.7395 490.55 73.6975 490.994 73.6135C491.438 73.5295 491.858 73.3975 492.254 73.2175L492.47 74.4955C492.128 74.6455 491.711 74.7985 491.219 74.9545C490.727 75.1045 490.16 75.1795 489.518 75.1795ZM486.548 69.4735H491.192C491.192 69.0595 491.114 68.6995 490.958 68.3935C490.802 68.0875 490.565 67.8535 490.247 67.6915C489.929 67.5235 489.524 67.4395 489.032 67.4395C488.312 67.4395 487.757 67.6195 487.367 67.9795C486.983 68.3335 486.71 68.8315 486.548 69.4735ZM496.551 75.1795C496.005 75.1795 495.528 75.0685 495.12 74.8465C494.712 74.6245 494.394 74.3215 494.166 73.9375C493.944 73.5535 493.833 73.1155 493.833 72.6235C493.833 72.1255 493.941 71.6995 494.157 71.3455C494.379 70.9855 494.673 70.6885 495.039 70.4545C495.411 70.2145 495.825 70.0255 496.281 69.8875C496.737 69.7435 497.208 69.6415 497.694 69.5815C498.186 69.5155 498.657 69.4795 499.107 69.4735C499.107 68.6335 498.942 68.0845 498.612 67.8265C498.282 67.5685 497.805 67.4395 497.181 67.4395C496.851 67.4395 496.497 67.4905 496.119 67.5925C495.747 67.6945 495.327 67.9075 494.859 68.2315L494.625 66.9175C494.979 66.6475 495.42 66.4285 495.948 66.2605C496.476 66.0865 497.031 65.9995 497.613 65.9995C498.357 65.9995 498.957 66.1315 499.413 66.3955C499.869 66.6535 500.202 67.0915 500.412 67.7095C500.622 68.3275 500.727 69.1675 500.727 70.2295V72.0295C500.727 72.4495 500.745 72.7975 500.781 73.0735C500.823 73.3435 500.913 73.5475 501.051 73.6855C501.195 73.8175 501.423 73.8835 501.735 73.8835H501.897L501.645 75.1795H501.519C500.997 75.1795 500.592 75.1285 500.304 75.0265C500.022 74.9245 499.806 74.7775 499.656 74.5855C499.506 74.3935 499.371 74.1595 499.251 73.8835C498.921 74.2675 498.531 74.5795 498.081 74.8195C497.631 75.0595 497.121 75.1795 496.551 75.1795ZM496.857 73.8835C497.289 73.8835 497.706 73.7755 498.108 73.5595C498.516 73.3435 498.849 73.0555 499.107 72.6955V70.5895C498.249 70.6195 497.553 70.7035 497.019 70.8415C496.491 70.9795 496.104 71.1865 495.858 71.4625C495.612 71.7385 495.489 72.0955 495.489 72.5335C495.489 73.0075 495.615 73.3525 495.867 73.5685C496.125 73.7785 496.455 73.8835 496.857 73.8835ZM503.148 74.9995V66.1795H504.408L504.732 67.8715L504.12 67.5835C504.672 66.9895 505.209 66.5785 505.731 66.3505C506.253 66.1165 506.802 65.9995 507.378 65.9995C507.81 65.9995 508.224 66.0715 508.62 66.2155C509.022 66.3535 509.382 66.5995 509.7 66.9535C510.024 67.3015 510.282 67.7875 510.474 68.4115L510.024 68.2135C510.288 67.5295 510.693 66.9895 511.239 66.5935C511.785 66.1975 512.52 65.9995 513.444 65.9995C514.182 65.9995 514.803 66.1375 515.307 66.4135C515.811 66.6835 516.189 67.1005 516.441 67.6645C516.699 68.2225 516.828 68.9335 516.828 69.7975V74.9995H515.208V69.8155C515.208 68.9875 515.046 68.3845 514.722 68.0065C514.398 67.6285 513.87 67.4395 513.138 67.4395C512.622 67.4395 512.208 67.5205 511.896 67.6825C511.584 67.8385 511.347 68.0425 511.185 68.2945C511.029 68.5465 510.924 68.8135 510.87 69.0955C510.822 69.3775 510.798 69.6415 510.798 69.8875V74.9995H509.178V70.1395C509.178 69.4195 509.091 68.8645 508.917 68.4745C508.743 68.0845 508.5 67.8145 508.188 67.6645C507.876 67.5145 507.516 67.4395 507.108 67.4395C506.514 67.4395 505.983 67.5715 505.515 67.8355C505.047 68.0935 504.732 68.5075 504.57 69.0775L504.768 68.1955V74.9995H503.148Z" fill="#595566"/>
<path d="M365.604 58.3406C369.762 58.3406 373.133 54.9695 373.133 50.811C373.133 46.6526 369.762 43.2815 365.604 43.2815C361.445 43.2815 358.074 46.6526 358.074 50.811C358.074 54.9695 361.445 58.3406 365.604 58.3406Z" stroke="#4EAF4E" stroke-width="2" stroke-linecap="round" stroke-linejoin="round"/>
<path d="M354.31 63.9877C355.625 62.2343 357.33 60.8112 359.29 59.831C361.251 58.8509 363.412 58.3406 365.604 58.3406C367.796 58.3406 369.957 58.8509 371.918 59.831C373.878 60.8112 375.583 62.2343 376.898 63.9877" stroke="#4EAF4E" stroke-width="2" stroke-linecap="round" stroke-linejoin="round"/>
<path d="M365.604 33.8696C369.762 33.8696 373.133 30.4985 373.133 26.3401C373.133 22.1816 369.762 18.8105 365.604 18.8105C361.445 18.8105 358.074 22.1816 358.074 26.3401C358.074 30.4985 361.445 33.8696 365.604 33.8696Z" stroke="#4EAF4E" stroke-width="2" stroke-linecap="round" stroke-linejoin="round"/>
<path d="M354.31 39.5168C355.625 37.7634 357.33 36.3403 359.29 35.3601C361.251 34.3799 363.412 33.8696 365.604 33.8696C367.796 33.8696 369.957 34.3799 371.918 35.3601C373.878 36.3403 375.583 37.7634 376.898 39.5168" stroke="#4EAF4E" stroke-width="2" stroke-linecap="round" stroke-linejoin="round"/>
<path d="M388.193 58.3406C392.351 58.3406 395.722 54.9695 395.722 50.811C395.722 46.6526 392.351 43.2815 388.193 43.2815C384.034 43.2815 380.663 46.6526 380.663 50.811C380.663 54.9695 384.034 58.3406 388.193 58.3406Z" stroke="#4EAF4E" stroke-width="2" stroke-linecap="round" stroke-linejoin="round"/>
<path d="M376.898 63.9877C378.213 62.2343 379.919 60.8112 381.879 59.831C383.839 58.8509 386.001 58.3406 388.193 58.3406C390.384 58.3406 392.546 58.8509 394.506 59.831C396.467 60.8112 398.172 62.2343 399.487 63.9877" stroke="#4EAF4E" stroke-width="2" stroke-linecap="round" stroke-linejoin="round"/>
<path d="M388.193 33.8696C392.351 33.8696 395.722 30.4985 395.722 26.3401C395.722 22.1816 392.351 18.8105 388.193 18.8105C384.034 18.8105 380.663 22.1816 380.663 26.3401C380.663 30.4985 384.034 33.8696 388.193 33.8696Z" stroke="#4EAF4E" stroke-width="2" stroke-linecap="round" stroke-linejoin="round"/>
<path d="M376.898 39.5168C378.213 37.7634 379.919 36.3403 381.879 35.3601C383.839 34.3799 386.001 33.8696 388.193 33.8696C390.384 33.8696 392.546 34.3799 394.506 35.3601C396.467 36.3403 398.172 37.7634 399.487 39.5168" stroke="#4EAF4E" stroke-width="2" stroke-linecap="round" stroke-linejoin="round"/>
<line x1="588.991" y1="9.70459" x2="588.991" y2="69.2937" stroke="#989898" stroke-dasharray="2 2"/>
<path d="M730.919 46.9995L740.119 32.8495C741.335 30.9828 742.31 29.4078 743.044 28.1245C743.794 26.8412 744.335 25.7162 744.669 24.7495C745.002 23.7828 745.169 22.8328 745.169 21.8995C745.169 20.4662 744.76 19.3412 743.944 18.5245C743.144 17.7078 742.019 17.2995 740.569 17.2995C738.819 17.2995 737.244 17.7328 735.844 18.5995C734.46 19.4662 733.219 20.4495 732.119 21.5495L731.319 15.0995C732.819 13.8995 734.41 12.9662 736.094 12.2995C737.794 11.6328 739.719 11.2995 741.869 11.2995C743.985 11.2995 745.744 11.7328 747.144 12.5995C748.56 13.4662 749.619 14.6162 750.319 16.0495C751.019 17.4828 751.369 19.0495 751.369 20.7495C751.369 22.0662 751.185 23.3912 750.819 24.7245C750.452 26.0412 749.844 27.5078 748.994 29.1245C748.16 30.7245 747.035 32.5995 745.619 34.7495L741.519 40.9995H752.619V46.9995H730.919ZM770.284 47.6995C767.75 47.6995 765.559 47.2495 763.709 46.3495C761.875 45.4328 760.459 44.1662 759.459 42.5495C758.475 40.9328 757.984 39.0662 757.984 36.9495C757.984 34.8495 758.5 33.0078 759.534 31.4245C760.567 29.8245 762 28.5828 763.834 27.6995C765.684 26.7995 767.834 26.3495 770.284 26.3495C772.734 26.3495 774.884 26.7995 776.734 27.6995C778.584 28.5828 780.017 29.8245 781.034 31.4245C782.067 33.0078 782.584 34.8495 782.584 36.9495C782.584 39.0662 782.084 40.9328 781.084 42.5495C780.084 44.1662 778.659 45.4328 776.809 46.3495C774.975 47.2495 772.8 47.6995 770.284 47.6995ZM770.284 42.1995C772.317 42.1995 773.892 41.6828 775.009 40.6495C776.125 39.6162 776.684 38.2495 776.684 36.5495C776.684 34.9495 776.125 33.6245 775.009 32.5745C773.892 31.5245 772.317 30.9995 770.284 30.9995C768.267 30.9995 766.692 31.5245 765.559 32.5745C764.442 33.6245 763.884 34.9495 763.884 36.5495C763.884 38.2495 764.442 39.6162 765.559 40.6495C766.692 41.6828 768.267 42.1995 770.284 42.1995ZM770.284 29.9995C768.3 29.9995 766.5 29.6078 764.884 28.8245C763.267 28.0412 761.975 26.9578 761.009 25.5745C760.059 24.1745 759.584 22.5662 759.584 20.7495C759.584 19.2162 759.942 17.7245 760.659 16.2745C761.392 14.8245 762.542 13.6328 764.109 12.6995C765.692 11.7662 767.75 11.2995 770.284 11.2995C772.817 11.2995 774.85 11.7662 776.384 12.6995C777.934 13.6328 779.05 14.8245 779.734 16.2745C780.434 17.7245 780.784 19.2162 780.784 20.7495C780.784 22.5662 780.35 24.1745 779.484 25.5745C778.634 26.9578 777.417 28.0412 775.834 28.8245C774.267 29.6078 772.417 29.9995 770.284 29.9995ZM770.284 25.3495C771.917 25.3495 773.142 24.9078 773.959 24.0245C774.775 23.1245 775.184 22.0495 775.184 20.7995C775.184 19.4662 774.775 18.3828 773.959 17.5495C773.142 16.7162 771.917 16.2995 770.284 16.2995C768.667 16.2995 767.409 16.7162 766.509 17.5495C765.625 18.3828 765.184 19.4662 765.184 20.7995C765.184 22.0495 765.625 23.1245 766.509 24.0245C767.409 24.9078 768.667 25.3495 770.284 25.3495ZM797.409 47.6495C795.493 47.6495 793.734 47.3995 792.134 46.8995C790.534 46.3995 789.093 45.7162 787.809 44.8495L789.309 39.0495C790.543 39.8162 791.793 40.4412 793.059 40.9245C794.343 41.4078 795.759 41.6495 797.309 41.6495C799.209 41.6495 800.718 41.1495 801.834 40.1495C802.951 39.1495 803.509 37.7995 803.509 36.0995C803.509 34.2662 802.876 32.8328 801.609 31.7995C800.343 30.7662 798.509 30.2495 796.109 30.2495C795.009 30.2495 793.909 30.3162 792.809 30.4495C791.726 30.5828 790.643 30.7495 789.559 30.9495L791.809 11.9995H808.309L807.909 18.1995H796.609L795.409 27.8995L793.009 25.6995C793.809 25.4662 794.643 25.2912 795.509 25.1745C796.393 25.0578 797.343 24.9995 798.359 24.9995C800.593 24.9995 802.559 25.4412 804.259 26.3245C805.976 27.1912 807.309 28.4578 808.259 30.1245C809.226 31.7745 809.709 33.7662 809.709 36.0995C809.709 38.4995 809.176 40.5662 808.109 42.2995C807.059 44.0162 805.609 45.3412 803.759 46.2745C801.909 47.1912 799.793 47.6495 797.409 47.6495Z" fill="#181818"/>
<path d="M736.963 71.5975H731.563V70.0495H736.963V71.5975ZM734.011 64.0735H734.515L730.645 74.9995H728.845L733.363 62.3995H735.163L739.681 74.9995H737.881L734.011 64.0735ZM744.765 75.1795C743.769 75.1795 742.932 74.9785 742.254 74.5765C741.582 74.1685 741.072 73.6225 740.724 72.9385C740.382 72.2485 740.211 71.4835 740.211 70.6435C740.211 69.7675 740.376 68.9785 740.706 68.2765C741.042 67.5745 741.555 67.0195 742.245 66.6115C742.935 66.2035 743.817 65.9995 744.891 65.9995C745.353 65.9995 745.788 66.0475 746.196 66.1435C746.61 66.2335 746.979 66.3595 747.303 66.5215L747.051 67.9435C746.721 67.7875 746.37 67.6645 745.998 67.5745C745.632 67.4845 745.251 67.4395 744.855 67.4395C743.883 67.4395 743.142 67.7155 742.632 68.2675C742.122 68.8195 741.867 69.5875 741.867 70.5715C741.867 71.5315 742.11 72.3025 742.596 72.8845C743.082 73.4665 743.823 73.7575 744.819 73.7575C745.227 73.7575 745.617 73.7095 745.989 73.6135C746.367 73.5175 746.727 73.3855 747.069 73.2175L747.285 74.5135C747.045 74.6815 746.694 74.8345 746.232 74.9725C745.77 75.1105 745.281 75.1795 744.765 75.1795ZM751.931 75.1795C751.373 75.1795 750.926 75.0775 750.59 74.8735C750.254 74.6695 750.008 74.4085 749.852 74.0905C749.702 73.7665 749.627 73.4275 749.627 73.0735V67.4395H748.115L748.259 66.1795H749.627V64.0015L751.247 63.8395V66.1795H753.569V67.4395H751.247V72.0835C751.247 72.6475 751.28 73.0555 751.346 73.3075C751.412 73.5595 751.574 73.7185 751.832 73.7845C752.096 73.8505 752.519 73.8835 753.101 73.8835H753.515L753.389 75.1795H751.931ZM754.953 74.9995V66.1795H756.573V74.9995H754.953ZM754.953 64.1995V62.3995H756.573V64.1995H754.953ZM761.198 74.9995L757.832 66.1795H759.632L762.098 73.2175L764.546 66.1795H766.364L763.016 74.9995H761.198ZM769.574 75.1795C769.028 75.1795 768.551 75.0685 768.143 74.8465C767.735 74.6245 767.417 74.3215 767.189 73.9375C766.967 73.5535 766.856 73.1155 766.856 72.6235C766.856 72.1255 766.964 71.6995 767.18 71.3455C767.402 70.9855 767.696 70.6885 768.062 70.4545C768.434 70.2145 768.848 70.0255 769.304 69.8875C769.76 69.7435 770.231 69.6415 770.717 69.5815C771.209 69.5155 771.68 69.4795 772.13 69.4735C772.13 68.6335 771.965 68.0845 771.635 67.8265C771.305 67.5685 770.828 67.4395 770.204 67.4395C769.874 67.4395 769.52 67.4905 769.142 67.5925C768.77 67.6945 768.35 67.9075 767.882 68.2315L767.648 66.9175C768.002 66.6475 768.443 66.4285 768.971 66.2605C769.499 66.0865 770.054 65.9995 770.636 65.9995C771.38 65.9995 771.98 66.1315 772.436 66.3955C772.892 66.6535 773.225 67.0915 773.435 67.7095C773.645 68.3275 773.75 69.1675 773.75 70.2295V72.0295C773.75 72.4495 773.768 72.7975 773.804 73.0735C773.846 73.3435 773.936 73.5475 774.074 73.6855C774.218 73.8175 774.446 73.8835 774.758 73.8835H774.92L774.668 75.1795H774.542C774.02 75.1795 773.615 75.1285 773.327 75.0265C773.045 74.9245 772.829 74.7775 772.679 74.5855C772.529 74.3935 772.394 74.1595 772.274 73.8835C771.944 74.2675 771.554 74.5795 771.104 74.8195C770.654 75.0595 770.144 75.1795 769.574 75.1795ZM769.88 73.8835C770.312 73.8835 770.729 73.7755 771.131 73.5595C771.539 73.3435 771.872 73.0555 772.13 72.6955V70.5895C771.272 70.6195 770.576 70.7035 770.042 70.8415C769.514 70.9795 769.127 71.1865 768.881 71.4625C768.635 71.7385 768.512 72.0955 768.512 72.5335C768.512 73.0075 768.638 73.3525 768.89 73.5685C769.148 73.7785 769.478 73.8835 769.88 73.8835ZM779.036 75.1795C778.478 75.1795 778.031 75.0775 777.695 74.8735C777.359 74.6695 777.113 74.4085 776.957 74.0905C776.807 73.7665 776.732 73.4275 776.732 73.0735V67.4395H775.22L775.364 66.1795H776.732V64.0015L778.352 63.8395V66.1795H780.674V67.4395H778.352V72.0835C778.352 72.6475 778.385 73.0555 778.451 73.3075C778.517 73.5595 778.679 73.7185 778.937 73.7845C779.201 73.8505 779.624 73.8835 780.206 73.8835H780.62L780.494 75.1795H779.036ZM786.219 75.1795C785.181 75.1795 784.308 74.9665 783.6 74.5405C782.892 74.1145 782.355 73.5505 781.989 72.8485C781.629 72.1405 781.449 71.3635 781.449 70.5175C781.449 69.6955 781.617 68.9425 781.953 68.2585C782.295 67.5745 782.787 67.0285 783.429 66.6205C784.077 66.2065 784.857 65.9995 785.769 65.9995C786.501 65.9995 787.152 66.1465 787.722 66.4405C788.298 66.7285 788.748 67.1515 789.072 67.7095C789.402 68.2615 789.567 68.9335 789.567 69.7255C789.567 69.8515 789.561 69.9895 789.549 70.1395C789.543 70.2835 789.525 70.4335 789.495 70.5895H783.105C783.183 71.4055 783.378 72.0415 783.69 72.4975C784.002 72.9535 784.395 73.2745 784.869 73.4605C785.343 73.6465 785.859 73.7395 786.417 73.7395C786.825 73.7395 787.251 73.6975 787.695 73.6135C788.139 73.5295 788.559 73.3975 788.955 73.2175L789.171 74.4955C788.829 74.6455 788.412 74.7985 787.92 74.9545C787.428 75.1045 786.861 75.1795 786.219 75.1795ZM783.249 69.4735H787.893C787.893 69.0595 787.815 68.6995 787.659 68.3935C787.503 68.0875 787.266 67.8535 786.948 67.6915C786.63 67.5235 786.225 67.4395 785.733 67.4395C785.013 67.4395 784.458 67.6195 784.068 67.9795C783.684 68.3335 783.411 68.8315 783.249 69.4735ZM795.585 74.9995V62.3995H799.743C800.589 62.3995 801.333 62.5345 801.975 62.8045C802.617 63.0745 803.115 63.5095 803.469 64.1095C803.829 64.7095 804.009 65.5015 804.009 66.4855C804.009 67.4515 803.829 68.2375 803.469 68.8435C803.115 69.4435 802.617 69.8845 801.975 70.1665C801.333 70.4485 800.589 70.5895 799.743 70.5895H797.385V74.9995H795.585ZM797.385 69.0595H799.491C800.409 69.0595 801.096 68.8525 801.552 68.4385C802.014 68.0185 802.245 67.3735 802.245 66.5035C802.245 65.6275 802.026 64.9795 801.588 64.5595C801.156 64.1395 800.457 63.9295 799.491 63.9295H797.385V69.0595ZM805.403 74.9995V66.1795H806.735L806.933 67.6375C807.383 67.0795 807.812 66.6685 808.22 66.4045C808.634 66.1345 809.075 65.9995 809.543 65.9995C809.693 65.9995 809.831 66.0175 809.957 66.0535L809.795 67.8355C809.717 67.8175 809.633 67.8055 809.543 67.7995C809.459 67.7875 809.363 67.7815 809.255 67.7815C808.787 67.7815 808.355 67.8865 807.959 68.0965C807.569 68.3005 807.293 68.5255 807.131 68.7715V74.9995H805.403ZM814.721 75.1795C813.797 75.1795 813.008 74.9755 812.354 74.5675C811.706 74.1535 811.208 73.6015 810.86 72.9115C810.518 72.2155 810.347 71.4415 810.347 70.5895C810.347 69.7375 810.518 68.9665 810.86 68.2765C811.208 67.5805 811.706 67.0285 812.354 66.6205C813.008 66.2065 813.797 65.9995 814.721 65.9995C815.639 65.9995 816.425 66.2065 817.079 66.6205C817.733 67.0285 818.231 67.5805 818.573 68.2765C818.921 68.9665 819.095 69.7375 819.095 70.5895C819.095 71.4415 818.921 72.2155 818.573 72.9115C818.231 73.6015 817.733 74.1535 817.079 74.5675C816.425 74.9755 815.639 75.1795 814.721 75.1795ZM814.721 73.7395C815.597 73.7395 816.269 73.4635 816.737 72.9115C817.205 72.3535 817.439 71.5795 817.439 70.5895C817.439 69.5995 817.205 68.8285 816.737 68.2765C816.269 67.7185 815.597 67.4395 814.721 67.4395C813.851 67.4395 813.179 67.7185 812.705 68.2765C812.237 68.8285 812.003 69.5995 812.003 70.5895C812.003 71.5795 812.237 72.3535 812.705 72.9115C813.179 73.4635 813.851 73.7395 814.721 73.7395ZM824.258 75.1795C823.508 75.1795 822.83 74.9755 822.224 74.5675C821.618 74.1595 821.135 73.6105 820.775 72.9205C820.421 72.2305 820.244 71.4595 820.244 70.6075C820.244 69.7975 820.406 69.0415 820.73 68.3395C821.06 67.6375 821.525 67.0735 822.125 66.6475C822.725 66.2155 823.436 65.9995 824.258 65.9995C824.846 65.9995 825.413 66.1285 825.959 66.3865C826.511 66.6385 826.958 67.0615 827.3 67.6555L826.958 67.8895V61.4995H828.578V74.9995H827.138L826.832 73.1275L827.246 73.4155C826.988 73.9975 826.583 74.4385 826.031 74.7385C825.479 75.0325 824.888 75.1795 824.258 75.1795ZM824.546 73.7395C824.954 73.7395 825.356 73.6345 825.752 73.4245C826.154 73.2145 826.484 72.8815 826.742 72.4255C827.006 71.9635 827.138 71.3575 827.138 70.6075C827.138 69.9115 827.006 69.3295 826.742 68.8615C826.484 68.3875 826.154 68.0335 825.752 67.7995C825.356 67.5595 824.954 67.4395 824.546 67.4395C823.994 67.4395 823.52 67.5775 823.124 67.8535C822.728 68.1295 822.425 68.5075 822.215 68.9875C822.005 69.4615 821.9 70.0015 821.9 70.6075C821.9 71.1775 822.005 71.6995 822.215 72.1735C822.425 72.6475 822.728 73.0285 823.124 73.3165C823.52 73.5985 823.994 73.7395 824.546 73.7395ZM833.918 75.1795C833.228 75.1795 832.64 75.0415 832.154 74.7655C831.668 74.4835 831.296 74.0575 831.038 73.4875C830.786 72.9175 830.66 72.1915 830.66 71.3095V66.1795H832.28V70.8595C832.28 71.7955 832.439 72.5095 832.757 73.0015C833.081 73.4935 833.606 73.7395 834.332 73.7395C834.83 73.7395 835.292 73.6195 835.718 73.3795C836.144 73.1395 836.438 72.7555 836.6 72.2275L836.366 73.1095V66.1795H837.986V74.9995H836.546L836.222 73.2715L836.654 73.5595C836.36 74.1055 836 74.5135 835.574 74.7835C835.154 75.0475 834.602 75.1795 833.918 75.1795ZM844.24 75.1795C843.244 75.1795 842.407 74.9785 841.729 74.5765C841.057 74.1685 840.547 73.6225 840.199 72.9385C839.857 72.2485 839.686 71.4835 839.686 70.6435C839.686 69.7675 839.851 68.9785 840.181 68.2765C840.517 67.5745 841.03 67.0195 841.72 66.6115C842.41 66.2035 843.292 65.9995 844.366 65.9995C844.828 65.9995 845.263 66.0475 845.671 66.1435C846.085 66.2335 846.454 66.3595 846.778 66.5215L846.526 67.9435C846.196 67.7875 845.845 67.6645 845.473 67.5745C845.107 67.4845 844.726 67.4395 844.33 67.4395C843.358 67.4395 842.617 67.7155 842.107 68.2675C841.597 68.8195 841.342 69.5875 841.342 70.5715C841.342 71.5315 841.585 72.3025 842.071 72.8845C842.557 73.4665 843.298 73.7575 844.294 73.7575C844.702 73.7575 845.092 73.7095 845.464 73.6135C845.842 73.5175 846.202 73.3855 846.544 73.2175L846.76 74.5135C846.52 74.6815 846.169 74.8345 845.707 74.9725C845.245 75.1105 844.756 75.1795 844.24 75.1795ZM851.406 75.1795C850.848 75.1795 850.401 75.0775 850.065 74.8735C849.729 74.6695 849.483 74.4085 849.327 74.0905C849.177 73.7665 849.102 73.4275 849.102 73.0735V67.4395H847.59L847.734 66.1795H849.102V64.0015L850.722 63.8395V66.1795H853.044V67.4395H850.722V72.0835C850.722 72.6475 850.755 73.0555 850.821 73.3075C850.887 73.5595 851.049 73.7185 851.307 73.7845C851.571 73.8505 851.994 73.8835 852.576 73.8835H852.99L852.864 75.1795H851.406ZM856.93 75.1795C856.15 75.1795 855.502 75.0865 854.986 74.9005C854.476 74.7145 854.116 74.5495 853.906 74.4055L854.104 72.8395C854.296 73.0075 854.635 73.1995 855.121 73.4155C855.607 73.6315 856.186 73.7395 856.858 73.7395C857.428 73.7395 857.863 73.6435 858.163 73.4515C858.469 73.2595 858.622 72.9895 858.622 72.6415C858.622 72.3355 858.523 72.0895 858.325 71.9035C858.133 71.7115 857.899 71.5615 857.623 71.4535C857.353 71.3395 857.098 71.2495 856.858 71.1835C856.456 71.0755 856.039 70.9405 855.607 70.7785C855.181 70.6105 854.821 70.3615 854.527 70.0315C854.233 69.7015 854.086 69.2395 854.086 68.6455C854.086 68.1955 854.194 67.7695 854.41 67.3675C854.626 66.9595 854.977 66.6295 855.463 66.3775C855.949 66.1255 856.594 65.9995 857.398 65.9995C857.986 65.9995 858.463 66.0625 858.829 66.1885C859.201 66.3085 859.522 66.4375 859.792 66.5755L859.594 68.0515C859.336 67.8355 859.036 67.6525 858.694 67.5025C858.352 67.3525 857.932 67.2775 857.434 67.2775C856.93 67.2775 856.519 67.3735 856.201 67.5655C855.883 67.7515 855.724 68.0515 855.724 68.4655C855.724 68.8795 855.892 69.1735 856.228 69.3475C856.57 69.5215 857.086 69.7135 857.776 69.9235C857.992 69.9835 858.241 70.0705 858.523 70.1845C858.811 70.2985 859.09 70.4515 859.36 70.6435C859.63 70.8355 859.852 71.0875 860.026 71.3995C860.206 71.7055 860.296 72.0895 860.296 72.5515C860.296 72.9415 860.203 73.3405 860.017 73.7485C859.831 74.1505 859.495 74.4895 859.009 74.7655C858.523 75.0415 857.83 75.1795 856.93 75.1795Z" fill="#595566"/>
<path d="M707.027 52.9886V31.624C707.026 31.3154 706.943 31.0127 706.787 30.7464C706.631 30.4801 706.407 30.2596 706.139 30.1072L687.071 19.3816C686.814 19.2332 686.523 19.1552 686.226 19.1552C685.929 19.1552 685.638 19.2332 685.381 19.3816L666.313 30.1072C666.045 30.2596 665.821 30.4801 665.665 30.7464C665.509 31.0127 665.426 31.3154 665.425 31.624V52.9886C665.426 53.2972 665.509 53.5999 665.665 53.8662C665.821 54.1325 666.045 54.3529 666.313 54.5053L685.381 65.231C685.638 65.3793 685.929 65.4574 686.226 65.4574C686.523 65.4574 686.814 65.3793 687.071 65.231L706.139 54.5053C706.407 54.3529 706.631 54.1325 706.787 53.8662C706.943 53.5999 707.026 53.2972 707.027 52.9886V52.9886Z" stroke="#4EAF4E" stroke-width="2" stroke-linecap="round" stroke-linejoin="round"/>
<path d="M696.844 47.6149V36.3476L675.826 24.7552" stroke="#4EAF4E" stroke-width="2" stroke-linecap="round" stroke-linejoin="round"/>
<path d="M706.789 30.7356L686.421 42.3063L665.663 30.7356" stroke="#4EAF4E" stroke-width="2" stroke-linecap="round" stroke-linejoin="round"/>
<path d="M686.422 42.3063L686.227 65.4477" stroke="#4EAF4E" stroke-width="2" stroke-linecap="round" stroke-linejoin="round"/>
<line x1="932.219" y1="9.70459" x2="932.219" y2="69.2937" stroke="#989898" stroke-dasharray="2 2"/>
<path d="M1077.92 46.9995L1087.12 32.8495C1088.34 30.9828 1089.32 29.4078 1090.05 28.1245C1090.8 26.8412 1091.34 25.7162 1091.67 24.7495C1092.01 23.7828 1092.17 22.8328 1092.17 21.8995C1092.17 20.4662 1091.77 19.3412 1090.95 18.5245C1090.15 17.7078 1089.02 17.2995 1087.57 17.2995C1085.82 17.2995 1084.25 17.7328 1082.85 18.5995C1081.47 19.4662 1080.22 20.4495 1079.12 21.5495L1078.32 15.0995C1079.82 13.8995 1081.42 12.9662 1083.1 12.2995C1084.8 11.6328 1086.72 11.2995 1088.87 11.2995C1090.99 11.2995 1092.75 11.7328 1094.15 12.5995C1095.57 13.4662 1096.62 14.6162 1097.32 16.0495C1098.02 17.4828 1098.37 19.0495 1098.37 20.7495C1098.37 22.0662 1098.19 23.3912 1097.82 24.7245C1097.46 26.0412 1096.85 27.5078 1096 29.1245C1095.17 30.7245 1094.04 32.5995 1092.62 34.7495L1088.52 40.9995H1099.62V46.9995H1077.92ZM1117.29 47.6995C1114.76 47.6995 1112.56 47.2495 1110.71 46.3495C1108.88 45.4328 1107.46 44.1662 1106.46 42.5495C1105.48 40.9328 1104.99 39.0662 1104.99 36.9495C1104.99 34.8495 1105.51 33.0078 1106.54 31.4245C1107.57 29.8245 1109.01 28.5828 1110.84 27.6995C1112.69 26.7995 1114.84 26.3495 1117.29 26.3495C1119.74 26.3495 1121.89 26.7995 1123.74 27.6995C1125.59 28.5828 1127.02 29.8245 1128.04 31.4245C1129.07 33.0078 1129.59 34.8495 1129.59 36.9495C1129.59 39.0662 1129.09 40.9328 1128.09 42.5495C1127.09 44.1662 1125.66 45.4328 1123.81 46.3495C1121.98 47.2495 1119.81 47.6995 1117.29 47.6995ZM1117.29 42.1995C1119.32 42.1995 1120.9 41.6828 1122.01 40.6495C1123.13 39.6162 1123.69 38.2495 1123.69 36.5495C1123.69 34.9495 1123.13 33.6245 1122.01 32.5745C1120.9 31.5245 1119.32 30.9995 1117.29 30.9995C1115.27 30.9995 1113.7 31.5245 1112.56 32.5745C1111.45 33.6245 1110.89 34.9495 1110.89 36.5495C1110.89 38.2495 1111.45 39.6162 1112.56 40.6495C1113.7 41.6828 1115.27 42.1995 1117.29 42.1995ZM1117.29 29.9995C1115.31 29.9995 1113.51 29.6078 1111.89 28.8245C1110.27 28.0412 1108.98 26.9578 1108.01 25.5745C1107.06 24.1745 1106.59 22.5662 1106.59 20.7495C1106.59 19.2162 1106.95 17.7245 1107.66 16.2745C1108.4 14.8245 1109.55 13.6328 1111.11 12.6995C1112.7 11.7662 1114.76 11.2995 1117.29 11.2995C1119.82 11.2995 1121.86 11.7662 1123.39 12.6995C1124.94 13.6328 1126.06 14.8245 1126.74 16.2745C1127.44 17.7245 1127.79 19.2162 1127.79 20.7495C1127.79 22.5662 1127.36 24.1745 1126.49 25.5745C1125.64 26.9578 1124.42 28.0412 1122.84 28.8245C1121.27 29.6078 1119.42 29.9995 1117.29 29.9995ZM1117.29 25.3495C1118.92 25.3495 1120.15 24.9078 1120.96 24.0245C1121.78 23.1245 1122.19 22.0495 1122.19 20.7995C1122.19 19.4662 1121.78 18.3828 1120.96 17.5495C1120.15 16.7162 1118.92 16.2995 1117.29 16.2995C1115.67 16.2995 1114.41 16.7162 1113.51 17.5495C1112.63 18.3828 1112.19 19.4662 1112.19 20.7995C1112.19 22.0495 1112.63 23.1245 1113.51 24.0245C1114.41 24.9078 1115.67 25.3495 1117.29 25.3495ZM1141.07 42.1995V35.4995H1134.37V30.7995H1141.07V24.0995H1146.17V30.7995H1152.87V35.4995H1146.17V42.1995H1141.07Z" fill="#181818"/>
<path d="M1083.97 71.5975H1078.57V70.0495H1083.97V71.5975ZM1081.02 64.0735H1081.52L1077.65 74.9995H1075.85L1080.37 62.3995H1082.17L1086.69 74.9995H1084.89L1081.02 64.0735ZM1089.17 74.9995L1086.52 66.1795H1088.43L1090.12 73.2175L1091.99 66.4495H1093.67L1095.56 73.2175L1097.25 66.1795H1099.16L1096.49 74.9995H1094.68L1092.84 68.4835L1090.99 74.9995H1089.17ZM1102.43 75.1795C1101.88 75.1795 1101.41 75.0685 1101 74.8465C1100.59 74.6245 1100.27 74.3215 1100.04 73.9375C1099.82 73.5535 1099.71 73.1155 1099.71 72.6235C1099.71 72.1255 1099.82 71.6995 1100.04 71.3455C1100.26 70.9855 1100.55 70.6885 1100.92 70.4545C1101.29 70.2145 1101.7 70.0255 1102.16 69.8875C1102.62 69.7435 1103.09 69.6415 1103.57 69.5815C1104.06 69.5155 1104.54 69.4795 1104.99 69.4735C1104.99 68.6335 1104.82 68.0845 1104.49 67.8265C1104.16 67.5685 1103.68 67.4395 1103.06 67.4395C1102.73 67.4395 1102.38 67.4905 1102 67.5925C1101.63 67.6945 1101.21 67.9075 1100.74 68.2315L1100.5 66.9175C1100.86 66.6475 1101.3 66.4285 1101.83 66.2605C1102.35 66.0865 1102.91 65.9995 1103.49 65.9995C1104.24 65.9995 1104.84 66.1315 1105.29 66.3955C1105.75 66.6535 1106.08 67.0915 1106.29 67.7095C1106.5 68.3275 1106.61 69.1675 1106.61 70.2295V72.0295C1106.61 72.4495 1106.62 72.7975 1106.66 73.0735C1106.7 73.3435 1106.79 73.5475 1106.93 73.6855C1107.07 73.8175 1107.3 73.8835 1107.61 73.8835H1107.78L1107.52 75.1795H1107.4C1106.88 75.1795 1106.47 75.1285 1106.18 75.0265C1105.9 74.9245 1105.68 74.7775 1105.53 74.5855C1105.38 74.3935 1105.25 74.1595 1105.13 73.8835C1104.8 74.2675 1104.41 74.5795 1103.96 74.8195C1103.51 75.0595 1103 75.1795 1102.43 75.1795ZM1102.74 73.8835C1103.17 73.8835 1103.58 73.7755 1103.99 73.5595C1104.39 73.3435 1104.73 73.0555 1104.99 72.6955V70.5895C1104.13 70.6195 1103.43 70.7035 1102.9 70.8415C1102.37 70.9795 1101.98 71.1865 1101.74 71.4625C1101.49 71.7385 1101.37 72.0955 1101.37 72.5335C1101.37 73.0075 1101.49 73.3525 1101.75 73.5685C1102 73.7785 1102.33 73.8835 1102.74 73.8835ZM1109.03 74.9995V66.1795H1110.36L1110.56 67.6375C1111.01 67.0795 1111.43 66.6685 1111.84 66.4045C1112.26 66.1345 1112.7 65.9995 1113.17 65.9995C1113.32 65.9995 1113.45 66.0175 1113.58 66.0535L1113.42 67.8355C1113.34 67.8175 1113.26 67.8055 1113.17 67.7995C1113.08 67.7875 1112.99 67.7815 1112.88 67.7815C1112.41 67.7815 1111.98 67.8865 1111.58 68.0965C1111.19 68.3005 1110.92 68.5255 1110.75 68.7715V74.9995H1109.03ZM1117.98 75.1795C1117.23 75.1795 1116.56 74.9755 1115.95 74.5675C1115.34 74.1595 1114.86 73.6105 1114.5 72.9205C1114.15 72.2305 1113.97 71.4595 1113.97 70.6075C1113.97 69.7975 1114.13 69.0415 1114.46 68.3395C1114.79 67.6375 1115.25 67.0735 1115.85 66.6475C1116.45 66.2155 1117.16 65.9995 1117.98 65.9995C1118.57 65.9995 1119.14 66.1285 1119.69 66.3865C1120.24 66.6385 1120.68 67.0615 1121.03 67.6555L1120.68 67.8895V61.4995H1122.3V74.9995H1120.86L1120.56 73.1275L1120.97 73.4155C1120.71 73.9975 1120.31 74.4385 1119.76 74.7385C1119.21 75.0325 1118.61 75.1795 1117.98 75.1795ZM1118.27 73.7395C1118.68 73.7395 1119.08 73.6345 1119.48 73.4245C1119.88 73.2145 1120.21 72.8815 1120.47 72.4255C1120.73 71.9635 1120.86 71.3575 1120.86 70.6075C1120.86 69.9115 1120.73 69.3295 1120.47 68.8615C1120.21 68.3875 1119.88 68.0335 1119.48 67.7995C1119.08 67.5595 1118.68 67.4395 1118.27 67.4395C1117.72 67.4395 1117.25 67.5775 1116.85 67.8535C1116.45 68.1295 1116.15 68.5075 1115.94 68.9875C1115.73 69.4615 1115.63 70.0015 1115.63 70.6075C1115.63 71.1775 1115.73 71.6995 1115.94 72.1735C1116.15 72.6475 1116.45 73.0285 1116.85 73.3165C1117.25 73.5985 1117.72 73.7395 1118.27 73.7395ZM1126.98 75.1795C1126.2 75.1795 1125.55 75.0865 1125.03 74.9005C1124.52 74.7145 1124.16 74.5495 1123.95 74.4055L1124.15 72.8395C1124.34 73.0075 1124.68 73.1995 1125.17 73.4155C1125.66 73.6315 1126.23 73.7395 1126.91 73.7395C1127.48 73.7395 1127.91 73.6435 1128.21 73.4515C1128.52 73.2595 1128.67 72.9895 1128.67 72.6415C1128.67 72.3355 1128.57 72.0895 1128.37 71.9035C1128.18 71.7115 1127.95 71.5615 1127.67 71.4535C1127.4 71.3395 1127.15 71.2495 1126.91 71.1835C1126.5 71.0755 1126.09 70.9405 1125.66 70.7785C1125.23 70.6105 1124.87 70.3615 1124.58 70.0315C1124.28 69.7015 1124.13 69.2395 1124.13 68.6455C1124.13 68.1955 1124.24 67.7695 1124.46 67.3675C1124.67 66.9595 1125.03 66.6295 1125.51 66.3775C1126 66.1255 1126.64 65.9995 1127.45 65.9995C1128.03 65.9995 1128.51 66.0625 1128.88 66.1885C1129.25 66.3085 1129.57 66.4375 1129.84 66.5755L1129.64 68.0515C1129.38 67.8355 1129.08 67.6525 1128.74 67.5025C1128.4 67.3525 1127.98 67.2775 1127.48 67.2775C1126.98 67.2775 1126.57 67.3735 1126.25 67.5655C1125.93 67.7515 1125.77 68.0515 1125.77 68.4655C1125.77 68.8795 1125.94 69.1735 1126.28 69.3475C1126.62 69.5215 1127.13 69.7135 1127.82 69.9235C1128.04 69.9835 1128.29 70.0705 1128.57 70.1845C1128.86 70.2985 1129.14 70.4515 1129.41 70.6435C1129.68 70.8355 1129.9 71.0875 1130.07 71.3995C1130.25 71.7055 1130.34 72.0895 1130.34 72.5515C1130.34 72.9415 1130.25 73.3405 1130.07 73.7485C1129.88 74.1505 1129.54 74.4895 1129.06 74.7655C1128.57 75.0415 1127.88 75.1795 1126.98 75.1795ZM1138.51 74.9995L1134.95 62.3995H1136.75L1139.41 72.7855L1142.49 62.6515H1144.29L1147.37 72.7855L1150.03 62.3995H1151.83L1148.27 74.9995H1146.45L1143.39 64.8655L1140.33 74.9995H1138.51ZM1152.92 74.9995V66.1795H1154.54V74.9995H1152.92ZM1152.92 64.1995V62.3995H1154.54V64.1995H1152.92ZM1156.73 74.9995V66.1795H1157.99L1158.32 67.8715L1157.69 67.6015C1158.28 66.9415 1158.86 66.5095 1159.42 66.3055C1159.99 66.1015 1160.55 65.9995 1161.09 65.9995C1162.38 65.9995 1163.3 66.3715 1163.85 67.1155C1164.41 67.8595 1164.69 68.8675 1164.69 70.1395V74.9995H1163.07V70.1395C1163.07 69.2035 1162.89 68.5195 1162.55 68.0875C1162.2 67.6555 1161.6 67.4395 1160.76 67.4395C1160.17 67.4395 1159.62 67.5715 1159.13 67.8355C1158.63 68.0935 1158.31 68.5075 1158.15 69.0775L1158.35 68.0875V74.9995H1156.73ZM1166.79 74.9995V66.1795H1168.05L1168.37 67.8715L1167.74 67.6015C1168.34 66.9415 1168.91 66.5095 1169.48 66.3055C1170.05 66.1015 1170.6 65.9995 1171.14 65.9995C1172.43 65.9995 1173.35 66.3715 1173.91 67.1155C1174.46 67.8595 1174.74 68.8675 1174.74 70.1395V74.9995H1173.12V70.1395C1173.12 69.2035 1172.95 68.5195 1172.6 68.0875C1172.25 67.6555 1171.66 67.4395 1170.82 67.4395C1170.23 67.4395 1169.68 67.5715 1169.18 67.8355C1168.69 68.0935 1168.37 68.5075 1168.21 69.0775L1168.41 68.0875V74.9995H1166.79ZM1176.84 74.9995V66.1795H1178.46V74.9995H1176.84ZM1176.84 64.1995V62.3995H1178.46V64.1995H1176.84ZM1180.66 74.9995V66.1795H1181.92L1182.24 67.8715L1181.61 67.6015C1182.2 66.9415 1182.78 66.5095 1183.35 66.3055C1183.92 66.1015 1184.47 65.9995 1185.01 65.9995C1186.3 65.9995 1187.22 66.3715 1187.78 67.1155C1188.33 67.8595 1188.61 68.8675 1188.61 70.1395V74.9995H1186.99V70.1395C1186.99 69.2035 1186.82 68.5195 1186.47 68.0875C1186.12 67.6555 1185.53 67.4395 1184.69 67.4395C1184.09 67.4395 1183.55 67.5715 1183.05 67.8355C1182.56 68.0935 1182.23 68.5075 1182.08 69.0775L1182.28 68.0875V74.9995H1180.66ZM1194.28 79.4995C1193.47 79.4995 1192.75 79.4005 1192.12 79.2025C1191.49 79.0045 1190.99 78.7105 1190.62 78.3205C1190.26 77.9305 1190.08 77.4475 1190.08 76.8715C1190.08 76.3915 1190.22 75.9775 1190.49 75.6295C1190.76 75.2875 1191.14 75.0115 1191.61 74.8015C1191.33 74.6635 1191.11 74.5015 1190.96 74.3155C1190.82 74.1235 1190.75 73.9135 1190.75 73.6855C1190.75 73.4155 1190.83 73.1725 1190.99 72.9565C1191.16 72.7345 1191.43 72.5515 1191.79 72.4075C1191.3 72.1015 1190.92 71.6905 1190.66 71.1745C1190.39 70.6525 1190.26 70.0735 1190.26 69.4375C1190.26 68.7955 1190.41 68.2165 1190.69 67.7005C1190.98 67.1785 1191.4 66.7645 1191.94 66.4585C1192.48 66.1525 1193.14 65.9995 1193.9 65.9995C1194.31 65.9995 1194.69 66.0595 1195.05 66.1795C1195.42 66.2995 1195.75 66.4675 1196.06 66.6835C1196.33 66.5275 1196.65 66.3985 1197.01 66.2965C1197.38 66.1945 1197.8 66.1435 1198.25 66.1435C1198.28 66.1435 1198.31 66.1435 1198.33 66.1435C1198.35 66.1435 1198.37 66.1435 1198.4 66.1435L1198.2 67.2235C1198.13 67.2235 1198.06 67.2235 1197.99 67.2235C1197.93 67.2235 1197.86 67.2235 1197.79 67.2235C1197.73 67.2235 1197.59 67.2325 1197.37 67.2505C1197.16 67.2685 1196.96 67.3015 1196.78 67.3495C1197.02 67.6375 1197.21 67.9615 1197.34 68.3215C1197.48 68.6755 1197.55 69.0475 1197.55 69.4375C1197.55 70.1095 1197.4 70.7125 1197.11 71.2465C1196.82 71.7745 1196.41 72.1945 1195.86 72.5065C1195.31 72.8125 1194.66 72.9655 1193.9 72.9655C1193.68 72.9655 1193.47 72.9535 1193.28 72.9295C1193.08 72.8995 1192.89 72.8575 1192.71 72.8035C1192.43 72.8935 1192.3 73.0495 1192.3 73.2715C1192.3 73.4035 1192.37 73.5205 1192.53 73.6225C1192.69 73.7185 1192.94 73.7935 1193.29 73.8475L1195.64 74.2255C1196.6 74.3755 1197.33 74.6515 1197.85 75.0535C1198.37 75.4555 1198.63 76.0255 1198.63 76.7635C1198.63 77.3755 1198.45 77.8825 1198.09 78.2845C1197.74 78.6925 1197.23 78.9955 1196.58 79.1935C1195.93 79.3975 1195.16 79.4995 1194.28 79.4995ZM1194.42 78.0595C1195.25 78.0595 1195.88 77.9515 1196.33 77.7355C1196.77 77.5255 1196.99 77.2135 1196.99 76.7995C1196.99 76.4755 1196.85 76.2205 1196.57 76.0345C1196.29 75.8485 1195.9 75.7075 1195.37 75.6115L1192.86 75.1885C1192.53 75.3325 1192.24 75.5245 1192 75.7645C1191.75 76.0105 1191.63 76.2955 1191.63 76.6195C1191.63 77.1235 1191.88 77.4895 1192.39 77.7175C1192.9 77.9455 1193.57 78.0595 1194.42 78.0595ZM1193.9 71.6695C1194.58 71.6695 1195.1 71.4655 1195.46 71.0575C1195.82 70.6435 1196 70.1095 1196 69.4555C1196 68.8255 1195.82 68.3095 1195.46 67.9075C1195.1 67.4995 1194.58 67.2955 1193.9 67.2955C1193.21 67.2955 1192.69 67.4995 1192.34 67.9075C1191.99 68.3095 1191.81 68.8255 1191.81 69.4555C1191.81 70.1095 1191.99 70.6435 1192.34 71.0575C1192.69 71.4655 1193.21 71.6695 1193.9 71.6695Z" fill="#595566"/>
<path d="M1021.05 30.9859V38.0236C1021.05 43.0944 1025.25 47.2965 1030.5 47.3349C1031.76 47.3433 1033 47.1116 1034.16 46.6532C1035.33 46.1949 1036.38 45.5188 1037.27 44.664C1038.16 43.8092 1038.87 42.7926 1039.35 41.6727C1039.84 40.5527 1040.08 39.3516 1040.08 38.1386V30.9859C1040.08 30.7149 1039.97 30.455 1039.77 30.2634C1039.58 30.0718 1039.31 29.9641 1039.03 29.9641H1022.11C1021.83 29.9641 1021.56 30.0718 1021.36 30.2634C1021.16 30.455 1021.05 30.7149 1021.05 30.9859Z" stroke="#4EAF4E" stroke-width="2" stroke-linecap="round" stroke-linejoin="round"/>
<path d="M1014.34 25.4289V37.8474C1014.34 46.7951 1021.51 54.2102 1030.45 54.2778C1032.6 54.2926 1034.72 53.8839 1036.7 53.075C1038.68 52.2662 1040.48 51.0732 1042 49.5649C1043.52 48.0565 1044.73 46.2626 1045.55 44.2864C1046.37 42.3102 1046.79 40.1908 1046.79 38.0503V25.4289C1046.79 24.9507 1046.6 24.4921 1046.27 24.154C1045.93 23.8158 1045.47 23.6259 1044.99 23.6259H1016.14C1015.66 23.6259 1015.21 23.8158 1014.87 24.154C1014.53 24.4921 1014.34 24.9507 1014.34 25.4289Z" stroke="#4EAF4E" stroke-width="2" stroke-linecap="round" stroke-linejoin="round"/>
<path d="M1023.36 63.2932H1037.78" stroke="#4EAF4E" stroke-width="2" stroke-linecap="round" stroke-linejoin="round"/>
<path d="M1030.57 54.278V63.2932" stroke="#4EAF4E" stroke-width="2" stroke-linecap="round" stroke-linejoin="round"/>
<path d="M1046.39 41.6564H1048.6C1050.51 41.6564 1052.35 40.8966 1053.7 39.544C1055.05 38.1915 1055.81 36.357 1055.81 34.4442V30.8381C1055.81 30.3599 1055.62 29.9013 1055.28 29.5631C1054.94 29.225 1054.49 29.035 1054.01 29.035H1046.8" stroke="#4EAF4E" stroke-width="2" stroke-linecap="round" stroke-linejoin="round"/>
<path d="M1014.79 41.6564H1012.51C1010.6 41.6564 1008.77 40.8966 1007.42 39.544C1006.06 38.1915 1005.3 36.357 1005.3 34.4442V30.8381C1005.3 30.3599 1005.49 29.9013 1005.83 29.5631C1006.17 29.225 1006.63 29.035 1007.11 29.035H1014.32" stroke="#4EAF4E" stroke-width="2" stroke-linecap="round" stroke-linejoin="round"/>
</svg>
