<svg width="294" height="189" viewBox="0 0 294 189" fill="none" xmlns="http://www.w3.org/2000/svg">
<g filter="url(#filter0_d_5_10423)">
<rect x="31.7822" y="4.09424" width="241.168" height="136.75" rx="20" fill="white"/>
</g>
<path d="M86.8978 81.141C85.9012 81.141 84.9868 81.011 84.1548 80.751C83.3228 80.491 82.5732 80.1356 81.9058 79.685L82.6858 76.669C83.3272 77.0676 83.9772 77.3926 84.6358 77.644C85.3032 77.8953 86.0398 78.021 86.8458 78.021C87.8338 78.021 88.6182 77.761 89.1988 77.241C89.7795 76.721 90.0698 76.019 90.0698 75.135C90.0698 74.1816 89.7405 73.4363 89.0818 72.899C88.4232 72.3616 87.4698 72.093 86.2218 72.093C85.6498 72.093 85.0778 72.1276 84.5058 72.197C83.9425 72.2663 83.3792 72.353 82.8158 72.457L83.9858 62.603H92.5658L92.3578 65.827H86.4818L85.8578 70.871L84.6098 69.727C85.0258 69.6056 85.4592 69.5146 85.9098 69.454C86.3692 69.3933 86.8632 69.363 87.3918 69.363C88.5532 69.363 89.5758 69.5926 90.4598 70.052C91.3525 70.5026 92.0458 71.1613 92.5398 72.028C93.0425 72.886 93.2938 73.9216 93.2938 75.135C93.2938 76.383 93.0165 77.4576 92.4618 78.359C91.9158 79.2516 91.1618 79.9406 90.1998 80.426C89.2378 80.9026 88.1372 81.141 86.8978 81.141ZM103.775 81.167C102.241 81.167 100.897 80.7683 99.7447 79.971C98.6007 79.165 97.708 78.0426 97.0667 76.604C96.4253 75.1566 96.1047 73.471 96.1047 71.547C96.1047 69.7096 96.4253 68.0933 97.0667 66.698C97.708 65.294 98.6007 64.202 99.7447 63.422C100.897 62.6333 102.241 62.239 103.775 62.239C105.317 62.239 106.661 62.6333 107.805 63.422C108.957 64.2106 109.85 65.307 110.483 66.711C111.124 68.1063 111.445 69.7183 111.445 71.547C111.445 73.471 111.124 75.1566 110.483 76.604C109.85 78.0426 108.957 79.165 107.805 79.971C106.661 80.7683 105.317 81.167 103.775 81.167ZM103.775 78.177C104.598 78.177 105.335 77.9516 105.985 77.501C106.643 77.0503 107.163 76.3396 107.545 75.369C107.926 74.3896 108.117 73.1156 108.117 71.547C108.117 69.389 107.701 67.79 106.869 66.75C106.045 65.7013 105.014 65.177 103.775 65.177C102.544 65.177 101.513 65.697 100.681 66.737C99.8487 67.7683 99.4327 69.3716 99.4327 71.547C99.4327 73.0983 99.6233 74.3636 100.005 75.343C100.386 76.3136 100.902 77.0286 101.552 77.488C102.21 77.9473 102.951 78.177 103.775 78.177ZM117.478 78.307V74.823H113.994V72.379H117.478V68.895H120.13V72.379H123.614V74.823H120.13V78.307H117.478Z" fill="#181818"/>
<path d="M172.639 54.901V66.469H170.743V58.997C170.743 58.6983 170.759 58.3757 170.791 58.029L167.295 64.597C167.129 64.9117 166.876 65.069 166.535 65.069H166.231C165.889 65.069 165.636 64.9117 165.471 64.597L161.935 58.005C161.951 58.181 161.964 58.3543 161.975 58.525C161.985 58.6957 161.991 58.853 161.991 58.997V66.469H160.095V54.901H161.719C161.815 54.901 161.897 54.9037 161.967 54.909C162.036 54.9143 162.097 54.9277 162.151 54.949C162.209 54.9703 162.26 55.005 162.303 55.053C162.351 55.101 162.396 55.165 162.439 55.245L165.903 61.669C165.993 61.8397 166.076 62.0157 166.151 62.197C166.231 62.3783 166.308 62.565 166.383 62.757C166.457 62.5597 166.535 62.3703 166.615 62.189C166.695 62.0023 166.78 61.8237 166.871 61.653L170.287 55.245C170.329 55.165 170.375 55.101 170.423 55.053C170.471 55.005 170.521 54.9703 170.575 54.949C170.633 54.9277 170.697 54.9143 170.767 54.909C170.836 54.9037 170.919 54.901 171.015 54.901H172.639ZM179.041 62.965C178.47 62.9917 177.99 63.0423 177.601 63.117C177.211 63.1863 176.899 63.277 176.665 63.389C176.43 63.501 176.262 63.6317 176.161 63.781C176.059 63.9303 176.009 64.093 176.009 64.269C176.009 64.6157 176.11 64.8637 176.313 65.013C176.521 65.1623 176.79 65.237 177.121 65.237C177.526 65.237 177.875 65.165 178.169 65.021C178.467 64.8717 178.758 64.6477 179.041 64.349V62.965ZM174.513 59.405C175.457 58.541 176.593 58.109 177.921 58.109C178.401 58.109 178.83 58.189 179.209 58.349C179.587 58.5037 179.907 58.7223 180.169 59.005C180.43 59.2823 180.627 59.6157 180.761 60.005C180.899 60.3943 180.969 60.821 180.969 61.285V66.469H180.073C179.886 66.469 179.742 66.4423 179.641 66.389C179.539 66.3303 179.459 66.2157 179.401 66.045L179.225 65.453C179.017 65.6397 178.814 65.805 178.617 65.949C178.419 66.0877 178.214 66.205 178.001 66.301C177.787 66.397 177.558 66.469 177.313 66.517C177.073 66.5703 176.806 66.597 176.513 66.597C176.166 66.597 175.846 66.5517 175.553 66.461C175.259 66.365 175.006 66.2237 174.793 66.037C174.579 65.8503 174.414 65.6183 174.297 65.341C174.179 65.0637 174.121 64.741 174.121 64.373C174.121 64.165 174.155 63.9597 174.225 63.757C174.294 63.549 174.406 63.3517 174.561 63.165C174.721 62.9783 174.926 62.8023 175.177 62.637C175.427 62.4717 175.734 62.3277 176.097 62.205C176.465 62.0823 176.891 61.9837 177.377 61.909C177.862 61.829 178.417 61.781 179.041 61.765V61.285C179.041 60.7357 178.923 60.3303 178.689 60.069C178.454 59.8023 178.115 59.669 177.673 59.669C177.353 59.669 177.086 59.7063 176.873 59.781C176.665 59.8557 176.481 59.941 176.321 60.037C176.161 60.1277 176.014 60.2103 175.881 60.285C175.753 60.3597 175.609 60.397 175.449 60.397C175.31 60.397 175.193 60.3623 175.097 60.293C175.001 60.2183 174.923 60.133 174.865 60.037L174.513 59.405ZM184.694 59.685C184.95 59.1943 185.254 58.8103 185.606 58.533C185.958 58.2503 186.374 58.109 186.854 58.109C187.232 58.109 187.536 58.1917 187.766 58.357L187.638 59.837C187.611 59.933 187.571 60.0023 187.518 60.045C187.47 60.0823 187.403 60.101 187.318 60.101C187.238 60.101 187.118 60.0877 186.958 60.061C186.803 60.0343 186.651 60.021 186.502 60.021C186.283 60.021 186.088 60.053 185.918 60.117C185.747 60.181 185.592 60.2743 185.454 60.397C185.32 60.5143 185.2 60.6583 185.094 60.829C184.992 60.9997 184.896 61.1943 184.806 61.413V66.469H182.83V58.261H183.99C184.192 58.261 184.334 58.2983 184.414 58.373C184.494 58.4423 184.547 58.5703 184.574 58.757L184.694 59.685ZM190.774 54.581V61.389H191.142C191.276 61.389 191.38 61.373 191.454 61.341C191.534 61.3037 191.614 61.2317 191.694 61.125L193.734 58.605C193.82 58.493 193.913 58.4077 194.014 58.349C194.121 58.2903 194.257 58.261 194.422 58.261H196.23L193.678 61.309C193.497 61.549 193.3 61.733 193.086 61.861C193.198 61.941 193.297 62.0343 193.382 62.141C193.473 62.2477 193.558 62.3623 193.638 62.485L196.374 66.469H194.59C194.436 66.469 194.302 66.445 194.19 66.397C194.078 66.3437 193.985 66.2503 193.91 66.117L191.814 63.005C191.74 62.8823 191.662 62.8023 191.582 62.765C191.502 62.7277 191.382 62.709 191.222 62.709H190.774V66.469H188.798V54.581H190.774ZM202.211 61.421C202.211 61.165 202.174 60.925 202.099 60.701C202.03 60.4717 201.923 60.2717 201.779 60.101C201.635 59.9303 201.451 59.797 201.227 59.701C201.009 59.5997 200.753 59.549 200.459 59.549C199.889 59.549 199.438 59.7117 199.107 60.037C198.782 60.3623 198.574 60.8237 198.483 61.421H202.211ZM198.443 62.613C198.475 63.0343 198.55 63.3997 198.667 63.709C198.785 64.013 198.939 64.2663 199.131 64.469C199.323 64.6663 199.55 64.8157 199.811 64.917C200.078 65.013 200.371 65.061 200.691 65.061C201.011 65.061 201.286 65.0237 201.515 64.949C201.75 64.8743 201.953 64.7917 202.123 64.701C202.299 64.6103 202.451 64.5277 202.579 64.453C202.713 64.3783 202.841 64.341 202.963 64.341C203.129 64.341 203.251 64.4023 203.331 64.525L203.899 65.245C203.681 65.501 203.435 65.717 203.163 65.893C202.891 66.0637 202.606 66.2023 202.307 66.309C202.014 66.4103 201.713 66.4823 201.403 66.525C201.099 66.5677 200.803 66.589 200.515 66.589C199.945 66.589 199.414 66.4957 198.923 66.309C198.433 66.117 198.006 65.837 197.643 65.469C197.281 65.0957 196.995 64.637 196.787 64.093C196.579 63.5437 196.475 62.909 196.475 62.189C196.475 61.629 196.566 61.1037 196.747 60.613C196.929 60.117 197.187 59.6877 197.523 59.325C197.865 58.957 198.278 58.6663 198.763 58.453C199.254 58.2397 199.806 58.133 200.419 58.133C200.937 58.133 201.414 58.2157 201.851 58.381C202.289 58.5463 202.665 58.789 202.979 59.109C203.294 59.4237 203.539 59.813 203.715 60.277C203.897 60.7357 203.987 61.261 203.987 61.853C203.987 62.1517 203.955 62.3543 203.891 62.461C203.827 62.5623 203.705 62.613 203.523 62.613H198.443ZM208.128 66.597C207.413 66.597 206.864 66.397 206.48 65.997C206.101 65.5917 205.912 65.0343 205.912 64.325V59.741H205.072C204.965 59.741 204.875 59.7063 204.8 59.637C204.725 59.5677 204.688 59.4637 204.688 59.325V58.541L206.008 58.325L206.424 56.085C206.451 55.9783 206.501 55.8957 206.576 55.837C206.651 55.7783 206.747 55.749 206.864 55.749H207.888V58.333H210.08V59.741H207.888V64.189C207.888 64.445 207.949 64.645 208.072 64.789C208.2 64.933 208.373 65.005 208.592 65.005C208.715 65.005 208.816 64.9917 208.896 64.965C208.981 64.933 209.053 64.901 209.112 64.869C209.176 64.837 209.232 64.8077 209.28 64.781C209.328 64.749 209.376 64.733 209.424 64.733C209.483 64.733 209.531 64.749 209.568 64.781C209.605 64.8077 209.645 64.8503 209.688 64.909L210.28 65.869C209.992 66.109 209.661 66.2903 209.288 66.413C208.915 66.5357 208.528 66.597 208.128 66.597ZM162.255 80.613V83.821H166.303V85.477H162.255V88.749H167.391V90.469H160.095V78.901H167.391V80.613H162.255ZM176.314 90.469H174.41C174.266 90.469 174.148 90.4317 174.058 90.357C173.972 90.2823 173.9 90.197 173.842 90.101L172.106 87.245C172.079 87.3357 172.047 87.421 172.01 87.501C171.978 87.581 171.94 87.6557 171.898 87.725L170.362 90.101C170.303 90.1917 170.231 90.277 170.146 90.357C170.06 90.4317 169.954 90.469 169.826 90.469H168.058L170.874 86.237L168.17 82.261H170.074C170.218 82.261 170.324 82.2823 170.394 82.325C170.463 82.3623 170.524 82.4263 170.578 82.517L172.298 85.253C172.356 85.0717 172.439 84.893 172.546 84.717L173.93 82.557C174.047 82.3597 174.199 82.261 174.386 82.261H176.202L173.506 86.149L176.314 90.469ZM179.321 88.341C179.545 88.613 179.788 88.805 180.049 88.917C180.316 89.029 180.604 89.085 180.913 89.085C181.212 89.085 181.481 89.029 181.721 88.917C181.961 88.805 182.164 88.6343 182.329 88.405C182.5 88.1757 182.63 87.8877 182.721 87.541C182.812 87.189 182.857 86.7757 182.857 86.301C182.857 85.821 182.817 85.4157 182.737 85.085C182.662 84.749 182.553 84.477 182.409 84.269C182.265 84.061 182.089 83.909 181.881 83.813C181.678 83.717 181.446 83.669 181.185 83.669C180.774 83.669 180.425 83.757 180.137 83.933C179.849 84.1037 179.577 84.3463 179.321 84.661V88.341ZM179.217 83.381C179.553 83.0023 179.934 82.6957 180.361 82.461C180.788 82.2263 181.289 82.109 181.865 82.109C182.313 82.109 182.721 82.2023 183.089 82.389C183.462 82.5757 183.782 82.8477 184.049 83.205C184.321 83.557 184.529 83.9943 184.673 84.517C184.822 85.0343 184.897 85.629 184.897 86.301C184.897 86.9143 184.814 87.4823 184.649 88.005C184.484 88.5277 184.246 88.981 183.937 89.365C183.633 89.749 183.262 90.0503 182.825 90.269C182.393 90.4823 181.908 90.589 181.369 90.589C180.91 90.589 180.518 90.5197 180.193 90.381C179.868 90.237 179.577 90.0397 179.321 89.789V93.149H177.345V82.261H178.553C178.809 82.261 178.977 82.381 179.057 82.621L179.217 83.381ZM191.727 85.421C191.727 85.165 191.69 84.925 191.615 84.701C191.546 84.4717 191.439 84.2717 191.295 84.101C191.151 83.9303 190.967 83.797 190.743 83.701C190.524 83.5997 190.268 83.549 189.975 83.549C189.404 83.549 188.954 83.7117 188.623 84.037C188.298 84.3623 188.09 84.8237 187.999 85.421H191.727ZM187.959 86.613C187.991 87.0343 188.066 87.3997 188.183 87.709C188.3 88.013 188.455 88.2663 188.647 88.469C188.839 88.6663 189.066 88.8157 189.327 88.917C189.594 89.013 189.887 89.061 190.207 89.061C190.527 89.061 190.802 89.0237 191.031 88.949C191.266 88.8743 191.468 88.7917 191.639 88.701C191.815 88.6103 191.967 88.5277 192.095 88.453C192.228 88.3783 192.356 88.341 192.479 88.341C192.644 88.341 192.767 88.4023 192.847 88.525L193.415 89.245C193.196 89.501 192.951 89.717 192.679 89.893C192.407 90.0637 192.122 90.2023 191.823 90.309C191.53 90.4103 191.228 90.4823 190.919 90.525C190.615 90.5677 190.319 90.589 190.031 90.589C189.46 90.589 188.93 90.4957 188.439 90.309C187.948 90.117 187.522 89.837 187.159 89.469C186.796 89.0957 186.511 88.637 186.303 88.093C186.095 87.5437 185.991 86.909 185.991 86.189C185.991 85.629 186.082 85.1037 186.263 84.613C186.444 84.117 186.703 83.6877 187.039 83.325C187.38 82.957 187.794 82.6663 188.279 82.453C188.77 82.2397 189.322 82.133 189.935 82.133C190.452 82.133 190.93 82.2157 191.367 82.381C191.804 82.5463 192.18 82.789 192.495 83.109C192.81 83.4237 193.055 83.813 193.231 84.277C193.412 84.7357 193.503 85.261 193.503 85.853C193.503 86.1517 193.471 86.3543 193.407 86.461C193.343 86.5623 193.22 86.613 193.039 86.613H187.959ZM196.85 83.685C197.106 83.1943 197.41 82.8103 197.762 82.533C198.114 82.2503 198.53 82.109 199.01 82.109C199.388 82.109 199.692 82.1917 199.922 82.357L199.794 83.837C199.767 83.933 199.727 84.0023 199.674 84.045C199.626 84.0823 199.559 84.101 199.474 84.101C199.394 84.101 199.274 84.0877 199.114 84.061C198.959 84.0343 198.807 84.021 198.658 84.021C198.439 84.021 198.244 84.053 198.074 84.117C197.903 84.181 197.748 84.2743 197.61 84.397C197.476 84.5143 197.356 84.6583 197.25 84.829C197.148 84.9997 197.052 85.1943 196.962 85.413V90.469H194.986V82.261H196.146C196.348 82.261 196.49 82.2983 196.57 82.373C196.65 82.4423 196.703 82.5703 196.73 82.757L196.85 83.685ZM203.003 82.261V90.469H201.019V82.261H203.003ZM203.275 79.869C203.275 80.0397 203.24 80.1997 203.171 80.349C203.101 80.4983 203.008 80.629 202.891 80.741C202.779 80.853 202.645 80.9437 202.491 81.013C202.336 81.077 202.171 81.109 201.995 81.109C201.824 81.109 201.661 81.077 201.507 81.013C201.357 80.9437 201.227 80.853 201.115 80.741C201.003 80.629 200.912 80.4983 200.843 80.349C200.779 80.1997 200.747 80.0397 200.747 79.869C200.747 79.693 200.779 79.5277 200.843 79.373C200.912 79.2183 201.003 79.085 201.115 78.973C201.227 78.861 201.357 78.773 201.507 78.709C201.661 78.6397 201.824 78.605 201.995 78.605C202.171 78.605 202.336 78.6397 202.491 78.709C202.645 78.773 202.779 78.861 202.891 78.973C203.008 79.085 203.101 79.2183 203.171 79.373C203.24 79.5277 203.275 79.693 203.275 79.869ZM210.305 85.421C210.305 85.165 210.268 84.925 210.193 84.701C210.124 84.4717 210.017 84.2717 209.873 84.101C209.729 83.9303 209.545 83.797 209.321 83.701C209.102 83.5997 208.846 83.549 208.553 83.549C207.982 83.549 207.532 83.7117 207.201 84.037C206.876 84.3623 206.668 84.8237 206.577 85.421H210.305ZM206.537 86.613C206.569 87.0343 206.644 87.3997 206.761 87.709C206.878 88.013 207.033 88.2663 207.225 88.469C207.417 88.6663 207.644 88.8157 207.905 88.917C208.172 89.013 208.465 89.061 208.785 89.061C209.105 89.061 209.38 89.0237 209.609 88.949C209.844 88.8743 210.046 88.7917 210.217 88.701C210.393 88.6103 210.545 88.5277 210.673 88.453C210.806 88.3783 210.934 88.341 211.057 88.341C211.222 88.341 211.345 88.4023 211.425 88.525L211.993 89.245C211.774 89.501 211.529 89.717 211.257 89.893C210.985 90.0637 210.7 90.2023 210.401 90.309C210.108 90.4103 209.806 90.4823 209.497 90.525C209.193 90.5677 208.897 90.589 208.609 90.589C208.038 90.589 207.508 90.4957 207.017 90.309C206.526 90.117 206.1 89.837 205.737 89.469C205.374 89.0957 205.089 88.637 204.881 88.093C204.673 87.5437 204.569 86.909 204.569 86.189C204.569 85.629 204.66 85.1037 204.841 84.613C205.022 84.117 205.281 83.6877 205.617 83.325C205.958 82.957 206.372 82.6663 206.857 82.453C207.348 82.2397 207.9 82.133 208.513 82.133C209.03 82.133 209.508 82.2157 209.945 82.381C210.382 82.5463 210.758 82.789 211.073 83.109C211.388 83.4237 211.633 83.813 211.809 84.277C211.99 84.7357 212.081 85.261 212.081 85.853C212.081 86.1517 212.049 86.3543 211.985 86.461C211.921 86.5623 211.798 86.613 211.617 86.613H206.537ZM215.412 83.269C215.577 83.1037 215.751 82.9517 215.932 82.813C216.119 82.669 216.313 82.549 216.516 82.453C216.724 82.3517 216.945 82.2743 217.18 82.221C217.415 82.1623 217.671 82.133 217.948 82.133C218.396 82.133 218.793 82.2103 219.14 82.365C219.487 82.5143 219.775 82.7277 220.004 83.005C220.239 83.277 220.415 83.605 220.532 83.989C220.655 84.3677 220.716 84.7863 220.716 85.245V90.469H218.74V85.245C218.74 84.7437 218.625 84.357 218.396 84.085C218.167 83.8077 217.817 83.669 217.348 83.669C217.007 83.669 216.687 83.7463 216.388 83.901C216.089 84.0557 215.807 84.2663 215.54 84.533V90.469H213.564V82.261H214.772C215.028 82.261 215.196 82.381 215.276 82.621L215.412 83.269ZM228.475 83.997C228.416 84.0717 228.358 84.1303 228.299 84.173C228.246 84.2157 228.166 84.237 228.059 84.237C227.958 84.237 227.859 84.2077 227.763 84.149C227.667 84.085 227.552 84.0157 227.419 83.941C227.286 83.861 227.126 83.7917 226.939 83.733C226.758 83.669 226.531 83.637 226.259 83.637C225.912 83.637 225.608 83.701 225.347 83.829C225.086 83.9517 224.867 84.1303 224.691 84.365C224.52 84.5997 224.392 84.885 224.307 85.221C224.222 85.5517 224.179 85.9277 224.179 86.349C224.179 86.7863 224.224 87.1757 224.315 87.517C224.411 87.8583 224.547 88.1463 224.723 88.381C224.899 88.6103 225.112 88.7863 225.363 88.909C225.614 89.0263 225.896 89.085 226.211 89.085C226.526 89.085 226.779 89.0477 226.971 88.973C227.168 88.893 227.334 88.8077 227.467 88.717C227.6 88.621 227.715 88.5357 227.811 88.461C227.912 88.381 228.024 88.341 228.147 88.341C228.307 88.341 228.427 88.4023 228.507 88.525L229.075 89.245C228.856 89.501 228.619 89.717 228.363 89.893C228.107 90.0637 227.84 90.2023 227.563 90.309C227.291 90.4103 227.008 90.4823 226.715 90.525C226.427 90.5677 226.139 90.589 225.851 90.589C225.344 90.589 224.867 90.4957 224.419 90.309C223.971 90.117 223.579 89.8397 223.243 89.477C222.907 89.1143 222.64 88.6717 222.443 88.149C222.251 87.621 222.155 87.021 222.155 86.349C222.155 85.7463 222.24 85.189 222.411 84.677C222.587 84.1597 222.843 83.7143 223.179 83.341C223.515 82.9623 223.931 82.6663 224.427 82.453C224.923 82.2397 225.494 82.133 226.139 82.133C226.752 82.133 227.288 82.2317 227.747 82.429C228.211 82.6263 228.627 82.909 228.995 83.277L228.475 83.997ZM235.461 85.421C235.461 85.165 235.424 84.925 235.349 84.701C235.28 84.4717 235.173 84.2717 235.029 84.101C234.885 83.9303 234.701 83.797 234.477 83.701C234.259 83.5997 234.003 83.549 233.709 83.549C233.139 83.549 232.688 83.7117 232.357 84.037C232.032 84.3623 231.824 84.8237 231.733 85.421H235.461ZM231.693 86.613C231.725 87.0343 231.8 87.3997 231.917 87.709C232.035 88.013 232.189 88.2663 232.381 88.469C232.573 88.6663 232.8 88.8157 233.061 88.917C233.328 89.013 233.621 89.061 233.941 89.061C234.261 89.061 234.536 89.0237 234.765 88.949C235 88.8743 235.203 88.7917 235.373 88.701C235.549 88.6103 235.701 88.5277 235.829 88.453C235.963 88.3783 236.091 88.341 236.213 88.341C236.379 88.341 236.501 88.4023 236.581 88.525L237.149 89.245C236.931 89.501 236.685 89.717 236.413 89.893C236.141 90.0637 235.856 90.2023 235.557 90.309C235.264 90.4103 234.963 90.4823 234.653 90.525C234.349 90.5677 234.053 90.589 233.765 90.589C233.195 90.589 232.664 90.4957 232.173 90.309C231.683 90.117 231.256 89.837 230.893 89.469C230.531 89.0957 230.245 88.637 230.037 88.093C229.829 87.5437 229.725 86.909 229.725 86.189C229.725 85.629 229.816 85.1037 229.997 84.613C230.179 84.117 230.437 83.6877 230.773 83.325C231.115 82.957 231.528 82.6663 232.013 82.453C232.504 82.2397 233.056 82.133 233.669 82.133C234.187 82.133 234.664 82.2157 235.101 82.381C235.539 82.5463 235.915 82.789 236.229 83.109C236.544 83.4237 236.789 83.813 236.965 84.277C237.147 84.7357 237.237 85.261 237.237 85.853C237.237 86.1517 237.205 86.3543 237.141 86.461C237.077 86.5623 236.955 86.613 236.773 86.613H231.693ZM243.728 83.861C243.675 83.9463 243.619 84.0077 243.56 84.045C243.501 84.077 243.427 84.093 243.336 84.093C243.24 84.093 243.136 84.0663 243.024 84.013C242.917 83.9597 242.792 83.901 242.648 83.837C242.504 83.7677 242.339 83.7063 242.152 83.653C241.971 83.5997 241.755 83.573 241.504 83.573C241.115 83.573 240.808 83.6557 240.584 83.821C240.365 83.9863 240.256 84.2023 240.256 84.469C240.256 84.645 240.312 84.7943 240.424 84.917C240.541 85.0343 240.693 85.1383 240.88 85.229C241.072 85.3197 241.288 85.4023 241.528 85.477C241.768 85.5463 242.011 85.6237 242.256 85.709C242.507 85.7943 242.752 85.893 242.992 86.005C243.232 86.1117 243.445 86.2503 243.632 86.421C243.824 86.5863 243.976 86.7863 244.088 87.021C244.205 87.2557 244.264 87.5383 244.264 87.869C244.264 88.2637 244.192 88.629 244.048 88.965C243.909 89.2957 243.701 89.5837 243.424 89.829C243.147 90.069 242.803 90.2583 242.392 90.397C241.987 90.5303 241.517 90.597 240.984 90.597C240.701 90.597 240.424 90.5703 240.152 90.517C239.885 90.469 239.627 90.3997 239.376 90.309C239.131 90.2183 238.901 90.1117 238.688 89.989C238.48 89.8663 238.296 89.733 238.136 89.589L238.592 88.837C238.651 88.7463 238.72 88.677 238.8 88.629C238.88 88.581 238.981 88.557 239.104 88.557C239.227 88.557 239.341 88.5917 239.448 88.661C239.56 88.7303 239.688 88.805 239.832 88.885C239.976 88.965 240.144 89.0397 240.336 89.109C240.533 89.1783 240.781 89.213 241.08 89.213C241.315 89.213 241.515 89.1863 241.68 89.133C241.851 89.0743 241.989 88.9997 242.096 88.909C242.208 88.8183 242.288 88.7143 242.336 88.597C242.389 88.4743 242.416 88.349 242.416 88.221C242.416 88.029 242.357 87.8717 242.24 87.749C242.128 87.6263 241.976 87.5197 241.784 87.429C241.597 87.3383 241.381 87.2583 241.136 87.189C240.896 87.1143 240.648 87.0343 240.392 86.949C240.141 86.8637 239.893 86.765 239.648 86.653C239.408 86.5357 239.192 86.389 239 86.213C238.813 86.037 238.661 85.821 238.544 85.565C238.432 85.309 238.376 84.9997 238.376 84.637C238.376 84.301 238.443 83.981 238.576 83.677C238.709 83.373 238.904 83.109 239.16 82.885C239.421 82.6557 239.744 82.4743 240.128 82.341C240.517 82.2023 240.965 82.133 241.472 82.133C242.037 82.133 242.552 82.2263 243.016 82.413C243.48 82.5997 243.867 82.845 244.176 83.149L243.728 83.861Z" fill="#181818"/>
<path d="M148.517 73.4061C148.517 99.4209 127.427 120.51 101.413 120.51C75.3978 120.51 54.3086 99.4209 54.3086 73.4061C54.3086 47.3912 75.3978 26.302 101.413 26.302C127.427 26.302 148.517 47.3912 148.517 73.4061ZM59.019 73.4061C59.019 96.8194 77.9993 115.8 101.413 115.8C124.826 115.8 143.806 96.8194 143.806 73.4061C143.806 49.9927 124.826 31.0124 101.413 31.0124C77.9993 31.0124 59.019 49.9927 59.019 73.4061Z" fill="#F1F1F1"/>
<path d="M101.413 28.6572C101.413 27.3565 102.468 26.2959 103.767 26.3609C113.563 26.8509 122.984 30.3893 130.697 36.5111C139.026 43.1221 144.873 52.3568 147.287 62.7131C149.701 73.0694 148.54 83.9378 143.992 93.5502C139.444 103.163 131.778 110.953 122.24 115.655C112.702 120.357 101.854 121.693 91.4602 119.447C81.0664 117.2 71.7386 111.502 64.9943 103.281C58.25 95.0592 54.486 84.7975 54.3147 74.165C54.1561 64.3191 57.0867 54.6918 62.6635 46.6236C63.4031 45.5536 64.8871 45.3624 65.9188 46.1545C66.9505 46.9467 67.1387 48.4218 66.4051 49.4959C61.4726 56.7174 58.883 65.3066 59.0245 74.0891C59.1787 83.6583 62.5663 92.8939 68.6362 100.293C74.706 107.693 83.101 112.821 92.4555 114.843C101.81 116.865 111.573 115.662 120.157 111.43C128.742 107.199 135.641 100.187 139.734 91.5358C143.827 82.8846 144.872 73.1031 142.7 63.7824C140.527 54.4618 135.265 46.1505 127.768 40.2006C120.888 34.74 112.499 31.5633 103.767 31.0778C102.468 31.0056 101.413 29.9579 101.413 28.6572Z" fill="#4EAF4E"/>
<circle cx="66.4935" cy="45.7609" r="6.18981" fill="white" stroke="#4EAF4E" stroke-width="4"/>
<defs>
<filter id="filter0_d_5_10423" x="0.782227" y="0.0942383" width="293.168" height="188.75" filterUnits="userSpaceOnUse" color-interpolation-filters="sRGB">
<feFlood flood-opacity="0" result="BackgroundImageFix"/>
<feColorMatrix in="SourceAlpha" type="matrix" values="0 0 0 0 0 0 0 0 0 0 0 0 0 0 0 0 0 0 127 0" result="hardAlpha"/>
<feOffset dx="-5" dy="22"/>
<feGaussianBlur stdDeviation="13"/>
<feComposite in2="hardAlpha" operator="out"/>
<feColorMatrix type="matrix" values="0 0 0 0 0.370833 0 0 0 0 0.370833 0 0 0 0 0.370833 0 0 0 0.25 0"/>
<feBlend mode="multiply" in2="BackgroundImageFix" result="effect1_dropShadow_5_10423"/>
<feBlend mode="normal" in="SourceGraphic" in2="effect1_dropShadow_5_10423" result="shape"/>
</filter>
</defs>
</svg>
