<svg width="46" height="46" viewBox="0 0 46 46" fill="none" xmlns="http://www.w3.org/2000/svg">
<circle cx="23.1042" cy="23.194" r="22.5163" fill="#E2F4E2"/>
<path d="M19.9125 23.3445C20.6429 24.8527 21.8624 26.0692 23.3725 26.7956C23.4839 26.8484 23.6071 26.8712 23.73 26.8619C23.8529 26.8525 23.9712 26.8114 24.0734 26.7424L26.2913 25.2608C26.3893 25.1944 26.5025 25.1538 26.6204 25.143C26.7383 25.1321 26.8571 25.1513 26.9656 25.1987L31.1175 26.9819C31.2594 27.041 31.378 27.1451 31.4549 27.2781C31.5319 27.4112 31.5629 27.5658 31.5434 27.7183C31.4118 28.7454 30.9104 29.6894 30.1331 30.3736C29.3559 31.0578 28.3559 31.4353 27.3204 31.4355C24.1204 31.4355 21.0515 30.1644 18.7888 27.9016C16.5261 25.6389 15.2549 22.57 15.2549 19.37C15.2551 18.3345 15.6327 17.3346 16.3169 16.5573C17.001 15.78 17.945 15.2787 18.9721 15.1471C19.1246 15.1275 19.2792 15.1586 19.4123 15.2355C19.5454 15.3125 19.6494 15.431 19.7085 15.5729L21.4917 19.7337C21.5381 19.8405 21.5575 19.9571 21.5482 20.0731C21.5389 20.1891 21.5012 20.3011 21.4385 20.3991L19.9569 22.6525C19.8909 22.7545 19.8522 22.8716 19.8445 22.9928C19.8367 23.1139 19.8601 23.235 19.9125 23.3445V23.3445Z" stroke="#37A437" stroke-linecap="round" stroke-linejoin="round"/>
</svg>
