<svg width="101" height="90" viewBox="0 0 101 90" fill="none" xmlns="http://www.w3.org/2000/svg">
<circle cx="23.7943" cy="66.1937" r="23.7884" fill="#DADADA"/>
<path d="M74.2579 1.46255C74.4076 1.00189 75.0593 1.00189 75.209 1.46255L76.1325 4.30489C76.1995 4.5109 76.3914 4.65038 76.608 4.65038H79.5967C80.081 4.65038 80.2824 5.27019 79.8906 5.55489L77.4727 7.31155C77.2975 7.43887 77.2241 7.66456 77.2911 7.87057L78.2146 10.7129C78.3643 11.1736 77.837 11.5566 77.4452 11.2719L75.0274 9.51526C74.8521 9.38794 74.6148 9.38794 74.4396 9.51526L72.0217 11.2719C71.6299 11.5566 71.1026 11.1736 71.2523 10.7129L72.1758 7.87057C72.2428 7.66456 72.1694 7.43887 71.9942 7.31155L69.5764 5.55489C69.1845 5.27019 69.3859 4.65038 69.8703 4.65038H72.8589C73.0755 4.65038 73.2675 4.5109 73.3344 4.30489L74.2579 1.46255Z" fill="#141414"/>
<path d="M15.9704 43.9884C16.2426 44.2606 16.1181 44.7253 15.7463 44.8249L5.43672 47.5874C5.06493 47.687 4.72473 47.3468 4.82435 46.975L7.58679 36.6654C7.68641 36.2936 8.15114 36.1691 8.42331 36.4413L15.9704 43.9884Z" fill="#4EAF4E"/>
<circle cx="93.3957" cy="17.676" r="7.25703" fill="#DADADA"/>
<rect x="28.6855" y="56.4268" width="51.8211" height="8.02848" fill="#4EAF4E"/>
<path d="M26.2305 34.5444H82.961L54.5957 17.0889L26.2305 34.5444Z" fill="#FFCC4A" stroke="#141414" stroke-width="2" stroke-linecap="round" stroke-linejoin="round"/>
<path d="M34.959 34.5439V56.3634" stroke="#141414" stroke-width="2" stroke-linecap="round" stroke-linejoin="round"/>
<path d="M48.0498 34.5439V56.3634" stroke="#141414" stroke-width="2" stroke-linecap="round" stroke-linejoin="round"/>
<path d="M61.1416 34.5439V56.3634" stroke="#141414" stroke-width="2" stroke-linecap="round" stroke-linejoin="round"/>
<path d="M74.2334 34.5439V56.3634" stroke="#141414" stroke-width="2" stroke-linecap="round" stroke-linejoin="round"/>
<path d="M28.4131 56.3643H80.7797" stroke="#141414" stroke-width="2" stroke-linecap="round" stroke-linejoin="round"/>
<path d="M24.0488 65.0908H85.1433" stroke="#141414" stroke-width="2" stroke-linecap="round" stroke-linejoin="round"/>
</svg>
