<svg width="102" height="71" viewBox="0 0 102 71" fill="none" xmlns="http://www.w3.org/2000/svg">
<circle cx="73.7435" cy="26.8734" r="23.7884" fill="#DADADA"/>
<path d="M94.7238 51.4274C94.8734 50.9667 95.5251 50.9667 95.6748 51.4274L96.5983 54.2697C96.6653 54.4757 96.8573 54.6152 97.0739 54.6152H100.062C100.547 54.6152 100.748 55.235 100.356 55.5197L97.9385 57.2764C97.7633 57.4037 97.69 57.6294 97.7569 57.8354L98.6804 60.6778C98.8301 61.1384 98.3029 61.5215 97.911 61.2368L95.4932 59.4801C95.3179 59.3528 95.0806 59.3528 94.9054 59.4801L92.4875 61.2368C92.0957 61.5215 91.5685 61.1384 91.7181 60.6778L92.6417 57.8354C92.7086 57.6294 92.6353 57.4037 92.46 57.2764L90.0422 55.5197C89.6503 55.235 89.8517 54.6152 90.3361 54.6152H93.3247C93.5413 54.6152 93.7333 54.4757 93.8002 54.2697L94.7238 51.4274Z" fill="#141414"/>
<path d="M15.0837 37.8907C15.3559 38.1629 15.2314 38.6276 14.8596 38.7273L4.55 41.4897C4.17822 41.5893 3.83801 41.2491 3.93763 40.8773L6.70007 30.5678C6.79969 30.196 7.26442 30.0715 7.53659 30.3436L15.0837 37.8907Z" fill="#4EAF4E"/>
<circle cx="48.3154" cy="5.02046" r="5.02144" fill="#DADADA"/>
<path d="M80.1732 23.7822H22.0255C20.7904 23.7822 19.7891 24.7835 19.7891 26.0187V57.329C19.7891 58.5641 20.7904 59.5654 22.0255 59.5654H80.1732C81.4084 59.5654 82.4096 58.5641 82.4096 57.329V26.0187C82.4096 24.7835 81.4084 23.7822 80.1732 23.7822Z" fill="#EBEBEB" stroke="#141414" stroke-width="2" stroke-linecap="round" stroke-linejoin="round"/>
<path d="M82.5166 43.7151L64.6078 59.71L79.5166 59.71C81.1735 59.71 82.5166 58.3668 82.5166 56.71L82.5166 43.7151Z" fill="#4EAF4E" stroke="black"/>
<path d="M19.6846 39.5193L37.5933 23.5244H22.6846C21.0277 23.5244 19.6846 24.8676 19.6846 26.5244V39.5193Z" fill="#4EAF4E" stroke="black"/>
<path d="M51.0991 50.6191C56.0397 50.6191 60.0449 46.614 60.0449 41.6733C60.0449 36.7327 56.0397 32.7275 51.0991 32.7275C46.1585 32.7275 42.1533 36.7327 42.1533 41.6733C42.1533 46.614 46.1585 50.6191 51.0991 50.6191Z" fill="#FFCC4A" stroke="#141414" stroke-width="2" stroke-linecap="round" stroke-linejoin="round"/>
<path d="M64.5186 23.7822L82.4102 39.4374" stroke="#141414" stroke-width="2" stroke-linecap="round" stroke-linejoin="round"/>
<path d="M64.5186 59.5643L82.4102 43.9092" stroke="#141414" stroke-width="2" stroke-linecap="round" stroke-linejoin="round"/>
<path d="M37.6807 23.7822L19.7891 39.4374" stroke="#141414" stroke-width="2" stroke-linecap="round" stroke-linejoin="round"/>
<path d="M37.6807 59.5643L19.7891 43.9092" stroke="#141414" stroke-width="2" stroke-linecap="round" stroke-linejoin="round"/>
</svg>
